<svg width="115" height="61" viewBox="0 0 115 61" fill="none" xmlns="http://www.w3.org/2000/svg">
<path d="M9.46112 58L8.49212 55.331H3.13712L2.16812 58H0.485121L4.92212 46.1H6.70712L11.1441 58H9.46112ZM3.68112 53.852H7.94812L5.80612 47.987L3.68112 53.852ZM21.5749 49.279C22.5269 49.279 23.2976 49.5907 23.8869 50.214C24.4763 50.826 24.7709 51.659 24.7709 52.713V58H23.2919V52.764C23.2919 52.1067 23.1219 51.5967 22.7819 51.234C22.4419 50.8713 21.9886 50.69 21.4219 50.69C20.7873 50.69 20.2773 50.9053 19.8919 51.336C19.5179 51.7553 19.3309 52.4013 19.3309 53.274V58H17.8519V52.764C17.8519 52.1067 17.6876 51.5967 17.3589 51.234C17.0416 50.8713 16.6053 50.69 16.0499 50.69C15.4266 50.69 14.9053 50.9053 14.4859 51.336C14.0779 51.7667 13.8739 52.4127 13.8739 53.274V58H12.3949V49.5H13.8739V50.639C14.4519 49.7323 15.2963 49.279 16.4069 49.279C17.5516 49.279 18.3846 49.7607 18.9059 50.724C19.4953 49.7607 20.3849 49.279 21.5749 49.279ZM33.8597 49.5H35.3387V58H33.8597V56.538C33.123 57.66 32.052 58.221 30.6467 58.221C29.4567 58.221 28.4424 57.7903 27.6037 56.929C26.765 56.0563 26.3457 54.9967 26.3457 53.75C26.3457 52.5033 26.765 51.4493 27.6037 50.588C28.4424 49.7153 29.4567 49.279 30.6467 49.279C32.052 49.279 33.123 49.84 33.8597 50.962V49.5ZM30.8337 56.793C31.695 56.793 32.4147 56.504 32.9927 55.926C33.5707 55.3367 33.8597 54.6113 33.8597 53.75C33.8597 52.8887 33.5707 52.169 32.9927 51.591C32.4147 51.0017 31.695 50.707 30.8337 50.707C29.9837 50.707 29.2697 51.0017 28.6917 51.591C28.1137 52.169 27.8247 52.8887 27.8247 53.75C27.8247 54.6113 28.1137 55.3367 28.6917 55.926C29.2697 56.504 29.9837 56.793 30.8337 56.793ZM39.2965 56.589H43.8185V58H37.2735V57.014L41.6085 50.911H37.4435V49.5H43.6485V50.486L39.2965 56.589ZM52.2242 56.929C51.3516 57.7903 50.2919 58.221 49.0452 58.221C47.7986 58.221 46.7389 57.7903 45.8662 56.929C45.0049 56.0677 44.5742 55.008 44.5742 53.75C44.5742 52.492 45.0049 51.4323 45.8662 50.571C46.7389 49.7097 47.7986 49.279 49.0452 49.279C50.2919 49.279 51.3516 49.7097 52.2242 50.571C53.0969 51.4323 53.5332 52.492 53.5332 53.75C53.5332 55.008 53.0969 56.0677 52.2242 56.929ZM49.0452 56.776C49.8952 56.776 50.6092 56.487 51.1872 55.909C51.7652 55.331 52.0542 54.6113 52.0542 53.75C52.0542 52.8887 51.7652 52.169 51.1872 51.591C50.6092 51.013 49.8952 50.724 49.0452 50.724C48.2066 50.724 47.4982 51.013 46.9202 51.591C46.3422 52.169 46.0532 52.8887 46.0532 53.75C46.0532 54.6113 46.3422 55.331 46.9202 55.909C47.4982 56.487 48.2066 56.776 49.0452 56.776ZM59.5098 49.279C60.5071 49.279 61.3061 49.5963 61.9068 50.231C62.5075 50.8543 62.8078 51.7043 62.8078 52.781V58H61.3288V52.866C61.3288 52.1747 61.1418 51.642 60.7678 51.268C60.3938 50.8827 59.8781 50.69 59.2208 50.69C58.4841 50.69 57.8891 50.9223 57.4358 51.387C56.9825 51.8403 56.7558 52.543 56.7558 53.495V58H55.2768V49.5H56.7558V50.724C57.3565 49.7607 58.2745 49.279 59.5098 49.279ZM65.9095 54.43C66.0568 55.1893 66.4025 55.7787 66.9465 56.198C67.5018 56.6173 68.1818 56.827 68.9865 56.827C70.1085 56.827 70.9245 56.4133 71.4345 55.586L72.6925 56.3C71.8652 57.5807 70.6185 58.221 68.9525 58.221C67.6038 58.221 66.5045 57.8017 65.6545 56.963C64.8158 56.113 64.3965 55.042 64.3965 53.75C64.3965 52.4693 64.8102 51.404 65.6375 50.554C66.4648 49.704 67.5358 49.279 68.8505 49.279C70.0972 49.279 71.1115 49.721 71.8935 50.605C72.6868 51.4777 73.0835 52.5317 73.0835 53.767C73.0835 53.9823 73.0665 54.2033 73.0325 54.43H65.9095ZM68.8505 50.673C68.0572 50.673 67.3998 50.8997 66.8785 51.353C66.3572 51.795 66.0342 52.39 65.9095 53.138H71.5875C71.4628 52.3333 71.1455 51.7213 70.6355 51.302C70.1255 50.8827 69.5305 50.673 68.8505 50.673ZM87.0236 58L86.0546 55.331H80.6996L79.7306 58H78.0476L82.4846 46.1H84.2696L88.7066 58H87.0236ZM81.2436 53.852H85.5106L83.3686 47.987L81.2436 53.852ZM91.9968 58L88.5798 46.1H90.2458L92.9658 55.892L95.8558 46.1H97.4538L100.344 55.892L103.064 46.1H104.73L101.313 58H99.4768L96.6548 48.497L93.8328 58H91.9968ZM109.94 58.221C108.829 58.221 107.877 57.9603 107.084 57.439C106.302 56.9177 105.752 56.2037 105.435 55.297L106.795 54.515C107.259 55.9543 108.319 56.674 109.974 56.674C110.79 56.674 111.413 56.5097 111.844 56.181C112.274 55.841 112.49 55.3933 112.49 54.838C112.49 54.2713 112.274 53.8463 111.844 53.563C111.413 53.2797 110.693 52.9793 109.685 52.662C109.186 52.5033 108.806 52.3787 108.546 52.288C108.285 52.186 107.956 52.0387 107.56 51.846C107.174 51.642 106.885 51.438 106.693 51.234C106.5 51.0187 106.324 50.741 106.166 50.401C106.018 50.061 105.945 49.6757 105.945 49.245C105.945 48.2137 106.307 47.3977 107.033 46.797C107.758 46.185 108.642 45.879 109.685 45.879C110.625 45.879 111.441 46.117 112.133 46.593C112.835 47.069 113.362 47.698 113.714 48.48L112.388 49.245C111.878 48.021 110.977 47.409 109.685 47.409C109.039 47.409 108.517 47.5677 108.121 47.885C107.724 48.2023 107.526 48.633 107.526 49.177C107.526 49.6983 107.713 50.095 108.087 50.367C108.461 50.639 109.107 50.9223 110.025 51.217C110.353 51.319 110.586 51.3927 110.722 51.438C110.858 51.4833 111.067 51.5627 111.351 51.676C111.645 51.7893 111.861 51.88 111.997 51.948C112.133 52.016 112.314 52.1123 112.541 52.237C112.779 52.3617 112.954 52.4807 113.068 52.594C113.181 52.7073 113.311 52.849 113.459 53.019C113.617 53.1777 113.731 53.342 113.799 53.512C113.867 53.682 113.923 53.8803 113.969 54.107C114.025 54.3223 114.054 54.5547 114.054 54.804C114.054 55.8467 113.674 56.6797 112.915 57.303C112.155 57.915 111.164 58.221 109.94 58.221Z" fill="#212121"/>
<path d="M46.0905 10.8954C46.0905 11.5128 46.157 12.0134 46.2734 12.3804C46.4065 12.7475 46.5727 13.1479 46.8056 13.5818C46.8887 13.7152 46.922 13.8487 46.922 13.9655C46.922 14.1324 46.8222 14.2992 46.606 14.4661L45.5583 15.1669C45.4087 15.267 45.259 15.317 45.126 15.317C44.9597 15.317 44.7934 15.2336 44.6271 15.0834C44.3943 14.8331 44.1947 14.5662 44.0284 14.2992C43.8621 14.0156 43.6958 13.6986 43.5129 13.3148C42.2158 14.8498 40.5861 15.6174 38.6239 15.6174C37.227 15.6174 36.1128 15.2169 35.298 14.416C34.4831 13.6151 34.0674 12.5473 34.0674 11.2125C34.0674 9.79422 34.5663 8.64294 35.5807 7.77531C36.5951 6.90768 37.942 6.47386 39.6549 6.47386C40.2203 6.47386 40.8023 6.52392 41.4176 6.60734C42.0329 6.69077 42.6648 6.82425 43.33 6.97442V5.7564C43.33 4.48832 43.0639 3.604 42.5484 3.08676C42.0163 2.56952 41.1183 2.31924 39.8378 2.31924C39.2558 2.31924 38.6571 2.38598 38.0418 2.53615C37.4265 2.68632 36.8279 2.86986 36.2458 3.10345C35.9798 3.22025 35.7802 3.28699 35.6638 3.32036C35.5474 3.35373 35.4643 3.37041 35.3977 3.37041C35.1649 3.37041 35.0485 3.20356 35.0485 2.85317V2.0356C35.0485 1.76863 35.0818 1.56841 35.1649 1.45161C35.2481 1.33482 35.3977 1.21802 35.6306 1.10122C36.2126 0.80089 36.911 0.550612 37.7259 0.350389C38.5407 0.133482 39.4054 0.0333704 40.3201 0.0333704C42.299 0.0333704 43.7457 0.483871 44.677 1.38487C45.5916 2.28587 46.0572 3.65406 46.0572 5.48943V10.8954H46.0905ZM39.3389 13.4316C39.8877 13.4316 40.4531 13.3315 41.0518 13.1313C41.6504 12.931 42.1826 12.564 42.6316 12.0634C42.8976 11.7464 43.0972 11.396 43.197 10.9956C43.2967 10.5951 43.3633 10.1112 43.3633 9.54394V8.84316C42.881 8.72636 42.3655 8.62625 41.8333 8.55951C41.3012 8.49277 40.7857 8.4594 40.2702 8.4594C39.156 8.4594 38.3412 8.67631 37.7924 9.12681C37.2436 9.57731 36.9775 10.2113 36.9775 11.0456C36.9775 11.8298 37.1771 12.4138 37.5928 12.8142C37.9919 13.2314 38.574 13.4316 39.3389 13.4316ZM52.6924 15.2336C52.3931 15.2336 52.1935 15.1835 52.0605 15.0667C51.9274 14.9666 51.811 14.733 51.7113 14.416L47.8033 1.51835C47.7035 1.18465 47.6537 0.967742 47.6537 0.850946C47.6537 0.583982 47.7867 0.433815 48.0528 0.433815H49.6825C49.9984 0.433815 50.2146 0.483871 50.331 0.600667C50.464 0.700779 50.5638 0.934372 50.6636 1.25139L53.4573 12.297L56.0515 1.25139C56.1347 0.917686 56.2345 0.700779 56.3675 0.600667C56.5005 0.500556 56.7334 0.433815 57.0327 0.433815H58.363C58.679 0.433815 58.8952 0.483871 59.0282 0.600667C59.1613 0.700779 59.2777 0.934372 59.3442 1.25139L61.9716 12.4305L64.8485 1.25139C64.9483 0.917686 65.0647 0.700779 65.1811 0.600667C65.3142 0.500556 65.5303 0.433815 65.8297 0.433815H67.3762C67.6423 0.433815 67.792 0.567297 67.792 0.850946C67.792 0.934372 67.7753 1.0178 67.7587 1.11791C67.7421 1.21802 67.7088 1.3515 67.6423 1.53504L63.6346 14.4327C63.5348 14.7664 63.4184 14.9833 63.2854 15.0834C63.1523 15.1835 62.9361 15.2503 62.6535 15.2503H61.2233C60.9074 15.2503 60.6912 15.2002 60.5581 15.0834C60.4251 14.9666 60.3087 14.7497 60.2422 14.416L57.6646 3.65406L55.1037 14.3993C55.0205 14.733 54.9207 14.9499 54.7877 15.0667C54.6547 15.1835 54.4219 15.2336 54.1225 15.2336H52.6924ZM74.0613 15.6841C73.1965 15.6841 72.3318 15.584 71.5003 15.3838C70.6689 15.1835 70.0203 14.9666 69.5879 14.7164C69.3219 14.5662 69.1389 14.3993 69.0724 14.2492C69.0059 14.099 68.9726 13.9321 68.9726 13.782V12.931C68.9726 12.5806 69.1057 12.4138 69.3551 12.4138C69.4549 12.4138 69.5547 12.4305 69.6545 12.4639C69.7542 12.4972 69.9039 12.564 70.0702 12.6307C70.6356 12.881 71.2509 13.0812 71.8994 13.2147C72.5646 13.3482 73.2132 13.4149 73.8783 13.4149C74.926 13.4149 75.7408 13.2314 76.3062 12.8643C76.8717 12.4972 77.171 11.9633 77.171 11.2792C77.171 10.812 77.0213 10.4283 76.722 10.1112C76.4227 9.79422 75.8573 9.51057 75.0424 9.24361L72.6311 8.49277C71.4172 8.10901 70.5192 7.54171 69.9704 6.79088C69.4216 6.05673 69.1389 5.23916 69.1389 4.37152C69.1389 3.67075 69.2886 3.05339 69.5879 2.51947C69.8873 1.98554 70.2864 1.51835 70.7853 1.15128C71.2841 0.76752 71.8495 0.483871 72.5147 0.283649C73.1799 0.083426 73.8783 0 74.61 0C74.9759 0 75.3584 0.0166852 75.7242 0.0667408C76.1067 0.116796 76.4559 0.183537 76.8051 0.250278C77.1377 0.333704 77.4537 0.41713 77.753 0.517241C78.0523 0.617353 78.2852 0.717464 78.4515 0.817575C78.6843 0.951057 78.8506 1.08454 78.9503 1.23471C79.0501 1.36819 79.1 1.55172 79.1 1.78532V2.56952C79.1 2.91991 78.967 3.10345 78.7175 3.10345C78.5845 3.10345 78.3683 3.03671 78.0856 2.90323C77.1377 2.46941 76.0734 2.2525 74.8927 2.2525C73.9449 2.2525 73.1965 2.40267 72.681 2.71969C72.1655 3.03671 71.8994 3.52058 71.8994 4.20467C71.8994 4.67186 72.0657 5.0723 72.3983 5.38932C72.7309 5.70634 73.3462 6.02336 74.2276 6.30701L76.5889 7.05784C77.7863 7.4416 78.651 7.97553 79.1665 8.65962C79.682 9.34372 79.9315 10.1279 79.9315 10.9956C79.9315 11.713 79.7818 12.3637 79.4991 12.931C79.1998 13.4983 78.8007 13.9989 78.2852 14.3993C77.7696 14.8165 77.1544 15.1168 76.4393 15.3337C75.691 15.5673 74.9094 15.6841 74.0613 15.6841Z" fill="#212121"/>
<path fill-rule="evenodd" clip-rule="evenodd" d="M77.2042 23.7931C71.7331 27.8476 63.7843 30 56.9495 30C47.371 30 38.7403 26.4461 32.2215 20.5395C31.706 20.0723 32.1716 19.4383 32.7869 19.8053C39.8378 23.9099 48.535 26.396 57.5316 26.396C63.6013 26.396 70.2698 25.1279 76.406 22.525C77.3206 22.1079 78.1022 23.1257 77.2042 23.7931Z" fill="#212121"/>
<path fill-rule="evenodd" clip-rule="evenodd" d="M79.4825 21.1902C78.784 20.2892 74.8595 20.7564 73.0801 20.9733C72.548 21.0401 72.4648 20.5729 72.9471 20.2225C76.0734 18.02 81.2119 18.6541 81.8106 19.3882C82.4093 20.1391 81.6443 25.2948 78.7175 27.7642C78.2685 28.148 77.8362 27.9477 78.0357 27.4472C78.7009 25.7953 80.1809 22.0745 79.4825 21.1902Z" fill="#212121"/>
</svg>
