<svg width="100" height="65" viewBox="0 0 100 65" fill="none" xmlns="http://www.w3.org/2000/svg">
<path d="M9.53973 61L8.57073 58.331H3.21573L2.24673 61H0.563734L5.00073 49.1H6.78573L11.2227 61H9.53973ZM3.75973 56.852H8.02673L5.88473 50.987L3.75973 56.852ZM14.5129 61L11.0959 49.1H12.7619L15.4819 58.892L18.3719 49.1H19.9699L22.8599 58.892L25.5799 49.1H27.2459L23.8289 61H21.9929L19.1709 51.497L16.3489 61H14.5129ZM32.4559 61.221C31.3452 61.221 30.3932 60.9603 29.5999 60.439C28.8179 59.9177 28.2682 59.2037 27.9509 58.297L29.3109 57.515C29.7755 58.9543 30.8352 59.674 32.4899 59.674C33.3059 59.674 33.9292 59.5097 34.3599 59.181C34.7905 58.841 35.0059 58.3933 35.0059 57.838C35.0059 57.2713 34.7905 56.8463 34.3599 56.563C33.9292 56.2797 33.2095 55.9793 32.2009 55.662C31.7022 55.5033 31.3225 55.3787 31.0619 55.288C30.8012 55.186 30.4725 55.0387 30.0759 54.846C29.6905 54.642 29.4015 54.438 29.2089 54.234C29.0162 54.0187 28.8405 53.741 28.6819 53.401C28.5345 53.061 28.4609 52.6757 28.4609 52.245C28.4609 51.2137 28.8235 50.3977 29.5489 49.797C30.2742 49.185 31.1582 48.879 32.2009 48.879C33.1415 48.879 33.9575 49.117 34.6489 49.593C35.3515 50.069 35.8785 50.698 36.2299 51.48L34.9039 52.245C34.3939 51.021 33.4929 50.409 32.2009 50.409C31.5549 50.409 31.0335 50.5677 30.6369 50.885C30.2402 51.2023 30.0419 51.633 30.0419 52.177C30.0419 52.6983 30.2289 53.095 30.6029 53.367C30.9769 53.639 31.6229 53.9223 32.5409 54.217C32.8695 54.319 33.1019 54.3927 33.2379 54.438C33.3739 54.4833 33.5835 54.5627 33.8669 54.676C34.1615 54.7893 34.3769 54.88 34.5129 54.948C34.6489 55.016 34.8302 55.1123 35.0569 55.237C35.2949 55.3617 35.4705 55.4807 35.5839 55.594C35.6972 55.7073 35.8275 55.849 35.9749 56.019C36.1335 56.1777 36.2469 56.342 36.3149 56.512C36.3829 56.682 36.4395 56.8803 36.4849 57.107C36.5415 57.3223 36.5699 57.5547 36.5699 57.804C36.5699 58.8467 36.1902 59.6797 35.4309 60.303C34.6715 60.915 33.6799 61.221 32.4559 61.221ZM50.529 61L49.56 58.331H44.205L43.236 61H41.553L45.99 49.1H47.775L52.212 61H50.529ZM44.749 56.852H49.016L46.874 50.987L44.749 56.852ZM62.6428 52.279C63.5948 52.279 64.3655 52.5907 64.9548 53.214C65.5442 53.826 65.8388 54.659 65.8388 55.713V61H64.3598V55.764C64.3598 55.1067 64.1898 54.5967 63.8498 54.234C63.5098 53.8713 63.0565 53.69 62.4898 53.69C61.8552 53.69 61.3452 53.9053 60.9598 54.336C60.5858 54.7553 60.3988 55.4013 60.3988 56.274V61H58.9198V55.764C58.9198 55.1067 58.7555 54.5967 58.4268 54.234C58.1095 53.8713 57.6732 53.69 57.1178 53.69C56.4945 53.69 55.9732 53.9053 55.5538 54.336C55.1458 54.7667 54.9418 55.4127 54.9418 56.274V61H53.4628V52.5H54.9418V53.639C55.5198 52.7323 56.3642 52.279 57.4748 52.279C58.6195 52.279 59.4525 52.7607 59.9738 53.724C60.5632 52.7607 61.4528 52.279 62.6428 52.279ZM72.5816 52.279C73.7716 52.279 74.7859 52.7153 75.6246 53.588C76.4632 54.4493 76.8826 55.5033 76.8826 56.75C76.8826 57.9967 76.4632 59.0563 75.6246 59.929C74.7859 60.7903 73.7716 61.221 72.5816 61.221C71.1762 61.221 70.1052 60.66 69.3686 59.538V64.4H67.8896V52.5H69.3686V53.962C70.1052 52.84 71.1762 52.279 72.5816 52.279ZM72.3946 59.793C73.2446 59.793 73.9586 59.504 74.5366 58.926C75.1146 58.3367 75.4036 57.6113 75.4036 56.75C75.4036 55.8887 75.1146 55.169 74.5366 54.591C73.9586 54.0017 73.2446 53.707 72.3946 53.707C71.5332 53.707 70.8136 54.0017 70.2356 54.591C69.6576 55.169 69.3686 55.8887 69.3686 56.75C69.3686 57.6113 69.6576 58.3367 70.2356 58.926C70.8136 59.504 71.5332 59.793 72.3946 59.793ZM78.6474 61V48.59H80.1264V61H78.6474ZM83.1307 50.953C82.8474 50.953 82.6094 50.8567 82.4167 50.664C82.2241 50.4713 82.1277 50.239 82.1277 49.967C82.1277 49.695 82.2241 49.4627 82.4167 49.27C82.6094 49.066 82.8474 48.964 83.1307 48.964C83.4027 48.964 83.6351 49.066 83.8277 49.27C84.0204 49.4627 84.1167 49.695 84.1167 49.967C84.1167 50.239 84.0204 50.4713 83.8277 50.664C83.6351 50.8567 83.4027 50.953 83.1307 50.953ZM82.3827 61V52.5H83.8617V61H82.3827ZM90.4871 50.307C88.9911 50.1823 88.2431 50.8283 88.2431 52.245V52.5H90.4871V53.928H88.2431V61H86.7641V53.928H85.4041V52.5H86.7641V52.245C86.7641 51.1003 87.0814 50.2333 87.7161 49.644C88.3621 49.0547 89.2858 48.7997 90.4871 48.879V50.307ZM97.8782 52.5H99.4592L95.9912 61.527C95.6286 62.4903 95.1186 63.2213 94.4612 63.72C93.8152 64.23 93.0672 64.4567 92.2172 64.4V63.023C93.2599 63.1023 94.0249 62.5243 94.5122 61.289L94.6652 60.966L90.9592 52.5H92.5402L95.4302 59.164L97.8782 52.5Z" fill="#212121"/>
<path d="M52.6243 0H47.0718L64.3923 30H69.779L52.6243 0Z" fill="#212121"/>
<path d="M61.1602 30L45.5801 2.65193L42.7624 7.37569L55.6906 30H61.1602Z" fill="#212121"/>
<path d="M44.1713 15.1657L41.1878 10.1105L30 30H52.6243L49.7238 25.1105H38.453L44.1713 15.1657Z" fill="#212121"/>
</svg>
