<svg width="78" height="65" viewBox="0 0 78 65" fill="none" xmlns="http://www.w3.org/2000/svg">
<path d="M8.45147 54.829C8.99547 55.0897 9.42613 55.4637 9.74346 55.951C10.0721 56.4383 10.2365 56.9993 10.2365 57.634C10.2365 58.586 9.90213 59.385 9.23347 60.031C8.5648 60.677 7.7488 61 6.78546 61H1.65146V49.1H6.41147C7.3408 49.1 8.12847 49.4117 8.77447 50.035C9.42046 50.6583 9.74346 51.429 9.74346 52.347C9.74346 53.401 9.3128 54.2283 8.45147 54.829ZM6.41147 50.579H3.23247V54.217H6.41147C6.91013 54.217 7.32947 54.0413 7.66947 53.69C8.00947 53.3387 8.17947 52.908 8.17947 52.398C8.17947 51.8993 8.0038 51.4743 7.65247 51.123C7.31247 50.7603 6.8988 50.579 6.41147 50.579ZM6.78546 59.521C7.31813 59.521 7.7658 59.334 8.12847 58.96C8.49113 58.586 8.67247 58.127 8.67247 57.583C8.67247 57.0503 8.48547 56.597 8.11147 56.223C7.7488 55.849 7.3068 55.662 6.78546 55.662H3.23247V59.521H6.78546ZM19.1813 59.929C18.3086 60.7903 17.2489 61.221 16.0023 61.221C14.7556 61.221 13.6959 60.7903 12.8233 59.929C11.9619 59.0677 11.5313 58.008 11.5313 56.75C11.5313 55.492 11.9619 54.4323 12.8233 53.571C13.6959 52.7097 14.7556 52.279 16.0023 52.279C17.2489 52.279 18.3086 52.7097 19.1813 53.571C20.0539 54.4323 20.4903 55.492 20.4903 56.75C20.4903 58.008 20.0539 59.0677 19.1813 59.929ZM16.0023 59.776C16.8523 59.776 17.5663 59.487 18.1443 58.909C18.7223 58.331 19.0113 57.6113 19.0113 56.75C19.0113 55.8887 18.7223 55.169 18.1443 54.591C17.5663 54.013 16.8523 53.724 16.0023 53.724C15.1636 53.724 14.4553 54.013 13.8773 54.591C13.2993 55.169 13.0103 55.8887 13.0103 56.75C13.0103 57.6113 13.2993 58.331 13.8773 58.909C14.4553 59.487 15.1636 59.776 16.0023 59.776ZM29.4078 59.929C28.5352 60.7903 27.4755 61.221 26.2288 61.221C24.9822 61.221 23.9225 60.7903 23.0498 59.929C22.1885 59.0677 21.7578 58.008 21.7578 56.75C21.7578 55.492 22.1885 54.4323 23.0498 53.571C23.9225 52.7097 24.9822 52.279 26.2288 52.279C27.4755 52.279 28.5352 52.7097 29.4078 53.571C30.2805 54.4323 30.7168 55.492 30.7168 56.75C30.7168 58.008 30.2805 59.0677 29.4078 59.929ZM26.2288 59.776C27.0788 59.776 27.7928 59.487 28.3708 58.909C28.9488 58.331 29.2378 57.6113 29.2378 56.75C29.2378 55.8887 28.9488 55.169 28.3708 54.591C27.7928 54.013 27.0788 53.724 26.2288 53.724C25.3902 53.724 24.6818 54.013 24.1038 54.591C23.5258 55.169 23.2368 55.8887 23.2368 56.75C23.2368 57.6113 23.5258 58.331 24.1038 58.909C24.6818 59.487 25.3902 59.776 26.2288 59.776ZM36.9018 53.928H34.6408V58.535C34.6408 58.9543 34.7201 59.2547 34.8788 59.436C35.0488 59.606 35.3038 59.6967 35.6438 59.708C35.9838 59.708 36.4031 59.6967 36.9018 59.674V61C35.6098 61.17 34.6634 61.068 34.0628 60.694C33.4621 60.3087 33.1618 59.589 33.1618 58.535V53.928H31.4788V52.5H33.1618V50.562L34.6408 50.12V52.5H36.9018V53.928ZM39.5127 54.795C39.5127 55.1237 39.6771 55.39 40.0057 55.594C40.3344 55.7867 40.7311 55.9453 41.1957 56.07C41.6604 56.1833 42.1251 56.3193 42.5897 56.478C43.0544 56.6253 43.4511 56.886 43.7797 57.26C44.1084 57.6227 44.2727 58.093 44.2727 58.671C44.2727 59.4417 43.9724 60.0593 43.3717 60.524C42.7824 60.9887 42.0231 61.221 41.0937 61.221C40.2664 61.221 39.5581 61.0397 38.9687 60.677C38.3794 60.3143 37.9601 59.8327 37.7107 59.232L38.9857 58.501C39.1217 58.909 39.3767 59.232 39.7507 59.47C40.1247 59.708 40.5724 59.827 41.0937 59.827C41.5811 59.827 41.9834 59.7363 42.3007 59.555C42.6181 59.3623 42.7767 59.0677 42.7767 58.671C42.7767 58.3423 42.6124 58.0817 42.2837 57.889C41.9551 57.685 41.5584 57.5263 41.0937 57.413C40.6291 57.2883 40.1644 57.1467 39.6997 56.988C39.2351 56.8293 38.8384 56.5687 38.5097 56.206C38.1811 55.8433 38.0167 55.3787 38.0167 54.812C38.0167 54.0753 38.3001 53.469 38.8667 52.993C39.4447 52.517 40.1644 52.279 41.0257 52.279C41.7171 52.279 42.3291 52.4377 42.8617 52.755C43.4057 53.061 43.8137 53.4917 44.0857 54.047L42.8447 54.744C42.5387 54.0187 41.9324 53.656 41.0257 53.656C40.6064 53.656 40.2494 53.758 39.9547 53.962C39.6601 54.1547 39.5127 54.4323 39.5127 54.795ZM50.3158 53.928H48.0548V58.535C48.0548 58.9543 48.1342 59.2547 48.2928 59.436C48.4628 59.606 48.7178 59.6967 49.0578 59.708C49.3978 59.708 49.8172 59.6967 50.3158 59.674V61C49.0238 61.17 48.0775 61.068 47.4768 60.694C46.8762 60.3087 46.5758 59.589 46.5758 58.535V53.928H44.8928V52.5H46.5758V50.562L48.0548 50.12V52.5H50.3158V53.928ZM53.5956 53.928C54.083 52.874 54.967 52.347 56.2476 52.347V53.894C55.5223 53.86 54.899 54.0527 54.3776 54.472C53.8563 54.8913 53.5956 55.5657 53.5956 56.495V61H52.1166V52.5H53.5956V53.928ZM64.2679 52.5H65.7469V61H64.2679V59.538C63.5312 60.66 62.4602 61.221 61.0549 61.221C59.8649 61.221 58.8506 60.7903 58.0119 59.929C57.1732 59.0563 56.7539 57.9967 56.7539 56.75C56.7539 55.5033 57.1732 54.4493 58.0119 53.588C58.8506 52.7153 59.8649 52.279 61.0549 52.279C62.4602 52.279 63.5312 52.84 64.2679 53.962V52.5ZM61.2419 59.793C62.1032 59.793 62.8229 59.504 63.4009 58.926C63.9789 58.3367 64.2679 57.6113 64.2679 56.75C64.2679 55.8887 63.9789 55.169 63.4009 54.591C62.8229 54.0017 62.1032 53.707 61.2419 53.707C60.3919 53.707 59.6779 54.0017 59.0999 54.591C58.5219 55.169 58.2329 55.8887 58.2329 56.75C58.2329 57.6113 58.5219 58.3367 59.0999 58.926C59.6779 59.504 60.3919 59.793 61.2419 59.793ZM72.6797 52.279C73.8697 52.279 74.8841 52.7153 75.7227 53.588C76.5614 54.4493 76.9807 55.5033 76.9807 56.75C76.9807 57.9967 76.5614 59.0563 75.7227 59.929C74.8841 60.7903 73.8697 61.221 72.6797 61.221C71.2744 61.221 70.2034 60.66 69.4667 59.538V64.4H67.9877V52.5H69.4667V53.962C70.2034 52.84 71.2744 52.279 72.6797 52.279ZM72.4927 59.793C73.3427 59.793 74.0567 59.504 74.6347 58.926C75.2127 58.3367 75.5017 57.6113 75.5017 56.75C75.5017 55.8887 75.2127 55.169 74.6347 54.591C74.0567 54.0017 73.3427 53.707 72.4927 53.707C71.6314 53.707 70.9117 54.0017 70.3337 54.591C69.7557 55.169 69.4667 55.8887 69.4667 56.75C69.4667 57.6113 69.7557 58.3367 70.3337 58.926C70.9117 59.504 71.6314 59.793 72.4927 59.793Z" fill="#212121"/>
<path d="M40.2157 13.848H35.2157V9.01471H40.2157C41.049 9.01471 41.6863 9.19608 42.1274 9.55392C42.5686 9.91177 42.7892 10.5343 42.7892 11.4167C42.7892 12.201 42.5441 12.799 42.0539 13.2206C41.5637 13.6422 40.951 13.848 40.2157 13.848Z" fill="#212121"/>
<path d="M40.6324 21.5196H35.2157V16.049H40.6324C41.5637 16.049 42.2794 16.2745 42.799 16.7451C43.3186 17.2157 43.5735 17.8775 43.5735 18.7451C43.5735 19.6275 43.3137 20.3137 42.799 20.7941C42.2892 21.2794 41.5637 21.5196 40.6324 21.5196Z" fill="#212121"/>
<path fill-rule="evenodd" clip-rule="evenodd" d="M49 30C51.75 30 54 27.75 54 25V5C54 2.25 51.75 0 49 0H29C26.25 0 24 2.25 24 5V25C24 27.75 26.25 30 29 30H49ZM40.6569 6.51961H32.152V24.0196H40.1912C41.3186 24.0196 42.2892 23.8922 43.1078 23.6373C43.9265 23.3824 44.5931 23.0392 45.1176 22.6078C45.6422 22.1765 46.0245 21.6618 46.2696 21.0637C46.5147 20.4706 46.6373 19.8284 46.6373 19.1422C46.6373 17.9461 46.3578 16.9559 45.8039 16.1618C45.25 15.3726 44.4314 14.8627 43.3529 14.6324V14.5833C44.1569 14.2402 44.7745 13.75 45.2059 13.1226C45.6373 12.4951 45.8529 11.7402 45.8529 10.8578C45.8529 9.40196 45.3775 8.31863 44.4314 7.59804C43.4853 6.87745 42.2255 6.51961 40.6569 6.51961Z" fill="#212121"/>
</svg>
