<svg width="110" height="62" viewBox="0 0 110 62" fill="none" xmlns="http://www.w3.org/2000/svg">
<path d="M13.0562 52.101V52.815C13.0562 54.3677 12.5235 55.6597 11.4582 56.691C10.3928 57.711 8.98182 58.221 7.22515 58.221C5.41182 58.221 3.91015 57.626 2.72015 56.436C1.54149 55.2347 0.952152 53.7727 0.952152 52.05C0.952152 50.3273 1.54149 48.871 2.72015 47.681C3.91015 46.4797 5.40049 45.879 7.19115 45.879C8.29049 45.879 9.29915 46.1453 10.2172 46.678C11.1352 47.1993 11.8435 47.8907 12.3422 48.752L10.9822 49.551C10.6422 48.905 10.1265 48.3893 9.43515 48.004C8.75515 47.6073 8.00149 47.409 7.17415 47.409C5.81415 47.409 4.69782 47.8567 3.82515 48.752C2.95249 49.636 2.51615 50.7353 2.51615 52.05C2.51615 53.3647 2.95249 54.464 3.82515 55.348C4.70915 56.232 5.84815 56.674 7.24215 56.674C8.43215 56.674 9.39549 56.385 10.1322 55.807C10.8688 55.2177 11.3165 54.4583 11.4752 53.529H7.10615V52.101H13.0562ZM21.9996 56.929C21.1269 57.7903 20.0673 58.221 18.8206 58.221C17.5739 58.221 16.5143 57.7903 15.6416 56.929C14.7803 56.0677 14.3496 55.008 14.3496 53.75C14.3496 52.492 14.7803 51.4323 15.6416 50.571C16.5143 49.7097 17.5739 49.279 18.8206 49.279C20.0673 49.279 21.1269 49.7097 21.9996 50.571C22.8723 51.4323 23.3086 52.492 23.3086 53.75C23.3086 55.008 22.8723 56.0677 21.9996 56.929ZM18.8206 56.776C19.6706 56.776 20.3846 56.487 20.9626 55.909C21.5406 55.331 21.8296 54.6113 21.8296 53.75C21.8296 52.8887 21.5406 52.169 20.9626 51.591C20.3846 51.013 19.6706 50.724 18.8206 50.724C17.9819 50.724 17.2736 51.013 16.6956 51.591C16.1176 52.169 15.8286 52.8887 15.8286 53.75C15.8286 54.6113 16.1176 55.331 16.6956 55.909C17.2736 56.487 17.9819 56.776 18.8206 56.776ZM32.2262 56.929C31.3535 57.7903 30.2938 58.221 29.0472 58.221C27.8005 58.221 26.7408 57.7903 25.8682 56.929C25.0068 56.0677 24.5762 55.008 24.5762 53.75C24.5762 52.492 25.0068 51.4323 25.8682 50.571C26.7408 49.7097 27.8005 49.279 29.0472 49.279C30.2938 49.279 31.3535 49.7097 32.2262 50.571C33.0988 51.4323 33.5352 52.492 33.5352 53.75C33.5352 55.008 33.0988 56.0677 32.2262 56.929ZM29.0472 56.776C29.8972 56.776 30.6112 56.487 31.1892 55.909C31.7672 55.331 32.0562 54.6113 32.0562 53.75C32.0562 52.8887 31.7672 52.169 31.1892 51.591C30.6112 51.013 29.8972 50.724 29.0472 50.724C28.2085 50.724 27.5002 51.013 26.9222 51.591C26.3442 52.169 26.0552 52.8887 26.0552 53.75C26.0552 54.6113 26.3442 55.331 26.9222 55.909C27.5002 56.487 28.2085 56.776 29.0472 56.776ZM42.3337 49.5H43.7957V57.643C43.7957 58.901 43.3707 59.8757 42.5207 60.567C41.6707 61.2697 40.6507 61.621 39.4607 61.621C38.5087 61.621 37.6871 61.4397 36.9957 61.077C36.3044 60.7257 35.7831 60.2157 35.4317 59.547L36.7237 58.816C37.1884 59.768 38.1121 60.244 39.4947 60.244C40.3787 60.244 41.0701 60.0117 41.5687 59.547C42.0787 59.0823 42.3337 58.4477 42.3337 57.643V56.436C41.5857 57.5693 40.5204 58.136 39.1377 58.136C37.9251 58.136 36.8994 57.7053 36.0607 56.844C35.2221 55.9827 34.8027 54.9343 34.8027 53.699C34.8027 52.4637 35.2221 51.421 36.0607 50.571C36.8994 49.7097 37.9251 49.279 39.1377 49.279C40.5317 49.279 41.5971 49.84 42.3337 50.962V49.5ZM37.1487 55.858C37.7267 56.436 38.4464 56.725 39.3077 56.725C40.1691 56.725 40.8887 56.436 41.4667 55.858C42.0447 55.28 42.3337 54.5603 42.3337 53.699C42.3337 52.849 42.0447 52.135 41.4667 51.557C40.8887 50.979 40.1691 50.69 39.3077 50.69C38.4464 50.69 37.7267 50.979 37.1487 51.557C36.5707 52.135 36.2817 52.849 36.2817 53.699C36.2817 54.5603 36.5707 55.28 37.1487 55.858ZM46.0366 58V45.59H47.5156V58H46.0366ZM50.8089 54.43C50.9562 55.1893 51.3019 55.7787 51.8459 56.198C52.4012 56.6173 53.0812 56.827 53.8859 56.827C55.0079 56.827 55.8239 56.4133 56.3339 55.586L57.5919 56.3C56.7646 57.5807 55.5179 58.221 53.8519 58.221C52.5032 58.221 51.4039 57.8017 50.5539 56.963C49.7152 56.113 49.2959 55.042 49.2959 53.75C49.2959 52.4693 49.7096 51.404 50.5369 50.554C51.3642 49.704 52.4352 49.279 53.7499 49.279C54.9966 49.279 56.0109 49.721 56.7929 50.605C57.5862 51.4777 57.9829 52.5317 57.9829 53.767C57.9829 53.9823 57.9659 54.2033 57.9319 54.43H50.8089ZM53.7499 50.673C52.9566 50.673 52.2992 50.8997 51.7779 51.353C51.2566 51.795 50.9336 52.39 50.8089 53.138H56.4869C56.3622 52.3333 56.0449 51.7213 55.5349 51.302C55.0249 50.8827 54.4299 50.673 53.7499 50.673ZM69.679 58.221C67.877 58.221 66.3867 57.626 65.208 56.436C64.0407 55.246 63.457 53.784 63.457 52.05C63.457 50.316 64.0407 48.854 65.208 47.664C66.3867 46.474 67.877 45.879 69.679 45.879C70.767 45.879 71.7644 46.1397 72.671 46.661C73.589 47.1823 74.303 47.885 74.813 48.769L73.436 49.568C73.096 48.9107 72.586 48.3893 71.906 48.004C71.2374 47.6073 70.495 47.409 69.679 47.409C68.3077 47.409 67.1857 47.851 66.313 48.735C65.4517 49.619 65.021 50.724 65.021 52.05C65.021 53.3647 65.4517 54.464 66.313 55.348C67.1857 56.232 68.3077 56.674 69.679 56.674C70.495 56.674 71.2374 56.4813 71.906 56.096C72.586 55.6993 73.096 55.178 73.436 54.532L74.813 55.314C74.3144 56.198 73.606 56.9063 72.688 57.439C71.77 57.9603 70.767 58.221 69.679 58.221ZM76.5004 58V45.59H77.9794V58H76.5004ZM87.4098 56.929C86.5371 57.7903 85.4774 58.221 84.2308 58.221C82.9841 58.221 81.9244 57.7903 81.0518 56.929C80.1904 56.0677 79.7598 55.008 79.7598 53.75C79.7598 52.492 80.1904 51.4323 81.0518 50.571C81.9244 49.7097 82.9841 49.279 84.2308 49.279C85.4774 49.279 86.5371 49.7097 87.4098 50.571C88.2824 51.4323 88.7188 52.492 88.7188 53.75C88.7188 55.008 88.2824 56.0677 87.4098 56.929ZM84.2308 56.776C85.0808 56.776 85.7948 56.487 86.3728 55.909C86.9508 55.331 87.2398 54.6113 87.2398 53.75C87.2398 52.8887 86.9508 52.169 86.3728 51.591C85.7948 51.013 85.0808 50.724 84.2308 50.724C83.3921 50.724 82.6838 51.013 82.1058 51.591C81.5278 52.169 81.2388 52.8887 81.2388 53.75C81.2388 54.6113 81.5278 55.331 82.1058 55.909C82.6838 56.487 83.3921 56.776 84.2308 56.776ZM96.3273 49.5H97.8063V58H96.3273V56.776C95.7267 57.7393 94.8087 58.221 93.5733 58.221C92.576 58.221 91.777 57.9093 91.1763 57.286C90.5757 56.6513 90.2753 55.7957 90.2753 54.719V49.5H91.7543V54.634C91.7543 55.3253 91.9413 55.8637 92.3153 56.249C92.6893 56.623 93.205 56.81 93.8623 56.81C94.599 56.81 95.194 56.5833 95.6473 56.13C96.1007 55.6653 96.3273 54.957 96.3273 54.005V49.5ZM107.096 46.1H108.575V58H107.096V56.538C106.359 57.66 105.288 58.221 103.883 58.221C102.693 58.221 101.679 57.7903 100.84 56.929C100.001 56.0563 99.582 54.9967 99.582 53.75C99.582 52.5033 100.001 51.4493 100.84 50.588C101.679 49.7153 102.693 49.279 103.883 49.279C105.288 49.279 106.359 49.84 107.096 50.962V46.1ZM104.07 56.793C104.931 56.793 105.651 56.504 106.229 55.926C106.807 55.3367 107.096 54.6113 107.096 53.75C107.096 52.8887 106.807 52.169 106.229 51.591C105.651 51.0017 104.931 50.707 104.07 50.707C103.22 50.707 102.506 51.0017 101.928 51.591C101.35 52.169 101.061 52.8887 101.061 53.75C101.061 54.6113 101.35 55.3367 101.928 55.926C102.506 56.504 103.22 56.793 104.07 56.793Z" fill="#212121"/>
<path d="M61.2766 8.28269L64.319 5.03877L64.5218 3.67287C58.9777 -1.70228 50.1646 -1.09279 45.1669 4.9446C43.7786 6.62145 42.7487 8.712 42.1995 10.8708L43.2892 10.7071L49.3739 9.63723L49.8436 9.12498C52.5502 5.95555 57.1266 5.52916 60.2518 8.22584L61.2766 8.28269Z" fill="#212121"/>
<path d="M68.653 10.7754C67.9537 8.02957 66.518 5.56108 64.5218 3.67287L60.2518 8.22584C62.0548 9.7967 63.082 12.1631 63.038 14.6452V15.4534C65.1367 15.4534 66.8383 17.2676 66.8383 19.5054C66.8383 21.7433 65.1367 23.512 63.038 23.512H55.4267L54.6794 24.377V29.2371L55.4267 29.9997H63.038C68.4971 30.045 72.9572 25.4087 72.9997 19.5879C73.0254 16.0597 71.3939 12.7521 68.653 10.7754Z" fill="#212121"/>
<path d="M47.826 29.9998L55.4267 29.9997V23.512L47.826 23.5119C47.2845 23.5118 46.76 23.3877 46.2676 23.1478L45.1893 23.5005L42.1255 26.7445L41.8587 27.8486C43.5768 29.2318 45.6731 30.0097 47.826 29.9998Z" fill="#212121"/>
<path d="M47.826 8.95425C42.3667 8.98894 37.9676 13.7359 38.0002 19.5567C38.0184 22.8072 39.4422 25.867 41.8587 27.8486L46.2676 23.1478C44.3547 22.2263 43.5048 19.8261 44.369 17.7867C45.233 15.7473 47.4842 14.8411 49.3968 15.7624C50.2397 16.1683 50.9146 16.8882 51.2954 17.7867L55.7043 13.0859C53.8284 10.4712 50.9135 8.94244 47.826 8.95425Z" fill="#212121"/>
</svg>
