<svg width="72" height="62" viewBox="0 0 72 62" fill="none" xmlns="http://www.w3.org/2000/svg">
<path d="M12.9487 52.101V52.815C12.9487 54.3677 12.4161 55.6597 11.3507 56.691C10.2854 57.711 8.8744 58.221 7.11773 58.221C5.3044 58.221 3.80273 57.626 2.61273 56.436C1.43406 55.2347 0.844731 53.7727 0.844731 52.05C0.844731 50.3273 1.43406 48.871 2.61273 47.681C3.80273 46.4797 5.29306 45.879 7.08373 45.879C8.18306 45.879 9.19173 46.1453 10.1097 46.678C11.0277 47.1993 11.7361 47.8907 12.2347 48.752L10.8747 49.551C10.5347 48.905 10.0191 48.3893 9.32773 48.004C8.64773 47.6073 7.89406 47.409 7.06673 47.409C5.70673 47.409 4.5904 47.8567 3.71773 48.752C2.84506 49.636 2.40873 50.7353 2.40873 52.05C2.40873 53.3647 2.84506 54.464 3.71773 55.348C4.60173 56.232 5.74073 56.674 7.13473 56.674C8.32473 56.674 9.28806 56.385 10.0247 55.807C10.7614 55.2177 11.2091 54.4583 11.3677 53.529H6.99873V52.101H12.9487ZM16.1972 50.928C16.6845 49.874 17.5685 49.347 18.8492 49.347V50.894C18.1239 50.86 17.5005 51.0527 16.9792 51.472C16.4579 51.8913 16.1972 52.5657 16.1972 53.495V58H14.7182V49.5H16.1972V50.928ZM26.8695 49.5H28.3485V58H26.8695V56.538C26.1328 57.66 25.0618 58.221 23.6565 58.221C22.4665 58.221 21.4521 57.7903 20.6135 56.929C19.7748 56.0563 19.3555 54.9967 19.3555 53.75C19.3555 52.5033 19.7748 51.4493 20.6135 50.588C21.4521 49.7153 22.4665 49.279 23.6565 49.279C25.0618 49.279 26.1328 49.84 26.8695 50.962V49.5ZM23.8435 56.793C24.7048 56.793 25.4245 56.504 26.0025 55.926C26.5805 55.3367 26.8695 54.6113 26.8695 53.75C26.8695 52.8887 26.5805 52.169 26.0025 51.591C25.4245 51.0017 24.7048 50.707 23.8435 50.707C22.9935 50.707 22.2795 51.0017 21.7015 51.591C21.1235 52.169 20.8345 52.8887 20.8345 53.75C20.8345 54.6113 21.1235 55.3367 21.7015 55.926C22.2795 56.504 22.9935 56.793 23.8435 56.793ZM35.2813 49.279C36.4713 49.279 37.4856 49.7153 38.3243 50.588C39.163 51.4493 39.5823 52.5033 39.5823 53.75C39.5823 54.9967 39.163 56.0563 38.3243 56.929C37.4856 57.7903 36.4713 58.221 35.2813 58.221C33.876 58.221 32.805 57.66 32.0683 56.538V61.4H30.5893V49.5H32.0683V50.962C32.805 49.84 33.876 49.279 35.2813 49.279ZM35.0943 56.793C35.9443 56.793 36.6583 56.504 37.2363 55.926C37.8143 55.3367 38.1033 54.6113 38.1033 53.75C38.1033 52.8887 37.8143 52.169 37.2363 51.591C36.6583 51.0017 35.9443 50.707 35.0943 50.707C34.233 50.707 33.5133 51.0017 32.9353 51.591C32.3573 52.169 32.0683 52.8887 32.0683 53.75C32.0683 54.6113 32.3573 55.3367 32.9353 55.926C33.5133 56.504 34.233 56.793 35.0943 56.793ZM45.5801 49.279C46.5774 49.279 47.3764 49.5963 47.9771 50.231C48.5778 50.8543 48.8781 51.7043 48.8781 52.781V58H47.3991V52.866C47.3991 52.1747 47.2121 51.642 46.8381 51.268C46.4641 50.8827 45.9484 50.69 45.2911 50.69C44.5544 50.69 43.9594 50.9223 43.5061 51.387C43.0528 51.8403 42.8261 52.543 42.8261 53.495V58H41.3471V46.1H42.8261V50.724C43.4268 49.7607 44.3448 49.279 45.5801 49.279ZM62.7918 52.05C62.7918 53.682 62.2308 55.093 61.1088 56.283L62.4178 57.592L61.3298 58.578L59.9868 57.218C58.9555 57.8867 57.8335 58.221 56.6208 58.221C54.9208 58.221 53.4701 57.6203 52.2688 56.419C51.0675 55.2177 50.4668 53.7613 50.4668 52.05C50.4668 50.3387 51.0675 48.8823 52.2688 47.681C53.4701 46.4797 54.9208 45.879 56.6208 45.879C58.3208 45.879 59.7715 46.4797 60.9728 47.681C62.1855 48.8823 62.7918 50.3387 62.7918 52.05ZM56.6208 56.674C57.4368 56.674 58.1848 56.4813 58.8648 56.096L56.4848 53.699L57.5728 52.73L60.0208 55.178C60.8141 54.3167 61.2108 53.274 61.2108 52.05C61.2108 50.7467 60.7631 49.6473 59.8678 48.752C58.9838 47.8567 57.9015 47.409 56.6208 47.409C55.3401 47.409 54.2521 47.8567 53.3568 48.752C52.4728 49.6473 52.0308 50.7467 52.0308 52.05C52.0308 53.342 52.4728 54.4357 53.3568 55.331C54.2521 56.2263 55.3401 56.674 56.6208 56.674ZM66.3565 56.504H71.4905V58H64.7755V46.1H66.3565V56.504Z" fill="#212121"/>
<path d="M24.3293 22.2288L25.4306 22.8647L37.6995 1.61493L36.5982 0.979076L24.3293 22.2288Z" fill="#212121"/>
<path d="M48.6149 20.5312H24.0771V21.8029H48.6149V20.5312Z" fill="#212121"/>
<path d="M24.5627 21.2456L36.8362 28.3319L37.472 27.2306L25.1985 20.1443L24.5627 21.2456Z" fill="#212121"/>
<path d="M35.2246 2.77682L47.4981 9.86313L48.134 8.76183L35.8605 1.67552L35.2246 2.77682Z" fill="#212121"/>
<path d="M24.5661 8.75699L25.2019 9.85829L37.4754 2.77197L36.8396 1.67068L24.5661 8.75699Z" fill="#212121"/>
<path d="M35.0029 1.61516L47.2718 22.8649L48.3731 22.229L36.1042 0.979306L35.0029 1.61516Z" fill="#212121"/>
<path d="M26.3218 7.91369H25.0501V22.0863H26.3218V7.91369Z" fill="#212121"/>
<path d="M47.6496 7.91369H46.3779V22.0863H47.6496V7.91369Z" fill="#212121"/>
<path d="M36.0642 26.8316L36.6197 27.7936L47.2943 21.6304L46.7389 20.6684L36.0642 26.8316Z" fill="#212121"/>
<path d="M49.335 22.5C48.5996 23.7794 46.9602 24.216 45.6808 23.4806C44.4014 22.7451 43.9648 21.1057 44.7002 19.8264C45.4357 18.547 47.0751 18.1103 48.3545 18.8458C49.6415 19.5889 50.0781 21.2206 49.335 22.5Z" fill="#212121"/>
<path d="M27.9918 10.1736C27.2564 11.453 25.617 11.8897 24.3376 11.1542C23.0582 10.4188 22.6216 8.77937 23.357 7.5C24.0924 6.22063 25.7319 5.78396 27.0112 6.51941C28.2906 7.26251 28.7273 8.89428 27.9918 10.1736Z" fill="#212121"/>
<path d="M23.3647 22.5C22.6292 21.2206 23.0659 19.5889 24.3453 18.8458C25.6246 18.1103 27.2564 18.547 27.9995 19.8264C28.7349 21.1057 28.2983 22.7375 27.0189 23.4806C25.7319 24.216 24.1001 23.7794 23.3647 22.5Z" fill="#212121"/>
<path d="M44.7079 10.1736C43.9724 8.89428 44.4091 7.26251 45.6885 6.51941C46.9678 5.78396 48.5996 6.22063 49.3427 7.5C50.0781 8.77937 49.6415 10.4111 48.3621 11.1542C47.0827 11.8897 45.4433 11.453 44.7079 10.1736Z" fill="#212121"/>
<path d="M36.3499 30C34.8713 30 33.6762 28.8049 33.6762 27.3264C33.6762 25.8478 34.8713 24.6527 36.3499 24.6527C37.8284 24.6527 39.0235 25.8478 39.0235 27.3264C39.0235 28.7972 37.8284 30 36.3499 30Z" fill="#212121"/>
<path d="M36.3499 5.34729C34.8713 5.34729 33.6762 4.1522 33.6762 2.67365C33.6762 1.1951 34.8713 0 36.3499 0C37.8284 0 39.0235 1.1951 39.0235 2.67365C39.0235 4.1522 37.8284 5.34729 36.3499 5.34729Z" fill="#212121"/>
</svg>
