<svg width="40" height="64" viewBox="0 0 40 64" fill="none" xmlns="http://www.w3.org/2000/svg">
<path d="M4.67955 61.221C3.81821 61.221 3.05888 61.0397 2.40155 60.677C1.74421 60.3143 1.26255 59.7873 0.956547 59.096L2.29955 58.314C2.65088 59.2207 3.44421 59.674 4.67955 59.674C5.43888 59.674 6.03388 59.4927 6.46455 59.13C6.89521 58.7673 7.11055 58.229 7.11055 57.515V49.1H8.67455V57.515C8.67455 58.705 8.29488 59.623 7.53555 60.269C6.78755 60.9037 5.83555 61.221 4.67955 61.221ZM17.867 52.5H19.346V61H17.867V59.538C17.1304 60.66 16.0594 61.221 14.654 61.221C13.464 61.221 12.4497 60.7903 11.611 59.929C10.7724 59.0563 10.353 57.9967 10.353 56.75C10.353 55.5033 10.7724 54.4493 11.611 53.588C12.4497 52.7153 13.464 52.279 14.654 52.279C16.0594 52.279 17.1304 52.84 17.867 53.962V52.5ZM14.841 59.793C15.7024 59.793 16.422 59.504 17 58.926C17.578 58.3367 17.867 57.6113 17.867 56.75C17.867 55.8887 17.578 55.169 17 54.591C16.422 54.0017 15.7024 53.707 14.841 53.707C13.991 53.707 13.277 54.0017 12.699 54.591C12.121 55.169 11.832 55.8887 11.832 56.75C11.832 57.6113 12.121 58.3367 12.699 58.926C13.277 59.504 13.991 59.793 14.841 59.793ZM27.5368 52.5H29.1348L25.7348 61H24.0008L20.6008 52.5H22.1988L24.8678 59.419L27.5368 52.5ZM37.0916 52.5H38.5706V61H37.0916V59.538C36.355 60.66 35.284 61.221 33.8786 61.221C32.6886 61.221 31.6743 60.7903 30.8356 59.929C29.997 59.0563 29.5776 57.9967 29.5776 56.75C29.5776 55.5033 29.997 54.4493 30.8356 53.588C31.6743 52.7153 32.6886 52.279 33.8786 52.279C35.284 52.279 36.355 52.84 37.0916 53.962V52.5ZM34.0656 59.793C34.927 59.793 35.6466 59.504 36.2246 58.926C36.8026 58.3367 37.0916 57.6113 37.0916 56.75C37.0916 55.8887 36.8026 55.169 36.2246 54.591C35.6466 54.0017 34.927 53.707 34.0656 53.707C33.2156 53.707 32.5016 54.0017 31.9236 54.591C31.3456 55.169 31.0566 55.8887 31.0566 56.75C31.0566 57.6113 31.3456 58.3367 31.9236 58.926C32.5016 59.504 33.2156 59.793 34.0656 59.793Z" fill="#212121"/>
<path d="M27.4734 23.6573H27.3602V23.5941H27.6649V23.6573H27.5525V23.9728H27.4734V23.6573ZM28.0811 23.6738H28.0794L27.9672 23.9728H27.9159L27.8045 23.6738H27.8031V23.9728H27.7285V23.5941H27.8382L27.9416 23.8623L28.0445 23.5941H28.1538V23.9728H28.0811L28.0811 23.6738Z" fill="#212121"/>
<path d="M17.3408 15.9136C17.3408 15.9136 16.5533 16.3709 17.9013 16.5256C19.5343 16.7116 20.3689 16.685 22.1684 16.3449C22.1684 16.3449 22.6416 16.6411 23.3023 16.8976C19.2681 18.6241 14.1722 16.7977 17.3408 15.9136Z" fill="#212121"/>
<path d="M16.8479 13.6607C16.8479 13.6607 15.9646 14.3135 17.3135 14.4529C19.058 14.6326 20.4356 14.6473 22.8194 14.1889C22.8194 14.1889 23.1491 14.5227 23.6675 14.7052C18.79 16.1294 13.3572 14.8175 16.8479 13.6607Z" fill="#212121"/>
<path d="M21.0036 9.83905C21.9976 10.9818 20.7425 12.0101 20.7425 12.0101C20.7425 12.0101 23.2664 10.7091 22.1073 9.07988C21.0247 7.56054 20.1945 6.80564 24.6889 4.20284C24.6889 4.20284 17.6341 5.96222 21.0036 9.83905Z" fill="#212121"/>
<path d="M26.3392 17.5799C26.3392 17.5799 26.9219 18.0594 25.6973 18.4304C23.3688 19.1347 16.0055 19.3474 13.96 18.4584C13.2248 18.139 14.6036 17.6958 15.0374 17.6027C15.4897 17.5048 15.7482 17.523 15.7482 17.523C14.9305 16.9478 10.4628 18.6525 13.4789 19.1407C21.7041 20.4726 28.4727 18.5409 26.3392 17.5799Z" fill="#212121"/>
<path d="M17.7195 11.3264C17.7195 11.3264 13.9741 12.2147 16.3932 12.5373C17.4146 12.6738 19.4507 12.643 21.3473 12.4843C22.8974 12.3537 24.4538 12.0761 24.4538 12.0761C24.4538 12.0761 23.9072 12.3098 23.5118 12.5794C19.7084 13.5783 12.3609 13.1136 14.4762 12.0919C16.265 11.2285 17.7195 11.3264 17.7195 11.3264Z" fill="#212121"/>
<path d="M24.4383 15.0765C28.3047 13.0703 26.517 11.1425 25.2693 11.4022C24.9634 11.4658 24.8271 11.5208 24.8271 11.5208C24.8271 11.5208 24.9406 11.3432 25.1575 11.2664C27.6259 10.3998 29.5243 13.8221 24.3606 15.1776C24.3606 15.1776 24.4204 15.1242 24.4383 15.0765Z" fill="#212121"/>
<path d="M22.1073 0C22.1073 0 24.2485 2.1388 20.0764 5.42767C16.7308 8.06591 19.3135 9.57017 20.075 11.2888C18.1222 9.52946 16.689 7.98067 17.6505 6.5392C19.0617 4.42325 22.9712 3.39736 22.1073 0Z" fill="#212121"/>
<path d="M18.0994 20.5126C21.8106 20.7499 27.5096 20.381 27.6446 18.6276C27.6446 18.6276 27.3851 19.2923 24.5775 19.8202C21.4099 20.4154 17.5031 20.3459 15.186 19.9644C15.186 19.9644 15.6603 20.3565 18.0994 20.5126Z" fill="#212121"/>
<path d="M17.4912 27.2126C17.1411 27.5158 16.7714 27.6861 16.4395 27.6861C15.9659 27.6861 15.71 27.4025 15.71 26.9476C15.71 26.4556 15.9842 26.0959 17.0841 26.0959H17.4912L17.4912 27.2126ZM18.4573 28.301V24.9321C18.4573 24.0714 17.9657 23.5036 16.7805 23.5036C16.0886 23.5036 15.4825 23.6742 14.9898 23.8917L15.132 24.4881C15.5199 24.3459 16.022 24.2136 16.5148 24.2136C17.1975 24.2136 17.4912 24.4881 17.4912 25.0556V25.4814H17.1505C15.4916 25.4814 14.7433 26.1243 14.7433 27.0894C14.7433 27.9223 15.2365 28.3957 16.1649 28.3957C16.7618 28.3957 17.2073 28.1497 17.6238 27.7897L17.6993 28.301L18.4573 28.301Z" fill="#212121"/>
<path d="M21.6813 28.301H20.4764L19.0264 23.5889H20.0785L20.9783 26.484L21.1783 27.3547C21.6335 26.0958 21.9554 24.8186 22.1165 23.5889H23.14C22.8657 25.1405 22.3723 26.8437 21.6813 28.301Z" fill="#212121"/>
<path d="M26.3033 27.2126C25.9525 27.5158 25.5821 27.6861 25.2503 27.6861C24.7775 27.6861 24.5209 27.4025 24.5209 26.9476C24.5209 26.4556 24.7957 26.0959 25.8956 26.0959H26.3033V27.2126ZM27.2692 28.301V24.9321C27.2692 24.0714 26.7764 23.5036 25.5926 23.5036C24.9002 23.5036 24.2938 23.6742 23.8014 23.8917L23.9434 24.4881C24.3315 24.3459 24.8345 24.2136 25.3269 24.2136C26.0091 24.2136 26.3033 24.4881 26.3033 25.0556V25.4814H25.962C24.3026 25.4814 23.5547 26.1243 23.5547 27.0894C23.5547 27.9223 24.0474 28.3957 24.9757 28.3957C25.5729 28.3957 26.0182 28.1497 26.4354 27.7897L26.5113 28.301L27.2692 28.301Z" fill="#212121"/>
<path d="M13.6841 29.1012C13.4087 29.5027 12.9639 29.8203 12.477 30L12 29.4396C12.3706 29.2496 12.6885 28.9429 12.8362 28.6573C12.964 28.4032 13.0168 28.0757 13.0168 27.2927V21.9131H14.0432V27.2189C14.0431 28.2659 13.9593 28.6888 13.6841 29.1012Z" fill="#212121"/>
</svg>
