<svg width="126" height="63" viewBox="0 0 126 63" fill="none" xmlns="http://www.w3.org/2000/svg">
<path d="M40.1881 48.953C39.9048 48.953 39.6668 48.8567 39.4741 48.664C39.2814 48.4713 39.1851 48.239 39.1851 47.967C39.1851 47.695 39.2814 47.4627 39.4741 47.27C39.6668 47.066 39.9048 46.964 40.1881 46.964C40.4601 46.964 40.6924 47.066 40.8851 47.27C41.0778 47.4627 41.1741 47.695 41.1741 47.967C41.1741 48.239 41.0778 48.4713 40.8851 48.664C40.6924 48.8567 40.4601 48.953 40.1881 48.953ZM39.4401 59.51V50.5H40.9191V59.51C40.9191 60.6093 40.6414 61.4197 40.0861 61.941C39.5308 62.4737 38.7148 62.7003 37.6381 62.621V61.193C38.2614 61.2497 38.7148 61.1477 38.9981 60.887C39.2928 60.6263 39.4401 60.1673 39.4401 59.51ZM55.0157 53.05C55.0157 54.682 54.4547 56.093 53.3327 57.283L54.6417 58.592L53.5537 59.578L52.2107 58.218C51.1793 58.8867 50.0573 59.221 48.8447 59.221C47.1447 59.221 45.694 58.6203 44.4927 57.419C43.2913 56.2177 42.6907 54.7613 42.6907 53.05C42.6907 51.3387 43.2913 49.8823 44.4927 48.681C45.694 47.4797 47.1447 46.879 48.8447 46.879C50.5447 46.879 51.9953 47.4797 53.1967 48.681C54.4093 49.8823 55.0157 51.3387 55.0157 53.05ZM48.8447 57.674C49.6607 57.674 50.4087 57.4813 51.0887 57.096L48.7087 54.699L49.7967 53.73L52.2447 56.178C53.038 55.3167 53.4347 54.274 53.4347 53.05C53.4347 51.7467 52.987 50.6473 52.0917 49.752C51.2077 48.8567 50.1253 48.409 48.8447 48.409C47.564 48.409 46.476 48.8567 45.5807 49.752C44.6967 50.6473 44.2547 51.7467 44.2547 53.05C44.2547 54.342 44.6967 55.4357 45.5807 56.331C46.476 57.2263 47.564 57.674 48.8447 57.674ZM62.7944 50.5H64.2734V59H62.7944V57.776C62.1937 58.7393 61.2757 59.221 60.0404 59.221C59.043 59.221 58.244 58.9093 57.6434 58.286C57.0427 57.6513 56.7424 56.7957 56.7424 55.719V50.5H58.2214V55.634C58.2214 56.3253 58.4084 56.8637 58.7824 57.249C59.1564 57.623 59.672 57.81 60.3294 57.81C61.066 57.81 61.661 57.5833 62.1144 57.13C62.5677 56.6653 62.7944 55.957 62.7944 55.005V50.5ZM67.5621 55.43C67.7094 56.1893 68.0551 56.7787 68.5991 57.198C69.1544 57.6173 69.8344 57.827 70.6391 57.827C71.7611 57.827 72.5771 57.4133 73.0871 56.586L74.3451 57.3C73.5177 58.5807 72.2711 59.221 70.6051 59.221C69.2564 59.221 68.1571 58.8017 67.3071 57.963C66.4684 57.113 66.0491 56.042 66.0491 54.75C66.0491 53.4693 66.4627 52.404 67.2901 51.554C68.1174 50.704 69.1884 50.279 70.5031 50.279C71.7497 50.279 72.7641 50.721 73.5461 51.605C74.3394 52.4777 74.7361 53.5317 74.7361 54.767C74.7361 54.9823 74.7191 55.2033 74.6851 55.43H67.5621ZM70.5031 51.673C69.7097 51.673 69.0524 51.8997 68.5311 52.353C68.0097 52.795 67.6867 53.39 67.5621 54.138H73.2401C73.1154 53.3333 72.7981 52.7213 72.2881 52.302C71.7781 51.8827 71.1831 51.673 70.5031 51.673ZM77.9152 51.928C78.4025 50.874 79.2865 50.347 80.5672 50.347V51.894C79.8419 51.86 79.2185 52.0527 78.6972 52.472C78.1759 52.8913 77.9152 53.5657 77.9152 54.495V59H76.4362V50.5H77.9152V51.928ZM88.13 50.5H89.711L86.243 59.527C85.8803 60.4903 85.3703 61.2213 84.713 61.72C84.067 62.23 83.319 62.4567 82.469 62.4V61.023C83.5116 61.1023 84.2766 60.5243 84.764 59.289L84.917 58.966L81.211 50.5H82.792L85.682 57.164L88.13 50.5Z" fill="#212121"/>
<path d="M54.3371 10.8002L54.3373 10.7991L53.5371 13.578L54.3371 10.8002Z" fill="#212121"/>
<path d="M77.8479 4.4377H74.1818C73.9784 4.4377 73.7765 4.59761 73.733 4.79235L71.13 16.5921C71.0869 16.7868 70.8852 16.9462 70.6818 16.9462H68.087C65.5198 16.9462 65.8167 15.2067 66.3425 12.8229C66.3477 12.7989 66.353 12.7755 66.3582 12.751L66.4159 12.4506C66.4194 12.4311 66.4235 12.4117 66.4267 12.394L66.6695 11.1268C66.7076 10.9292 66.7656 10.6402 66.8035 10.4586L67.9873 4.79358C68.0281 4.59827 67.8946 4.43779 67.6912 4.43779H63.9282C63.7248 4.43779 63.5234 4.59827 63.4818 4.79302L61.8638 12.3149L61.8626 12.3206L61.7874 12.6701C60.8554 16.839 61.1025 20.8144 66.1675 20.9389C66.2503 20.9412 66.3144 20.9418 66.3144 20.9418H74.2648C74.4682 20.9418 74.6696 20.7819 74.7121 20.5866L78.1415 4.79299C78.1838 4.59767 78.0513 4.4377 77.8479 4.4377Z" fill="#212121"/>
<path d="M92.4729 16.9873C92.6766 16.9873 92.8098 17.1472 92.769 17.3425L92.4128 19.0472" fill="#212121"/>
<path d="M91.611 21.1118L91.6127 21.1114C90.5339 21.1199 87.2918 21.1439 84.855 21.1439C87.8206 21.1439 91.611 21.1118 91.611 21.1118Z" fill="#212121"/>
<path d="M82.668 14.7916C82.665 14.6049 82.8819 14.2834 83.0856 14.2834L82.6278 14.276C82.4214 16.309 82.668 14.7916 82.668 14.7916Z" fill="#212121"/>
<path d="M92.4729 16.9873C92.6766 16.9873 92.8098 17.1472 92.769 17.3425L92.4128 19.0472L92.3548 19.3254" fill="#212121"/>
<path d="M91.6127 21.1114C90.8221 21.1177 88.8705 21.1317 86.9234 21.1391C88.8695 21.1323 90.8218 21.1177 91.6127 21.1114Z" fill="#212121"/>
<path d="M92.0575 20.753L92.3548 19.3254L92.0572 20.7548L92.0575 20.753Z" fill="#212121"/>
<path d="M31.767 14.8344L32.3364 12.3609L31.6854 15.1883L31.0606 18.0683L31.6081 15.5436C31.6504 15.3483 31.7221 15.0291 31.767 14.8344Z" fill="#212121"/>
<path d="M38.5829 4.39604H34.5569C34.3532 4.39604 34.15 4.55538 34.1046 4.74954L33.341 8.05216C33.2962 8.24633 33.4258 8.40566 33.6296 8.40566H37.6869C37.8903 8.40566 38.0925 8.24633 38.1363 8.05158L38.8741 4.75069C38.9176 4.55594 38.7866 4.39604 38.5829 4.39604Z" fill="#212121"/>
<path d="M26.011 27.6234C26.011 27.6234 28.0405 27.6491 29.3307 27.6491C28.3506 27.6491 26.732 27.6314 26.0094 27.6228L26.011 27.6234Z" fill="#212121"/>
<path d="M37.4155 9.5335H33.3577C33.1542 9.5335 32.9506 9.69271 32.9057 9.88746L32.3364 12.3609L31.767 14.8344C31.7221 15.0291 31.6504 15.3483 31.6081 15.5436L31.0606 18.0683L30.5128 20.5931C30.4702 20.7879 30.3828 21.1025 30.3175 21.2916C30.3175 21.2916 29.5595 23.5017 28.2851 23.4765C28.2309 23.4754 28.1781 23.4749 28.126 23.4736C27.5084 23.4622 27.0232 23.4536 27.0232 23.4536C26.8201 23.4507 26.6149 23.6061 26.5674 23.7997L25.7263 27.2656C25.6791 27.4592 25.8071 27.6194 26.0094 27.6228C26.732 27.6314 28.3506 27.6491 29.3307 27.6491C32.514 27.6491 34.1917 25.9207 35.2674 20.9478L37.7067 9.88818C37.7496 9.69344 37.6189 9.5335 37.4155 9.5335Z" fill="#212121"/>
<path d="M95.0584 20.9415C94.855 20.9415 94.7229 20.7816 94.7658 20.5863L97.8182 6.5769" fill="#212121"/>
<path d="M94.8101 20.764C94.7853 20.6664 94.7999 20.4271 94.843 20.2318L96.2917 13.582L94.7658 20.5863C94.7229 20.7816 94.855 20.9415 95.0584 20.9415L95.4288 20.9416C95.2251 20.9416 94.8346 20.8617 94.8101 20.764Z" fill="#212121"/>
<path d="M99.0596 20.8616C98.9489 20.9056 98.6912 20.9415 98.4875 20.9415H98.8582C99.0616 20.9415 99.2615 20.7816 99.3018 20.5857L99.3752 20.2305C99.3347 20.4258 99.1706 20.8176 99.0596 20.8616Z" fill="#212121"/>
<path d="M99.919 17.5961L100.464 14.957L100.463 14.9622L99.919 17.5961Z" fill="#212121"/>
<path d="M111.963 7.51537L112.131 8.19612C112.178 8.39086 112.049 8.54906 111.846 8.54962" fill="#212121"/>
<path d="M100.464 14.957C100.505 14.7617 100.571 14.4455 100.613 14.2519L101.195 11.5804L100.535 14.6064L100.464 14.957Z" fill="#212121"/>
<path d="M97.8683 6.34736C97.8278 6.53582 97.7759 6.77396 97.7416 6.93159L96.2929 13.5819L97.8182 6.5769L97.8683 6.34736Z" fill="#212121"/>
<path d="M112.13 8.19594L111.962 7.51519L111.796 6.81803L111.712 6.46495C111.382 5.21026 110.415 4.48612 108.314 4.48612L102.031 4.47929H98.6416C98.4382 4.47929 98.2368 4.63862 98.1949 4.83393L97.8683 6.34736L97.8182 6.5769L96.2929 13.5819L94.843 20.2318C94.7999 20.4271 94.7853 20.6664 94.8101 20.764C94.8346 20.8617 95.2251 20.9416 95.4288 20.9416L98.4875 20.9415C98.6912 20.9415 98.9489 20.9056 99.0596 20.8616C99.1706 20.8176 99.3347 20.4258 99.3752 20.2305L99.919 17.5961L100.463 14.9622L100.464 14.957L100.535 14.6064L101.195 11.5804L101.778 8.90743C101.821 8.71326 102.021 8.5545 102.224 8.55394L111.846 8.54962C112.049 8.54906 112.178 8.39086 112.131 8.19612L112.13 8.19594Z" fill="#212121"/>
<path d="M124.516 2.04075C124.312 2.04216 123.979 2.0434 123.776 2.0434H120.696C120.492 2.0434 120.232 2.17817 120.117 2.34293L113.307 12.1177C113.192 12.2827 113.061 12.2582 113.016 12.064L112.515 9.91042C112.47 9.71568 112.266 9.55692 112.062 9.55692H107.685C107.481 9.55692 107.36 9.7134 107.416 9.90529L109.377 16.6384C109.433 16.8303 109.437 17.1455 109.387 17.3386L108.532 20.5973C108.481 20.7909 108.607 20.9491 108.81 20.9491H113.137C113.34 20.9491 113.548 20.7909 113.599 20.5973L114.454 17.3386C114.505 17.1455 114.646 16.8566 114.769 16.6972L125.824 2.32085C125.947 2.16152 125.88 2.03187 125.677 2.03332L124.516 2.04075Z" fill="#212121"/>
<path d="M89.737 10.4735L89.7367 10.4695C89.7111 10.6859 89.5074 10.8447 89.3039 10.8447H83.7538C83.562 10.8447 83.4644 10.7168 83.4927 10.5591C83.4943 10.5546 83.495 10.5506 83.4979 10.5466L83.4944 10.5482C83.4956 10.5419 83.4956 10.5362 83.4974 10.53C83.4974 10.53 83.5079 10.4917 83.5228 10.4374C84.0529 9.05655 85.1326 8.15023 87.1618 8.15023C89.4463 8.15023 89.8921 9.24394 89.737 10.4735ZM88.1087 4.19653C80.9846 4.19653 79.2965 8.43349 78.3494 12.7097C77.4023 17.0683 77.4832 21.1439 84.855 21.1439L85.1174 21.1437C85.1407 21.1432 85.1647 21.1432 85.188 21.1432H85.395L85.6638 21.1432C85.6926 21.1427 85.7214 21.1427 85.7507 21.1427C85.8242 21.1427 85.8981 21.1419 85.9724 21.1419L86.0241 21.1423C86.3158 21.1418 86.6119 21.1404 86.9085 21.1393L86.9234 21.1391C88.8704 21.1317 90.8229 21.1176 91.6139 21.1114C91.8161 21.1084 92.014 20.9486 92.0557 20.755L92.3548 19.3254L92.4128 19.0472L92.769 17.3425C92.8098 17.1472 92.6766 16.9873 92.4729 16.9873L85.8446 16.9875C83.2087 16.9875 82.4258 16.3011 82.7142 14.2834H93.3086L93.3077 14.2846C93.3104 14.2846 93.3127 14.2834 93.315 14.2834C93.4834 14.2805 93.639 14.1669 93.7008 14.0156C93.7125 13.9865 93.7224 13.9562 93.7265 13.9248L93.7253 13.926C95.2984 8.11215 94.8477 4.19653 88.1087 4.19653Z" fill="#212121"/>
<path d="M54.4374 10.4512L54.3373 10.7991L54.3371 10.8002L53.5371 13.578L52.7373 16.3553C52.6819 16.5472 52.4703 16.7042 52.2663 16.7042H48.0321C44.8204 16.7042 44.0383 14.2429 44.8204 10.6125C45.6023 6.8993 47.1355 4.59099 50.2965 4.35731C54.6162 4.03806 55.4804 7.01497 54.4374 10.4512ZM57.3411 16.4905C57.3411 16.4905 59.3374 11.7413 59.7908 8.99789C60.4091 5.32561 58.5327 0 51.2846 0C44.0779 0 40.9485 5.08468 39.7544 10.6122C38.5604 16.1796 40.1248 21.0625 47.2906 21.0225L58.2261 20.9831C58.4296 20.9814 58.6386 20.8231 58.6904 20.6307L59.6108 17.1909C59.6621 16.9979 59.5373 16.8396 59.3339 16.8384L57.5711 16.8281C57.398 16.8269 57.298 16.7169 57.319 16.5713C57.3228 16.545 57.3295 16.5185 57.3411 16.4905Z" fill="#212121"/>
<path d="M2.31132 7.13668C0.32145 9.93902 0.569163 13.5849 2.08925 16.5624C2.12539 16.6338 2.16327 16.704 2.20058 16.7743C2.22448 16.8188 2.24691 16.8645 2.27168 16.9085C2.28568 16.9347 2.30141 16.9605 2.31598 16.9856C2.34191 17.033 2.36844 17.0781 2.39525 17.1244C2.44246 17.206 2.49084 17.2871 2.54038 17.3682C2.56777 17.4128 2.59487 17.4573 2.62314 17.5019C2.67793 17.5887 2.73418 17.6743 2.79159 17.76C2.81549 17.7965 2.8388 17.8331 2.86328 17.8685C2.94255 17.9844 3.02356 18.0998 3.10719 18.2134C3.10927 18.2163 3.11155 18.2197 3.11418 18.2225C3.12731 18.2408 3.14187 18.2585 3.15527 18.2768C3.22754 18.3745 3.30215 18.471 3.37763 18.5663C3.40532 18.6012 3.43329 18.636 3.46127 18.6709C3.52859 18.7537 3.59707 18.8359 3.66672 18.9181C3.69265 18.949 3.71889 18.9798 3.74511 19.0101C3.83866 19.118 3.93396 19.2254 4.03129 19.3304C4.03308 19.3321 4.03538 19.3344 4.03711 19.3362C4.04119 19.3407 4.04469 19.3436 4.04818 19.3481C4.14318 19.4498 4.24052 19.5492 4.33903 19.6485C4.36962 19.6794 4.40081 19.7102 4.43228 19.7405C4.50864 19.8159 4.58615 19.8901 4.66455 19.9638C4.69631 19.9935 4.72779 20.0237 4.75956 20.0523C4.86417 20.1488 4.96996 20.2436 5.07779 20.3361C5.07958 20.3378 5.08098 20.3391 5.08274 20.3401C5.1011 20.3561 5.12005 20.371 5.13812 20.3864C5.23312 20.4669 5.32987 20.5469 5.4272 20.6257C5.46684 20.6571 5.50706 20.6879 5.54698 20.7193C5.62654 20.7816 5.70697 20.8433 5.78798 20.9038C5.83083 20.9358 5.87366 20.9678 5.9168 20.9997C6.00626 21.0643 6.09631 21.1277 6.18724 21.1899C6.22046 21.2133 6.25252 21.2362 6.28574 21.2584C6.29505 21.2647 6.30352 21.271 6.31283 21.2773C6.3991 21.3356 6.4874 21.3915 6.57542 21.4475C6.61331 21.472 6.6509 21.4977 6.68908 21.5217C6.8243 21.6057 6.96157 21.6885 7.10028 21.7684C7.13787 21.7896 7.17605 21.8101 7.21393 21.8313C7.31593 21.8889 7.41851 21.9455 7.52254 22.0009C7.57879 22.0306 7.63649 22.0586 7.69332 22.0871C7.76676 22.1248 7.83962 22.1631 7.91422 22.1996C7.93111 22.2076 7.94861 22.2156 7.96522 22.2236C7.99524 22.2379 8.02555 22.2516 8.05556 22.2664C8.17126 22.3207 8.28783 22.3738 8.40558 22.4252C8.43064 22.436 8.45483 22.4469 8.4796 22.4577C8.61453 22.5154 8.75061 22.5708 8.88789 22.6239C8.92082 22.637 8.95404 22.6496 8.98726 22.6622C9.11432 22.7102 9.24314 22.7576 9.37253 22.8021C9.38886 22.8078 9.40459 22.813 9.42091 22.8186C9.56284 22.8672 9.70623 22.9123 9.85047 22.9563C9.88486 22.966 9.91954 22.9768 9.95422 22.9865C10.1011 23.0299 10.2462 23.0819 10.3978 23.1093C20.0212 24.8289 22.8166 17.4429 22.8166 17.4429C20.4689 20.4399 16.3015 21.2303 12.353 20.3503C12.2035 20.3171 12.0584 20.2715 11.9124 20.2292C11.8754 20.2183 11.8389 20.2075 11.8025 20.1966C11.66 20.1538 11.5187 20.1087 11.3782 20.0613C11.359 20.0545 11.3394 20.0476 11.3199 20.0407C11.194 19.9973 11.0696 19.9516 10.9457 19.9048C10.9107 19.8911 10.8758 19.878 10.8408 19.8643C10.705 19.8117 10.5701 19.7569 10.4369 19.6998C10.4095 19.6884 10.3833 19.6764 10.3562 19.665C10.2416 19.6141 10.1283 19.5627 10.0155 19.5096C9.98285 19.4942 9.95021 19.4794 9.91698 19.4634C9.82841 19.421 9.7408 19.3759 9.65342 19.3319C9.59493 19.3017 9.53548 19.2732 9.47747 19.2416C9.37076 19.1857 9.26595 19.1275 9.16162 19.068C9.12629 19.0486 9.09048 19.0299 9.05491 19.0098C8.9162 18.9298 8.77917 18.847 8.64356 18.763C8.60608 18.7396 8.56956 18.7146 8.53255 18.6905C8.43419 18.6283 8.33631 18.5649 8.23986 18.4998C8.20787 18.4786 8.17707 18.4559 8.14556 18.4348C8.05245 18.3703 7.9603 18.305 7.86887 18.2388C7.82732 18.2086 7.7865 18.1782 7.74615 18.148C7.66236 18.0851 7.57904 18.0217 7.49644 17.9567C7.45913 17.9276 7.42183 17.8984 7.38511 17.8693C7.2802 17.7848 7.17645 17.6997 7.07416 17.6123C7.06339 17.6032 7.05172 17.5941 7.04006 17.5843C6.92932 17.489 6.82062 17.3913 6.71309 17.2931C6.6819 17.264 6.65159 17.2354 6.621 17.2063C6.54144 17.132 6.46304 17.0572 6.3861 16.9807C6.35521 16.9504 6.32432 16.9207 6.29401 16.8905C6.1961 16.7923 6.09992 16.6929 6.00579 16.5918C6.00113 16.5867 5.99618 16.5821 5.99152 16.577C5.89185 16.4702 5.79452 16.3611 5.69921 16.2509C5.67328 16.2206 5.64822 16.1915 5.62257 16.1618C5.55146 16.0778 5.48094 15.9927 5.41216 15.9071C5.38637 15.8762 5.36059 15.8446 5.33505 15.8128C5.2522 15.7075 5.17127 15.6025 5.09201 15.4958C2.89986 12.566 2.11234 8.52509 3.86443 5.20649" fill="#212121"/>
<path d="M8.48827 4.77572C7.04921 6.8048 7.1273 9.52099 8.24988 11.667C8.43814 12.0267 8.64971 12.3757 8.88635 12.708C9.102 13.0107 9.34097 13.3711 9.62715 13.6144C9.7309 13.7263 9.83931 13.8354 9.95004 13.9427C9.978 13.9707 10.0066 13.9976 10.0351 14.025C10.1427 14.1272 10.252 14.2277 10.365 14.3254C10.3697 14.3288 10.3738 14.3334 10.3784 14.3368L10.3816 14.3397C10.5066 14.4471 10.6357 14.5505 10.7669 14.6521C10.796 14.6738 10.8249 14.6967 10.8543 14.7189C10.9857 14.8177 11.1198 14.9148 11.2573 15.0073C11.2614 15.0103 11.2649 15.013 11.269 15.0159C11.3296 15.057 11.3914 15.0953 11.4529 15.1347C11.4823 15.1535 11.5103 15.1735 11.54 15.1912C11.6383 15.2529 11.7376 15.3129 11.8388 15.3705C11.853 15.3791 11.867 15.3865 11.881 15.3945C11.9681 15.4436 12.0564 15.4922 12.1451 15.539C12.1759 15.5561 12.2074 15.571 12.2389 15.587C12.3001 15.6184 12.3613 15.6504 12.4237 15.6806C12.433 15.6852 12.4426 15.6892 12.4516 15.6932C12.5784 15.7543 12.7063 15.8131 12.8369 15.8691C12.8648 15.8811 12.8937 15.8919 12.922 15.9034C13.0263 15.9468 13.1318 15.989 13.2379 16.029C13.2828 16.0456 13.3282 16.0616 13.3731 16.0776C13.4693 16.1124 13.5657 16.1444 13.6631 16.1763C13.7071 16.1901 13.7502 16.2043 13.7942 16.2175C13.9326 16.2597 14.0693 16.3128 14.2136 16.3363C21.6438 17.5424 23.3591 11.9372 23.3591 11.9372C21.8128 14.1193 18.8183 15.1604 15.6228 14.3477C15.4809 14.3112 15.341 14.2712 15.202 14.2284C15.1595 14.2158 15.1178 14.2021 15.0755 14.1884C14.9767 14.157 14.8785 14.1239 14.7812 14.089C14.7366 14.073 14.692 14.057 14.6483 14.0405C14.5416 14.0005 14.4361 13.9588 14.3315 13.9154C14.303 13.9034 14.2741 13.8926 14.2461 13.88C14.115 13.824 13.9859 13.7652 13.8585 13.7035C13.793 13.6721 13.7286 13.639 13.6642 13.6064C13.6269 13.5876 13.5893 13.5688 13.552 13.5499C13.4692 13.5059 13.387 13.4602 13.306 13.414C13.2868 13.4031 13.2667 13.3928 13.2471 13.3814C13.1466 13.3238 13.0475 13.2644 12.9493 13.2033C12.919 13.1844 12.8898 13.1639 12.8595 13.1444C12.7948 13.1033 12.7301 13.0616 12.6666 13.0194C12.5296 12.9268 12.3964 12.8298 12.265 12.7315C12.2347 12.7081 12.2044 12.6853 12.1747 12.6619C10.7759 11.5798 9.66723 10.1012 9.1401 8.42443C8.58766 6.68548 8.70679 4.73344 9.66389 3.14934" fill="#212121"/>
<path d="M13.6834 3.01177C12.8351 4.23504 12.7517 5.75422 13.3404 7.10534C13.9611 8.53935 15.2332 9.6644 16.7178 10.1977C16.779 10.22 16.8402 10.24 16.9023 10.2606C16.9294 10.2686 16.9562 10.2777 16.9836 10.2857C17.071 10.3125 17.1578 10.3439 17.2482 10.3605C21.3509 11.1372 22.4636 8.2977 22.7599 7.87978C21.7851 9.25496 20.1469 9.58504 18.137 9.10705C17.9782 9.06916 17.8037 9.01302 17.6507 8.95992C17.4545 8.89138 17.2611 8.81325 17.0732 8.72483C16.7163 8.55688 16.3761 8.3529 16.0607 8.11945C14.2621 6.78238 13.1448 4.2315 14.3184 2.15407" fill="#212121"/>
<path d="M59.8901 26.8375L58.7075 29.4765H57.4019L57.5089 27.0786L56.5477 29.4765H55.2835L55.2503 26.8375L55.3899 26.1859H56.2852L56.1126 28.7924L57.1064 26.1859H58.3546L58.2642 28.8249L59.2498 26.1859H60.0297L59.8901 26.8375Z" fill="#212121"/>
<path d="M61.9504 27.6187C62.0655 27.1036 62.0326 27.0071 61.7616 27.0071H61.3509L61.0881 28.2143L60.6856 29.477H59.9221L60.546 26.6129L60.6366 26.1943H61.3346L61.425 26.3873C61.425 26.3873 61.8274 26.1543 62.2211 26.1543C63.059 26.1543 62.9934 26.7734 62.8125 27.6186L61.9504 27.6187Z" fill="#212121"/>
<path d="M64.4309 25.7754C64.0946 25.7754 63.8809 25.6789 63.9629 25.2768C64.0532 24.8742 64.3161 24.7777 64.6442 24.7777C64.9732 24.7777 65.1947 24.8742 65.1044 25.2768C65.0222 25.6709 64.7596 25.7754 64.4309 25.7754ZM64.0698 29.4767H63.3139L63.4619 28.1895L63.7248 26.9988L63.1993 26.8857L63.3471 26.1861H64.7838L64.0698 29.4767Z" fill="#212121"/>
<path d="M67.3459 26.8843L66.4016 26.9973L66.1303 28.2526C66.0563 28.5987 66.0563 28.6952 66.3687 28.6952H67.0008L66.8694 29.3548C66.8694 29.3548 66.295 29.5238 66.0481 29.5238C65.0791 29.5238 65.0873 29.0007 65.2601 28.22L65.523 26.9893L64.9972 26.8768L65.1532 26.1767H65.7037L66.0158 25.3475H66.763L66.582 26.1767H67.5018L67.3459 26.8843Z" fill="#212121"/>
<path d="M69.3083 26.9264C68.865 26.9264 68.6348 27.152 68.5447 27.554L69.8092 27.4495C69.8667 27.176 69.8092 26.9264 69.3083 26.9264ZM68.4218 28.1491C68.3638 28.5517 68.52 28.6882 69.0454 28.6882H70.3673L70.2362 29.2998C70.2362 29.2998 69.4397 29.5169 68.8484 29.5169C67.3784 29.5169 67.3618 28.7048 67.551 27.8356C67.7398 26.9824 68.0764 26.1383 69.4968 26.1383C70.8686 26.1383 70.9344 26.9504 70.5975 28.1491L68.4218 28.1491Z" fill="#212121"/>
<path d="M73.6103 29.476H72.8552L73.003 28.1888L73.5369 25.7427L73.0108 25.6222L73.167 24.9221H74.6043L73.6103 29.476Z" fill="#212121"/>
<path d="M76.3391 26.9264C75.8952 26.9264 75.6656 27.152 75.5749 27.554L76.8397 27.4495C76.8968 27.176 76.8397 26.9264 76.3391 26.9264ZM75.452 28.1491C75.3946 28.5517 75.5508 28.6882 76.0759 28.6882H77.3981L77.2667 29.2998C77.2667 29.2998 76.4699 29.5169 75.8786 29.5169C74.4086 29.5169 74.3926 28.7048 74.5814 27.8356C74.7706 26.9824 75.1072 26.1383 76.5276 26.1383C77.8991 26.1383 77.9646 26.9504 77.6283 28.1491L75.452 28.1491Z" fill="#212121"/>
<path d="M81.0923 26.9661C81.0923 26.9661 80.1315 26.9741 79.8689 26.9741C79.3102 26.9741 79.2528 27.1426 79.212 27.3196L79.1788 27.4807L80.9527 27.6098C80.9527 27.6098 80.9608 28.1648 80.8868 28.4784C80.7802 29.0015 80.23 29.532 79.2365 29.532C78.7434 29.532 77.9469 29.3476 77.9469 29.3476L78.0865 28.712H79.3102C79.8523 28.712 79.9263 28.5669 79.9595 28.4224L80.0003 28.2134L78.2593 28.0843C78.2593 28.0843 78.1937 27.6577 78.2838 27.2317C78.4155 26.6521 78.957 26.1535 79.9508 26.1535C80.4436 26.1535 81.24 26.3299 81.24 26.3299L81.0923 26.9661Z" fill="#212121"/>
<path d="M84.394 26.9661C84.394 26.9661 83.4335 26.9741 83.1706 26.9741C82.6122 26.9741 82.5548 27.1426 82.5137 27.3196L82.4805 27.4807L84.2547 27.6098C84.2547 27.6098 84.2628 28.1648 84.1888 28.4784C84.0822 29.0015 83.532 29.532 82.5382 29.532C82.0457 29.532 81.2489 29.3476 81.2489 29.3476L81.3885 28.712H82.6122C83.154 28.712 83.228 28.5669 83.2612 28.4224L83.302 28.2134L81.561 28.0843C81.561 28.0843 81.4954 27.6577 81.5855 27.2317C81.7172 26.6521 82.2587 26.1535 83.2527 26.1535C83.7453 26.1535 84.5417 26.3299 84.5417 26.3299L84.394 26.9661Z" fill="#212121"/>
<path d="M85.4278 30.0001H84.7712L84.7957 29.5169C84.5573 29.5015 84.4343 29.3325 84.4917 29.0504C84.5821 28.6483 84.8368 28.5518 85.1733 28.5518C85.5018 28.5518 85.723 28.6483 85.6332 29.0504L85.4278 30.0001Z" fill="#212121"/>
<path d="M89.8205 26.9989C89.328 26.9989 89.1558 27.2884 89.0407 27.8195C88.9256 28.3506 88.9585 28.6642 89.451 28.6642H90.1327L90.5106 26.9989H89.8205ZM90.9457 29.0502L90.8551 29.4768L90.1659 29.4688L90.0671 29.2598C90.0671 29.2598 89.4591 29.5168 89.0491 29.5168C87.9976 29.5168 87.9484 28.6722 88.1372 27.8195C88.3261 26.9503 88.7367 26.1297 89.7797 26.1297C90.1577 26.1297 90.6665 26.3147 90.6665 26.3147L91.0853 24.923H91.841L90.9457 29.0502Z" fill="#212121"/>
<path d="M93.6642 26.9661C93.0239 26.9661 92.8182 27.3196 92.7033 27.8347C92.5967 28.3578 92.6462 28.7119 93.278 28.7119C93.9352 28.7119 94.1325 28.3658 94.247 27.8347C94.3624 27.3356 94.3292 26.9661 93.6642 26.9661ZM93.1061 29.5247C91.751 29.5247 91.644 28.696 91.8247 27.8348C92.0138 26.9742 92.49 26.1535 93.8452 26.1535C95.1915 26.1535 95.3151 26.9742 95.1257 27.8348C94.9371 28.712 94.4607 29.5247 93.1061 29.5247Z" fill="#212121"/>
<path d="M100.793 29.476L100.941 28.2048L101.015 27.8427C101.122 27.3602 101.187 27.0061 100.67 27.0061H100.267C100.284 27.2557 100.234 27.5372 100.169 27.8347L99.816 29.476H99.0521L99.1999 28.2048L99.2736 27.8427C99.3806 27.3602 99.4459 27.0061 98.9292 27.0061H98.6004L98.0584 29.476H97.1794L97.894 26.1855H98.5838L98.6905 26.3865C98.6905 26.3865 99.1588 26.145 99.5365 26.145C99.8238 26.145 100.037 26.274 100.111 26.4345C100.276 26.346 100.744 26.145 101.081 26.145C102.131 26.145 102.099 26.9816 101.91 27.8348L101.557 29.4761L100.793 29.476Z" fill="#212121"/>
<path d="M104.283 26.9661C103.642 26.9661 103.437 27.3196 103.322 27.8347C103.216 28.3578 103.265 28.7119 103.897 28.7119C104.554 28.7119 104.751 28.3658 104.866 27.8347C104.981 27.3356 104.948 26.9661 104.283 26.9661ZM103.725 29.5247C102.369 29.5247 102.263 28.696 102.444 27.8348C102.632 26.9742 103.109 26.1535 104.464 26.1535C105.811 26.1535 105.934 26.9742 105.745 27.8348C105.556 28.712 105.08 29.5247 103.725 29.5247Z" fill="#212121"/>
<path d="M108.027 27.6187C108.141 27.1036 108.109 27.0071 107.838 27.0071H107.427L107.164 28.2143L106.762 29.477H105.998L106.622 26.6129L106.713 26.1943H107.411L107.501 26.3873C107.501 26.3873 107.903 26.1543 108.298 26.1543C109.135 26.1543 109.069 26.7734 108.889 27.6186L108.027 27.6187Z" fill="#212121"/>
<path d="M110.968 26.9264C110.525 26.9264 110.295 27.152 110.205 27.554L111.468 27.4495C111.526 27.176 111.468 26.9264 110.968 26.9264ZM110.081 28.1491C110.024 28.5517 110.179 28.6882 110.705 28.6882H112.027L111.896 29.2998C111.896 29.2998 111.099 29.5169 110.508 29.5169C109.038 29.5169 109.022 28.7048 109.21 27.8356C109.399 26.9824 109.736 26.1383 111.157 26.1383C112.528 26.1383 112.594 26.9504 112.257 28.1491L110.081 28.1491Z" fill="#212121"/>
<path d="M112.995 29.5251C112.65 29.5251 112.437 29.4286 112.527 29.0346C112.609 28.6314 112.863 28.5354 113.209 28.5354C113.529 28.5354 113.75 28.6314 113.668 29.0346C113.577 29.4206 113.315 29.5251 112.995 29.5251Z" fill="#212121"/>
</svg>
