<svg width="87" height="64" viewBox="0 0 87 64" fill="none" xmlns="http://www.w3.org/2000/svg">
<path d="M5.7462 60.8162C4.88486 60.8162 4.12553 60.6349 3.4682 60.2722C2.81086 59.9095 2.3292 59.3825 2.0232 58.6912L3.3662 57.9092C3.71753 58.8159 4.51086 59.2692 5.7462 59.2692C6.50553 59.2692 7.10053 59.0879 7.5312 58.7252C7.96186 58.3625 8.1772 57.8242 8.1772 57.1102V48.6952H9.7412V57.1102C9.7412 58.3002 9.36153 59.2182 8.6022 59.8642C7.8542 60.4989 6.9022 60.8162 5.7462 60.8162ZM18.9337 52.0952H20.4127V60.5952H18.9337V59.1332C18.197 60.2552 17.126 60.8162 15.7207 60.8162C14.5307 60.8162 13.5163 60.3855 12.6777 59.5242C11.839 58.6515 11.4197 57.5919 11.4197 56.3452C11.4197 55.0985 11.839 54.0445 12.6777 53.1832C13.5163 52.3105 14.5307 51.8742 15.7207 51.8742C17.126 51.8742 18.197 52.4352 18.9337 53.5572V52.0952ZM15.9077 59.3882C16.769 59.3882 17.4887 59.0992 18.0667 58.5212C18.6447 57.9319 18.9337 57.2065 18.9337 56.3452C18.9337 55.4839 18.6447 54.7642 18.0667 54.1862C17.4887 53.5969 16.769 53.3022 15.9077 53.3022C15.0577 53.3022 14.3437 53.5969 13.7657 54.1862C13.1877 54.7642 12.8987 55.4839 12.8987 56.3452C12.8987 57.2065 13.1877 57.9319 13.7657 58.5212C14.3437 59.0992 15.0577 59.3882 15.9077 59.3882ZM28.6035 52.0952H30.2015L26.8015 60.5952H25.0675L21.6675 52.0952H23.2655L25.9345 59.0142L28.6035 52.0952ZM38.1583 52.0952H39.6373V60.5952H38.1583V59.1332C37.4216 60.2552 36.3506 60.8162 34.9453 60.8162C33.7553 60.8162 32.741 60.3855 31.9023 59.5242C31.0636 58.6515 30.6443 57.5919 30.6443 56.3452C30.6443 55.0985 31.0636 54.0445 31.9023 53.1832C32.741 52.3105 33.7553 51.8742 34.9453 51.8742C36.3506 51.8742 37.4216 52.4352 38.1583 53.5572V52.0952ZM35.1323 59.3882C35.9936 59.3882 36.7133 59.0992 37.2913 58.5212C37.8693 57.9319 38.1583 57.2065 38.1583 56.3452C38.1583 55.4839 37.8693 54.7642 37.2913 54.1862C36.7133 53.5969 35.9936 53.3022 35.1323 53.3022C34.2823 53.3022 33.5683 53.5969 32.9903 54.1862C32.4123 54.7642 32.1233 55.4839 32.1233 56.3452C32.1233 57.2065 32.4123 57.9319 32.9903 58.5212C33.5683 59.0992 34.2823 59.3882 35.1323 59.3882ZM45.8731 60.8162C44.7624 60.8162 43.8104 60.5555 43.0171 60.0342C42.2351 59.5129 41.6854 58.7989 41.3681 57.8922L42.7281 57.1102C43.1928 58.5495 44.2524 59.2692 45.9071 59.2692C46.7231 59.2692 47.3464 59.1049 47.7771 58.7762C48.2078 58.4362 48.4231 57.9885 48.4231 57.4332C48.4231 56.8665 48.2078 56.4415 47.7771 56.1582C47.3464 55.8749 46.6268 55.5745 45.6181 55.2572C45.1194 55.0985 44.7398 54.9739 44.4791 54.8832C44.2184 54.7812 43.8898 54.6339 43.4931 54.4412C43.1078 54.2372 42.8188 54.0332 42.6261 53.8292C42.4334 53.6139 42.2578 53.3362 42.0991 52.9962C41.9518 52.6562 41.8781 52.2709 41.8781 51.8402C41.8781 50.8089 42.2408 49.9929 42.9661 49.3922C43.6914 48.7802 44.5754 48.4742 45.6181 48.4742C46.5588 48.4742 47.3748 48.7122 48.0661 49.1882C48.7688 49.6642 49.2958 50.2932 49.6471 51.0752L48.3211 51.8402C47.8111 50.6162 46.9101 50.0042 45.6181 50.0042C44.9721 50.0042 44.4508 50.1629 44.0541 50.4802C43.6574 50.7975 43.4591 51.2282 43.4591 51.7722C43.4591 52.2935 43.6461 52.6902 44.0201 52.9622C44.3941 53.2342 45.0401 53.5175 45.9581 53.8122C46.2868 53.9142 46.5191 53.9879 46.6551 54.0332C46.7911 54.0785 47.0008 54.1579 47.2841 54.2712C47.5788 54.3845 47.7941 54.4752 47.9301 54.5432C48.0661 54.6112 48.2474 54.7075 48.4741 54.8322C48.7121 54.9569 48.8878 55.0759 49.0011 55.1892C49.1144 55.3025 49.2448 55.4442 49.3921 55.6142C49.5508 55.7729 49.6641 55.9372 49.7321 56.1072C49.8001 56.2772 49.8568 56.4755 49.9021 56.7022C49.9588 56.9175 49.9871 57.1499 49.9871 57.3992C49.9871 58.4419 49.6074 59.2749 48.8481 59.8982C48.0888 60.5102 47.0971 60.8162 45.8731 60.8162ZM55.9004 60.8162C54.6198 60.8162 53.5544 60.3912 52.7044 59.5412C51.8544 58.6799 51.4294 57.6145 51.4294 56.3452C51.4294 55.0759 51.8544 54.0162 52.7044 53.1662C53.5544 52.3049 54.6198 51.8742 55.9004 51.8742C56.7391 51.8742 57.4928 52.0782 58.1614 52.4862C58.8301 52.8829 59.3288 53.4212 59.6574 54.1012L58.4164 54.8152C58.2011 54.3619 57.8668 53.9992 57.4134 53.7272C56.9714 53.4552 56.4671 53.3192 55.9004 53.3192C55.0504 53.3192 54.3364 53.6082 53.7584 54.1862C53.1918 54.7642 52.9084 55.4839 52.9084 56.3452C52.9084 57.1952 53.1918 57.9092 53.7584 58.4872C54.3364 59.0652 55.0504 59.3542 55.9004 59.3542C56.4671 59.3542 56.9771 59.2239 57.4304 58.9632C57.8838 58.6912 58.2294 58.3285 58.4674 57.8752L59.7254 58.6062C59.3628 59.2749 58.8414 59.8132 58.1614 60.2212C57.4814 60.6179 56.7278 60.8162 55.9004 60.8162ZM62.6813 53.5232C63.1687 52.4692 64.0527 51.9422 65.3333 51.9422V53.4892C64.608 53.4552 63.9847 53.6479 63.4633 54.0672C62.942 54.4865 62.6813 55.1609 62.6813 56.0902V60.5952H61.2023V52.0952H62.6813V53.5232ZM67.5284 50.5482C67.2451 50.5482 67.0071 50.4519 66.8144 50.2592C66.6218 50.0665 66.5254 49.8342 66.5254 49.5622C66.5254 49.2902 66.6218 49.0579 66.8144 48.8652C67.0071 48.6612 67.2451 48.5592 67.5284 48.5592C67.8004 48.5592 68.0328 48.6612 68.2254 48.8652C68.4181 49.0579 68.5144 49.2902 68.5144 49.5622C68.5144 49.8342 68.4181 50.0665 68.2254 50.2592C68.0328 50.4519 67.8004 50.5482 67.5284 50.5482ZM66.7804 60.5952V52.0952H68.2594V60.5952H66.7804ZM75.2078 51.8742C76.3978 51.8742 77.4121 52.3105 78.2508 53.1832C79.0895 54.0445 79.5088 55.0985 79.5088 56.3452C79.5088 57.5919 79.0895 58.6515 78.2508 59.5242C77.4121 60.3855 76.3978 60.8162 75.2078 60.8162C73.8025 60.8162 72.7315 60.2552 71.9948 59.1332V63.9952H70.5158V52.0952H71.9948V53.5572C72.7315 52.4352 73.8025 51.8742 75.2078 51.8742ZM75.0208 59.3882C75.8708 59.3882 76.5848 59.0992 77.1628 58.5212C77.7408 57.9319 78.0298 57.2065 78.0298 56.3452C78.0298 55.4839 77.7408 54.7642 77.1628 54.1862C76.5848 53.5969 75.8708 53.3022 75.0208 53.3022C74.1595 53.3022 73.4398 53.5969 72.8618 54.1862C72.2838 54.7642 71.9948 55.4839 71.9948 56.3452C71.9948 57.2065 72.2838 57.9319 72.8618 58.5212C73.4398 59.0992 74.1595 59.3882 75.0208 59.3882ZM85.715 53.5232H83.454V58.1302C83.454 58.5495 83.5333 58.8499 83.692 59.0312C83.862 59.2012 84.117 59.2919 84.457 59.3032C84.797 59.3032 85.2163 59.2919 85.715 59.2692V60.5952C84.423 60.7652 83.4767 60.6632 82.876 60.2892C82.2753 59.9039 81.975 59.1842 81.975 58.1302V53.5232H80.292V52.0952H81.975V50.1572L83.454 49.7152V52.0952H85.715V53.5232Z" fill="#212121"/>
<path fill-rule="evenodd" clip-rule="evenodd" d="M57.8855 1H29.8855V29H57.8855V1ZM58.8855 0V30H28.8855V0H58.8855Z" fill="#212121"/>
<path d="M49.0382 23.4376C49.6425 24.4243 50.4287 25.1495 51.8192 25.1495C52.9873 25.1495 53.7335 24.5657 53.7335 23.759C53.7335 22.7924 52.9668 22.45 51.6811 21.8876L50.9763 21.5852C48.942 20.7186 47.5906 19.6329 47.5906 17.3376C47.5906 15.2233 49.2016 13.6138 51.7192 13.6138C53.5116 13.6138 54.8001 14.2376 55.7287 15.871L53.5335 17.2805C53.0501 16.4138 52.5287 16.0724 51.7192 16.0724C50.8935 16.0724 50.3701 16.5962 50.3701 17.2805C50.3701 18.1262 50.8939 18.4686 52.1035 18.9924L52.8082 19.2943C55.2035 20.3214 56.5558 21.3686 56.5558 23.7229C56.5558 26.261 54.562 27.6514 51.8844 27.6514C49.2663 27.6514 47.5749 26.4038 46.7473 24.7686L49.0382 23.4376ZM39.0797 23.6819C39.5225 24.4676 39.9254 25.1319 40.8939 25.1319C41.8201 25.1319 42.4044 24.7695 42.4044 23.3605V13.7748H45.2235V23.3986C45.2235 26.3176 43.512 27.6462 41.0139 27.6462C38.7568 27.6462 37.4497 26.4781 36.7849 25.0712L39.0797 23.6819Z" fill="#212121"/>
</svg>
