<svg width="57" height="63" viewBox="0 0 57 63" fill="none" xmlns="http://www.w3.org/2000/svg">
<path d="M3.00053 58.504H8.13453V60H1.41953V48.1H3.00053V58.504ZM16.2733 51.5H17.7523V60H16.2733V58.538C15.5366 59.66 14.4656 60.221 13.0603 60.221C11.8703 60.221 10.8559 59.7903 10.0173 58.929C9.17861 58.0563 8.75928 56.9967 8.75928 55.75C8.75928 54.5033 9.17861 53.4493 10.0173 52.588C10.8559 51.7153 11.8703 51.279 13.0603 51.279C14.4656 51.279 15.5366 51.84 16.2733 52.962V51.5ZM13.2473 58.793C14.1086 58.793 14.8283 58.504 15.4063 57.926C15.9843 57.3367 16.2733 56.6113 16.2733 55.75C16.2733 54.8887 15.9843 54.169 15.4063 53.591C14.8283 53.0017 14.1086 52.707 13.2473 52.707C12.3973 52.707 11.6833 53.0017 11.1053 53.591C10.5273 54.169 10.2383 54.8887 10.2383 55.75C10.2383 56.6113 10.5273 57.3367 11.1053 57.926C11.6833 58.504 12.3973 58.793 13.2473 58.793ZM21.4721 52.928C21.9594 51.874 22.8434 51.347 24.1241 51.347V52.894C23.3988 52.86 22.7754 53.0527 22.2541 53.472C21.7328 53.8913 21.4721 54.5657 21.4721 55.495V60H19.9931V51.5H21.4721V52.928ZM32.1444 51.5H33.6234V60H32.1444V58.538C31.4077 59.66 30.3367 60.221 28.9314 60.221C27.7414 60.221 26.727 59.7903 25.8884 58.929C25.0497 58.0563 24.6304 56.9967 24.6304 55.75C24.6304 54.5033 25.0497 53.4493 25.8884 52.588C26.727 51.7153 27.7414 51.279 28.9314 51.279C30.3367 51.279 31.4077 51.84 32.1444 52.962V51.5ZM29.1184 58.793C29.9797 58.793 30.6994 58.504 31.2774 57.926C31.8554 57.3367 32.1444 56.6113 32.1444 55.75C32.1444 54.8887 31.8554 54.169 31.2774 53.591C30.6994 53.0017 29.9797 52.707 29.1184 52.707C28.2684 52.707 27.5544 53.0017 26.9764 53.591C26.3984 54.169 26.1094 54.8887 26.1094 55.75C26.1094 56.6113 26.3984 57.3367 26.9764 57.926C27.5544 58.504 28.2684 58.793 29.1184 58.793ZM41.8142 51.5H43.4122L40.0122 60H38.2782L34.8782 51.5H36.4762L39.1452 58.419L41.8142 51.5ZM45.368 56.43C45.5153 57.1893 45.861 57.7787 46.405 58.198C46.9603 58.6173 47.6403 58.827 48.445 58.827C49.567 58.827 50.383 58.4133 50.893 57.586L52.151 58.3C51.3237 59.5807 50.077 60.221 48.411 60.221C47.0623 60.221 45.963 59.8017 45.113 58.963C44.2743 58.113 43.855 57.042 43.855 55.75C43.855 54.4693 44.2687 53.404 45.096 52.554C45.9233 51.704 46.9943 51.279 48.309 51.279C49.5557 51.279 50.57 51.721 51.352 52.605C52.1453 53.4777 52.542 54.5317 52.542 55.767C52.542 55.9823 52.525 56.2033 52.491 56.43H45.368ZM48.309 52.673C47.5157 52.673 46.8583 52.8997 46.337 53.353C45.8157 53.795 45.4927 54.39 45.368 55.138H51.046C50.9213 54.3333 50.604 53.7213 50.094 53.302C49.584 52.8827 48.989 52.673 48.309 52.673ZM54.2421 60V47.59H55.7211V60H54.2421Z" fill="#212121"/>
<path fill-rule="evenodd" clip-rule="evenodd" d="M8.94425 0.727142C8.23166 0.789329 7.79628 1.54208 8.09591 2.1939L17.1229 21.8321C17.3327 22.2885 17.8386 22.5281 18.323 22.4005L27.8135 19.9003L32.6793 28.5947C32.926 29.0356 33.4538 29.2334 33.9281 29.0629L48.1882 23.9357C48.8416 23.7008 49.0827 22.8987 48.6678 22.3403L43.8219 15.8192L48.8453 14.4352C49.5732 14.2347 49.8478 13.3439 49.3601 12.7659L44.7217 7.26904C44.4842 6.98769 44.1158 6.85408 43.754 6.91815L38.2632 7.89059C37.5167 8.02278 37.1618 8.89002 37.6 9.51064L41.369 14.8475L28.5881 17.7626L18.2055 0.500862C18.0019 0.162424 17.6242 -0.0303358 17.2318 0.00391044L8.94425 0.727142ZM19.0547 20.1245C18.8174 20.1826 18.572 20.0659 18.4665 19.8448L10.2543 2.62914C10.0988 2.30319 10.3151 1.92163 10.6738 1.88921L16.77 1.33803C16.9702 1.31993 17.1627 1.42005 17.2634 1.59466L26.8453 18.216L19.0547 20.1245ZM42.3372 16.0783L46.5103 21.8589C46.7141 22.1412 46.5877 22.5408 46.2591 22.6534L34.283 26.7589C34.0495 26.8389 33.7923 26.742 33.6689 26.5277L29.5564 19.3821L42.3372 16.0783ZM44.3346 8.41739C44.2175 8.26806 44.0284 8.19498 43.8418 8.22696L39.6617 8.94318C39.2866 9.00745 39.1072 9.44301 39.3277 9.75429L42.66 14.4588L47.197 13.2372C47.555 13.1408 47.6982 12.7085 47.4691 12.4162L44.3346 8.41739Z" fill="#212121"/>
</svg>
