<svg width="32" height="32" viewBox="0 0 32 32" fill="none" xmlns="http://www.w3.org/2000/svg">
<circle cx="16" cy="16" r="16" fill="#1A1A1A"/>
<path d="M23.744 23.9942C22.7665 23.9699 21.8123 23.9699 20.8348 23.9942C20.6253 23.9942 20.5788 23.9455 20.5788 23.7264C20.5788 21.9251 20.5788 20.0994 20.5788 18.298C20.5788 17.8842 20.5555 17.4703 20.4392 17.0809C20.0901 15.815 18.6936 15.3525 17.6929 16.2045C17.1576 16.6427 16.9481 17.2513 16.9481 17.9815C16.9481 19.6855 16.9481 21.3895 16.9481 23.0935C16.9481 23.3126 16.9249 23.5317 16.9481 23.7751C16.9714 23.9699 16.8783 24.0186 16.7154 23.9942C15.7146 23.9942 14.7372 23.9942 13.7364 23.9942C13.5502 23.9942 13.5037 23.9455 13.5037 23.7508C13.5269 22.2172 13.5269 20.6836 13.5269 19.1257C13.5269 17.2269 13.5269 15.3282 13.5037 13.4538C13.5037 13.2347 13.5502 13.186 13.7364 13.186C14.7372 13.186 15.7146 13.186 16.7154 13.186C16.9016 13.186 16.9481 13.2347 16.9481 13.4294C16.9481 13.8189 16.9481 14.2084 16.9481 14.6709C17.018 14.5979 17.0412 14.5736 17.0645 14.5492C17.9722 13.1617 19.2522 12.7722 20.765 13.0156C22.5105 13.3077 23.6276 14.5736 23.9069 16.521C23.9767 16.9835 24 17.446 24 17.9085C24 19.8559 24 21.779 24 23.7264C24 23.9212 23.9535 23.9942 23.744 23.9942Z" fill="white"/>
<path d="M11.6418 18.5899C11.6418 20.2939 11.6418 21.9979 11.6418 23.7019C11.6418 23.921 11.5952 23.994 11.3858 23.994C10.4083 23.9697 9.4308 23.994 8.45331 23.994C8.26712 23.994 8.22058 23.9454 8.22058 23.7506C8.22058 20.3183 8.22058 16.8616 8.22058 13.4293C8.22058 13.2589 8.26712 13.1858 8.45331 13.1858C9.45407 13.1858 10.4548 13.1858 11.4556 13.1858C11.665 13.1858 11.6883 13.2589 11.6883 13.4536C11.6418 15.1576 11.6418 16.8616 11.6418 18.5899Z" fill="white"/>
<path d="M11.8047 10.3622C11.572 11.3359 10.6177 11.8958 9.52389 11.7011C8.36022 11.5063 7.70856 10.3135 8.12749 9.14508C8.40677 8.41479 9.0817 7.97662 9.94282 8.00096C11.2461 7.97662 12.1073 9.07205 11.8047 10.3622Z" fill="white"/>
</svg>
