<svg width="55" height="65" viewBox="0 0 55 65" fill="none" xmlns="http://www.w3.org/2000/svg">
<path d="M13.3844 48.6586V60.5586H11.8204V51.2596L7.92737 57.7366H7.72337L3.83037 51.2766V60.5586H2.24937V48.6586H4.03437L7.82537 54.9486L11.5994 48.6586H13.3844ZM21.7091 52.0586H23.2901L19.8221 61.0856C19.4594 62.0489 18.9494 62.7799 18.2921 63.2786C17.6461 63.7886 16.8981 64.0153 16.0481 63.9586V62.5816C17.0907 62.6609 17.8557 62.0829 18.3431 60.8476L18.4961 60.5246L14.7901 52.0586H16.3711L19.2611 58.7226L21.7091 52.0586ZM28.188 60.7796C27.0774 60.7796 26.1254 60.5189 25.332 59.9976C24.55 59.4763 24.0004 58.7623 23.683 57.8556L25.043 57.0736C25.5077 58.5129 26.5674 59.2326 28.222 59.2326C29.038 59.2326 29.6614 59.0683 30.092 58.7396C30.5227 58.3996 30.738 57.9519 30.738 57.3966C30.738 56.8299 30.5227 56.4049 30.092 56.1216C29.6614 55.8383 28.9417 55.5379 27.933 55.2206C27.4344 55.0619 27.0547 54.9373 26.794 54.8466C26.5334 54.7446 26.2047 54.5973 25.808 54.4046C25.4227 54.2006 25.1337 53.9966 24.941 53.7926C24.7484 53.5773 24.5727 53.2996 24.414 52.9596C24.2667 52.6196 24.193 52.2343 24.193 51.8036C24.193 50.7723 24.5557 49.9563 25.281 49.3556C26.0064 48.7436 26.8904 48.4376 27.933 48.4376C28.8737 48.4376 29.6897 48.6756 30.381 49.1516C31.0837 49.6276 31.6107 50.2566 31.962 51.0386L30.636 51.8036C30.126 50.5796 29.225 49.9676 27.933 49.9676C27.287 49.9676 26.7657 50.1263 26.369 50.4436C25.9724 50.7609 25.774 51.1916 25.774 51.7356C25.774 52.2569 25.961 52.6536 26.335 52.9256C26.709 53.1976 27.355 53.4809 28.273 53.7756C28.6017 53.8776 28.834 53.9513 28.97 53.9966C29.106 54.0419 29.3157 54.1213 29.599 54.2346C29.8937 54.3479 30.109 54.4386 30.245 54.5066C30.381 54.5746 30.5624 54.6709 30.789 54.7956C31.027 54.9203 31.2027 55.0393 31.316 55.1526C31.4294 55.2659 31.5597 55.4076 31.707 55.5776C31.8657 55.7363 31.979 55.9006 32.047 56.0706C32.115 56.2406 32.1717 56.4389 32.217 56.6656C32.2737 56.8809 32.302 57.1133 32.302 57.3626C32.302 58.4053 31.9224 59.2383 31.163 59.8616C30.4037 60.4736 29.412 60.7796 28.188 60.7796ZM45.7872 54.6086C45.7872 56.2406 45.2262 57.6516 44.1042 58.8416L45.4132 60.1506L44.3252 61.1366L42.9822 59.7766C41.9508 60.4453 40.8288 60.7796 39.6162 60.7796C37.9162 60.7796 36.4655 60.1789 35.2642 58.9776C34.0628 57.7763 33.4622 56.3199 33.4622 54.6086C33.4622 52.8973 34.0628 51.4409 35.2642 50.2396C36.4655 49.0383 37.9162 48.4376 39.6162 48.4376C41.3162 48.4376 42.7668 49.0383 43.9682 50.2396C45.1808 51.4409 45.7872 52.8973 45.7872 54.6086ZM39.6162 59.2326C40.4322 59.2326 41.1802 59.0399 41.8602 58.6546L39.4802 56.2576L40.5682 55.2886L43.0162 57.7366C43.8095 56.8753 44.2062 55.8326 44.2062 54.6086C44.2062 53.3053 43.7585 52.2059 42.8632 51.3106C41.9792 50.4153 40.8968 49.9676 39.6162 49.9676C38.3355 49.9676 37.2475 50.4153 36.3522 51.3106C35.4682 52.2059 35.0262 53.3053 35.0262 54.6086C35.0262 55.9006 35.4682 56.9943 36.3522 57.8896C37.2475 58.7849 38.3355 59.2326 39.6162 59.2326ZM49.3518 59.0626H54.4859V60.5586H47.7708V48.6586H49.3518V59.0626Z" fill="#212121"/>
<path d="M14.5058 27.3301H12.8013C12.741 24.4531 12.575 21.7484 12.3036 19.2139H12.2884L9.69331 27.3301H8.39559L5.81595 19.2139H5.80112C5.60976 21.6472 5.48921 24.3527 5.43914 27.3301H3.8855C3.98563 23.7094 4.23727 20.315 4.63943 17.1464H6.75202L9.21078 24.6293H9.22593L11.6998 17.1464H13.7212C14.1639 20.8578 14.4254 24.2525 14.5058 27.3301ZM21.8978 19.8166C21.2039 23.5826 20.2882 26.319 19.1519 28.0271C18.2665 29.3419 17.2965 30 16.2402 30C15.9586 30 15.6111 29.915 15.1994 29.7464V28.8383C15.4007 28.8673 15.6368 28.8838 15.9082 28.8838C16.4016 28.8838 16.7982 28.7481 17.1005 28.476C17.4622 28.1447 17.643 27.7722 17.643 27.3601C17.643 27.0775 17.5021 26.4998 17.2208 25.625L15.3503 19.8163H17.0248L18.3673 24.1607C18.669 25.1471 18.7948 25.8358 18.7444 26.2281C19.4786 24.2674 19.9914 22.1294 20.2836 19.816L21.8978 19.8166Z" fill="#212121"/>
<path d="M44.5866 27.3302H39.7448V17.1463H41.3736V26.0766H44.5866V27.3302ZM38.4774 27.5762L36.6052 26.6523C36.7712 26.5159 36.93 26.3684 37.0729 26.1974C37.8687 25.2627 38.2656 23.8803 38.2656 22.0493C38.2656 18.6802 36.9435 16.9948 34.2983 16.9948C33.0013 16.9948 31.9894 17.4223 31.2658 18.2777C30.4707 19.2131 30.0738 20.5905 30.0738 22.4116C30.0738 24.2018 30.4256 25.515 31.1294 26.348C31.7734 27.1026 32.744 27.4803 34.0421 27.4803C34.5262 27.4803 34.9706 27.4211 35.3754 27.3015L37.8127 28.7204L38.4774 27.5762ZM32.4127 25.2923C32.0003 24.629 31.7941 23.5638 31.7941 22.0951C31.7941 19.5309 32.5731 18.2474 34.1326 18.2474C34.9478 18.2474 35.5453 18.5543 35.9274 19.167C36.3391 19.8313 36.5463 20.887 36.5463 22.3352C36.5463 24.9205 35.7667 26.2132 34.2081 26.2132C33.3925 26.2136 32.7951 25.9076 32.4127 25.2923ZM29.364 24.5074C29.364 25.371 29.0471 26.0795 28.4141 26.6345C27.7804 27.1872 26.9306 27.4642 25.8657 27.4642C24.8697 27.4642 23.904 27.146 22.9693 26.513L23.407 25.6385C24.2113 26.0413 24.9396 26.2416 25.5934 26.2416C26.207 26.2416 26.6865 26.1055 27.0344 25.8358C27.3818 25.565 27.589 25.1853 27.589 24.705C27.589 24.1 27.1671 23.5829 26.3931 23.1497C25.6793 22.7578 24.2518 21.9383 24.2518 21.9383C23.4781 21.3744 23.0908 20.769 23.0908 19.7717C23.0908 18.9463 23.3796 18.28 23.9577 17.7731C24.5364 17.2642 25.2831 17.0106 26.1984 17.0106C27.1437 17.0106 28.003 17.2639 28.7771 17.7652L28.3845 18.64C27.7224 18.3587 27.0689 18.218 26.4244 18.218C25.9023 18.218 25.4992 18.3435 25.2189 18.5955C24.9363 18.8465 24.762 19.1676 24.762 19.5616C24.762 20.1637 25.1928 20.6874 25.9879 21.129C26.7112 21.5217 28.1743 22.3553 28.1743 22.3553C28.9678 22.9182 29.364 23.518 29.364 24.5074Z" fill="#212121"/>
<path d="M46.6314 13.7355C45.6466 13.7104 44.8841 13.8096 44.2441 14.0803C44.0593 14.1541 43.7655 14.1541 43.7398 14.3876C43.8396 14.4864 43.8512 14.6459 43.9378 14.7822C44.0853 15.0283 44.3426 15.3593 44.5774 15.5319C44.8353 15.7295 45.0942 15.9251 45.3656 16.0974C45.8442 16.3935 46.3867 16.5658 46.8531 16.8609C47.1248 17.0325 47.3949 17.2545 47.667 17.4393C47.8007 17.5377 47.8863 17.6975 48.0599 17.7591V17.7215C47.9729 17.6109 47.9482 17.4508 47.8629 17.3276L47.4934 16.9712C47.1363 16.4917 46.6927 16.073 46.2141 15.7292C45.8202 15.4578 44.9585 15.0889 44.7988 14.635L44.7737 14.61C45.0445 14.5846 45.3656 14.4864 45.6229 14.411C46.0415 14.3007 46.4232 14.3257 46.8527 14.2154C47.0504 14.166 47.2463 14.104 47.4446 14.0431V13.9321C47.222 13.7104 47.0632 13.416 46.829 13.2065C46.2026 12.6653 45.5122 12.136 44.7988 11.693C44.4167 11.4463 43.9253 11.2876 43.5185 11.0778C43.3719 11.0037 43.1249 10.9671 43.0386 10.8439C42.8179 10.5732 42.6937 10.2168 42.5337 9.89631C42.1779 9.22011 41.8324 8.4698 41.5255 7.75474C41.3035 7.27517 41.1684 6.79627 40.8977 6.3526C39.6296 4.26109 38.2525 2.99433 36.1359 1.75095C35.6811 1.49206 35.1399 1.38172 34.5618 1.24602L33.6386 1.19728C33.4416 1.11098 33.2444 0.876796 33.0724 0.766127C32.3702 0.323452 30.5623 -0.636008 30.0458 0.630756C29.7131 1.43146 30.5379 2.21866 30.8212 2.62477C31.0303 2.90671 31.3014 3.22752 31.4476 3.54767C31.5342 3.75682 31.5586 3.97882 31.6452 4.19983C31.8422 4.74131 32.0263 5.34374 32.2852 5.84899C32.4203 6.10656 32.5675 6.3773 32.7401 6.6105C32.8389 6.74686 33.0108 6.80713 33.0484 7.02946C32.8768 7.27451 32.8633 7.6444 32.7648 7.95203C32.3221 9.34231 32.495 11.0646 33.1225 12.0863C33.3188 12.3939 33.7872 13.0711 34.4136 12.8116C34.9683 12.5902 34.8454 11.889 35.0049 11.2741C35.0414 11.1255 35.0174 11.028 35.0911 10.9305V10.9546C35.2628 11.2988 35.436 11.6305 35.5951 11.9756C35.9768 12.5781 36.6415 13.2058 37.1952 13.6232C37.49 13.8458 37.7235 14.2266 38.0927 14.3626V14.3257H38.0684C37.9936 14.2154 37.8842 14.166 37.7861 14.0803C37.5641 13.8587 37.3184 13.5879 37.1461 13.3422C36.6303 12.6528 36.1738 11.8897 35.7687 11.1021C35.5704 10.7201 35.3994 10.3024 35.2397 9.92102C35.1653 9.77379 35.1653 9.55179 35.0417 9.47768C34.8566 9.7481 34.5869 9.98228 34.4518 10.3136C34.2176 10.8436 34.1933 11.4954 34.1063 12.1733L34.0579 12.197C33.666 12.0985 33.5296 11.693 33.3807 11.3488C33.0121 10.4747 32.9502 9.07156 33.27 8.06303C33.3557 7.80513 33.7262 6.9929 33.5783 6.74719C33.5042 6.51169 33.2579 6.37763 33.1228 6.1922C32.9641 5.959 32.7901 5.66388 32.6795 5.405C32.3844 4.71628 32.2358 3.95313 31.918 3.26474C31.7694 2.94393 31.5115 2.61193 31.3027 2.31648C31.0682 1.98447 30.8103 1.75062 30.6248 1.35702C30.5636 1.22165 30.4776 1.00031 30.5761 0.853081C30.6001 0.75427 30.6502 0.71738 30.7484 0.692677C30.9078 0.557964 31.3633 0.729237 31.523 0.803346C31.9792 0.987794 32.3606 1.16006 32.7414 1.41828C32.9137 1.5418 33.0984 1.77565 33.3194 1.83724H33.5783C33.9713 1.92288 34.4143 1.86096 34.7842 1.97229C35.436 2.18177 36.0266 2.48907 36.5562 2.82075C38.1678 3.84279 39.4968 5.29499 40.3941 7.02946C40.5413 7.31206 40.6039 7.57095 40.7383 7.86573C40.9975 8.46914 41.318 9.08441 41.5752 9.67497C41.8337 10.253 42.0801 10.8433 42.4493 11.3235C42.6335 11.5817 43.3732 11.7171 43.7049 11.8525C43.9503 11.9628 44.3324 12.0609 44.5537 12.1963C44.9723 12.4542 45.3893 12.7503 45.7829 13.0339C45.9789 13.1815 46.5948 13.4891 46.6314 13.7355ZM34.0803 3.04275C33.9104 3.04098 33.7411 3.0618 33.5767 3.10467V3.12937H33.6004C33.6995 3.326 33.8718 3.46236 33.9947 3.63397C34.0938 3.83126 34.1798 4.02691 34.2769 4.22387L34.3007 4.1995C34.4742 4.07664 34.5605 3.87968 34.5605 3.58423C34.4858 3.49728 34.4742 3.4123 34.412 3.326C34.3395 3.20282 34.1798 3.14156 34.0803 3.04275Z" fill="#212121"/>
<path d="M47.8031 27.3286H48.058V26.0809H47.6756L47.3637 26.9324L47.0248 26.0809H46.6566V27.3286H46.8974V26.3793H46.9109L47.2659 27.3286H47.4494L47.8031 26.3793V27.3286ZM45.7496 27.3286H46.0193V26.2924H46.3724V26.0806H45.3817V26.2924H45.7489L45.7496 27.3286Z" fill="#212121"/>
</svg>
