<svg width="59" height="63" viewBox="0 0 59 63" fill="none" xmlns="http://www.w3.org/2000/svg">
<path d="M8.90145 47.1H10.4824V59H9.20745L3.08745 50.109V59H1.50645V47.1H2.78145L8.90145 55.974V47.1ZM20.0489 57.929C19.1763 58.7903 18.1166 59.221 16.8699 59.221C15.6233 59.221 14.5636 58.7903 13.6909 57.929C12.8296 57.0677 12.3989 56.008 12.3989 54.75C12.3989 53.492 12.8296 52.4323 13.6909 51.571C14.5636 50.7097 15.6233 50.279 16.8699 50.279C18.1166 50.279 19.1763 50.7097 20.0489 51.571C20.9216 52.4323 21.3579 53.492 21.3579 54.75C21.3579 56.008 20.9216 57.0677 20.0489 57.929ZM16.8699 57.776C17.7199 57.776 18.4339 57.487 19.0119 56.909C19.5899 56.331 19.8789 55.6113 19.8789 54.75C19.8789 53.8887 19.5899 53.169 19.0119 52.591C18.4339 52.013 17.7199 51.724 16.8699 51.724C16.0313 51.724 15.3229 52.013 14.7449 52.591C14.1669 53.169 13.8779 53.8887 13.8779 54.75C13.8779 55.6113 14.1669 56.331 14.7449 56.909C15.3229 57.487 16.0313 57.776 16.8699 57.776ZM30.1395 47.1H31.6185V59H30.1395V57.538C29.4028 58.66 28.3318 59.221 26.9265 59.221C25.7365 59.221 24.7222 58.7903 23.8835 57.929C23.0448 57.0563 22.6255 55.9967 22.6255 54.75C22.6255 53.5033 23.0448 52.4493 23.8835 51.588C24.7222 50.7153 25.7365 50.279 26.9265 50.279C28.3318 50.279 29.4028 50.84 30.1395 51.962V47.1ZM27.1135 57.793C27.9748 57.793 28.6945 57.504 29.2725 56.926C29.8505 56.3367 30.1395 55.6113 30.1395 54.75C30.1395 53.8887 29.8505 53.169 29.2725 52.591C28.6945 52.0017 27.9748 51.707 27.1135 51.707C26.2635 51.707 25.5495 52.0017 24.9715 52.591C24.3935 53.169 24.1045 53.8887 24.1045 54.75C24.1045 55.6113 24.3935 56.3367 24.9715 56.926C25.5495 57.504 26.2635 57.793 27.1135 57.793ZM34.8963 55.43C35.0436 56.1893 35.3893 56.7787 35.9333 57.198C36.4886 57.6173 37.1686 57.827 37.9733 57.827C39.0953 57.827 39.9113 57.4133 40.4213 56.586L41.6793 57.3C40.852 58.5807 39.6053 59.221 37.9393 59.221C36.5906 59.221 35.4913 58.8017 34.6413 57.963C33.8026 57.113 33.3833 56.042 33.3833 54.75C33.3833 53.4693 33.797 52.404 34.6243 51.554C35.4516 50.704 36.5226 50.279 37.8373 50.279C39.084 50.279 40.0983 50.721 40.8803 51.605C41.6736 52.4777 42.0703 53.5317 42.0703 54.767C42.0703 54.9823 42.0533 55.2033 42.0193 55.43H34.8963ZM37.8373 51.673C37.044 51.673 36.3866 51.8997 35.8653 52.353C35.344 52.795 35.021 53.39 34.8963 54.138H40.5743C40.4496 53.3333 40.1323 52.7213 39.6223 52.302C39.1123 51.8827 38.5173 51.673 37.8373 51.673ZM49.1424 48.953C48.8591 48.953 48.6211 48.8567 48.4284 48.664C48.2358 48.4713 48.1394 48.239 48.1394 47.967C48.1394 47.695 48.2358 47.4627 48.4284 47.27C48.6211 47.066 48.8591 46.964 49.1424 46.964C49.4144 46.964 49.6468 47.066 49.8394 47.27C50.0321 47.4627 50.1284 47.695 50.1284 47.967C50.1284 48.239 50.0321 48.4713 49.8394 48.664C49.6468 48.8567 49.4144 48.953 49.1424 48.953ZM48.3944 59.51V50.5H49.8734V59.51C49.8734 60.6093 49.5958 61.4197 49.0404 61.941C48.4851 62.4737 47.6691 62.7003 46.5924 62.621V61.193C47.2158 61.2497 47.6691 61.1477 47.9524 60.887C48.2471 60.6263 48.3944 60.1673 48.3944 59.51ZM53.3794 52.795C53.3794 53.1237 53.5438 53.39 53.8724 53.594C54.2011 53.7867 54.5978 53.9453 55.0624 54.07C55.5271 54.1833 55.9918 54.3193 56.4564 54.478C56.9211 54.6253 57.3178 54.886 57.6464 55.26C57.9751 55.6227 58.1394 56.093 58.1394 56.671C58.1394 57.4417 57.8391 58.0593 57.2384 58.524C56.6491 58.9887 55.8898 59.221 54.9604 59.221C54.1331 59.221 53.4248 59.0397 52.8354 58.677C52.2461 58.3143 51.8268 57.8327 51.5774 57.232L52.8524 56.501C52.9884 56.909 53.2434 57.232 53.6174 57.47C53.9914 57.708 54.4391 57.827 54.9604 57.827C55.4478 57.827 55.8501 57.7363 56.1674 57.555C56.4848 57.3623 56.6434 57.0677 56.6434 56.671C56.6434 56.3423 56.4791 56.0817 56.1504 55.889C55.8218 55.685 55.4251 55.5263 54.9604 55.413C54.4958 55.2883 54.0311 55.1467 53.5664 54.988C53.1018 54.8293 52.7051 54.5687 52.3764 54.206C52.0478 53.8433 51.8834 53.3787 51.8834 52.812C51.8834 52.0753 52.1668 51.469 52.7334 50.993C53.3114 50.517 54.0311 50.279 54.8924 50.279C55.5838 50.279 56.1958 50.4377 56.7284 50.755C57.2724 51.061 57.6804 51.4917 57.9524 52.047L56.7114 52.744C56.4054 52.0187 55.7991 51.656 54.8924 51.656C54.4731 51.656 54.1161 51.758 53.8214 51.962C53.5268 52.1547 53.3794 52.4323 53.3794 52.795Z" fill="#212121"/>
<path d="M29.2108 30C29.0491 30 28.8886 29.9576 28.7468 29.876L27.27 29.0017C27.0495 28.8783 27.1571 28.8347 27.2298 28.8095C27.5239 28.7066 27.5836 28.6833 27.8975 28.505C27.9305 28.4862 27.9737 28.4929 28.0075 28.5128L29.142 29.186C29.183 29.2082 29.2411 29.2082 29.2791 29.186L33.7028 26.6326C33.7437 26.6093 33.7703 26.5617 33.7703 26.513V21.4084C33.7703 21.3574 33.7437 21.312 33.7019 21.2866L29.28 18.7353C29.239 18.711 29.1848 18.711 29.1438 18.7353L24.7228 21.2866C24.6799 21.3109 24.6527 21.3585 24.6527 21.4073V26.5119C24.6527 26.5606 24.6793 26.6071 24.7214 26.6304L25.9327 27.3302C26.5905 27.6591 26.9924 27.2715 26.9924 26.8817V21.8435C26.9924 21.7716 27.0489 21.7162 27.1209 21.7162H27.6812C27.7509 21.7162 27.8085 21.7716 27.8085 21.8435V26.884C27.8085 27.7609 27.3302 28.2648 26.4986 28.2648C26.2428 28.2648 26.0413 28.2648 25.4788 27.9879L24.3183 27.3191C24.0315 27.153 23.8543 26.843 23.8543 26.5119V21.4073C23.8543 21.0751 24.0315 20.765 24.3183 20.6011L28.7464 18.0466C29.0265 17.8883 29.3986 17.8883 29.6765 18.0466L34.0991 20.6023C34.3847 20.7672 34.563 21.0762 34.563 21.4084V26.513C34.563 26.8441 34.3847 27.153 34.0991 27.3191L29.6765 29.8737C29.5348 29.9556 29.3742 29.9977 29.2103 29.9977" fill="#212121"/>
<path d="M30.5772 26.4826C28.6416 26.4826 28.2358 25.5941 28.2358 24.8488C28.2358 24.778 28.2929 24.7215 28.3639 24.7215H28.9353C28.9984 24.7215 29.0516 24.7675 29.0615 24.8298C29.1479 25.412 29.4048 25.7057 30.5752 25.7057C31.5075 25.7057 31.904 25.4951 31.904 25.0007C31.904 24.7161 31.791 24.5046 30.3427 24.3629C29.1313 24.2433 28.3828 23.9764 28.3828 23.0075C28.3828 22.115 29.1357 21.5835 30.3969 21.5835C31.8132 21.5835 32.5152 22.0752 32.6038 23.1315C32.6071 23.1681 32.5938 23.2035 32.5694 23.2301C32.5451 23.2556 32.5108 23.2711 32.4753 23.2711H31.9006C31.8408 23.2711 31.7888 23.229 31.7766 23.1714C31.6382 22.5591 31.3038 22.3631 30.3947 22.3631C29.3771 22.3631 29.2586 22.7174 29.2586 22.9832C29.2586 23.3054 29.3981 23.3995 30.7712 23.5811C32.131 23.7616 32.7765 24.0163 32.7765 24.9719C32.7765 25.9352 31.9726 26.4878 30.5708 26.4878L30.5772 26.4826ZM35.9589 21.0742H36.1073C36.2291 21.0742 36.2523 20.9889 36.2523 20.9391C36.2523 20.8084 36.1626 20.8084 36.1128 20.8084H35.96L35.9589 21.0742ZM35.7784 20.6556H36.1073C36.2202 20.6556 36.4417 20.6556 36.4417 20.9081C36.4417 21.0841 36.3287 21.1207 36.2612 21.1428C36.3929 21.1517 36.4018 21.2381 36.4195 21.3599C36.4284 21.4363 36.4428 21.568 36.4693 21.6123H36.2667C36.2612 21.568 36.2302 21.3244 36.2302 21.3111C36.2169 21.2569 36.1981 21.2303 36.1305 21.2303H35.9633V21.6134H35.7784V20.6556ZM35.3831 21.1318C35.3831 21.5282 35.7031 21.8493 36.0962 21.8493C36.4926 21.8493 36.8126 21.5215 36.8126 21.1318C36.8126 20.7342 36.4882 20.4187 36.0951 20.4187C35.7075 20.4187 35.382 20.7298 35.382 21.1307L35.3831 21.1318ZM36.9499 21.134C36.9499 21.6035 36.5657 21.9866 36.0973 21.9866C35.6322 21.9866 35.2447 21.6079 35.2447 21.134C35.2447 20.6512 35.6411 20.2814 36.0973 20.2814C36.5568 20.2814 36.9488 20.6523 36.9488 21.134" fill="#212121"/>
<path fill-rule="evenodd" clip-rule="evenodd" d="M15.5122 10.0266C15.5122 9.82281 15.4048 9.63568 15.229 9.53436L10.5389 6.83588C10.4598 6.78937 10.3711 6.76501 10.2811 6.76169H10.2326C10.1427 6.76501 10.054 6.78937 9.97354 6.83588L5.28369 9.53436C5.10896 9.63624 5 9.82337 5 10.0271L5.0103 17.2954C5.0103 17.3962 5.06234 17.4903 5.15092 17.5401C5.23729 17.5933 5.34581 17.5933 5.43218 17.5401L8.22035 15.9434C8.39641 15.8387 8.50382 15.6535 8.50382 15.4518V12.0562C8.50382 11.8536 8.61123 11.6665 8.78674 11.5657L9.97376 10.8821C10.0619 10.8311 10.1587 10.8059 10.2572 10.8059C10.3542 10.8059 10.4532 10.8309 10.5389 10.8819L11.7254 11.5654C11.901 11.6661 12.0089 11.8533 12.0089 12.0559V15.4512C12.0089 15.6527 12.1177 15.8388 12.2929 15.9428L15.0793 17.5385C15.1668 17.5905 15.2756 17.5905 15.3628 17.5385C15.4487 17.4886 15.5032 17.3945 15.5032 17.2938L15.5122 10.0266ZM37.6436 13.8109C37.6436 13.8615 37.6167 13.9083 37.5727 13.9333L35.9618 14.8619C35.9181 14.887 35.864 14.887 35.8204 14.8619L34.2093 13.9333C34.165 13.9082 34.1384 13.8614 34.1384 13.8109V11.951C34.1384 11.9003 34.165 11.8536 34.2082 11.8281L35.8182 10.898C35.8625 10.8725 35.9167 10.8725 35.961 10.898L37.5722 11.8281C37.6165 11.8536 37.643 11.9003 37.643 11.951L37.6436 13.8109ZM38.0787 0.0358525C37.9908 -0.0130901 37.8839 -0.0117613 37.7971 0.0388422C37.7107 0.0897779 37.6573 0.182791 37.6573 0.283555V7.48099C37.6573 7.55186 37.6197 7.61719 37.5583 7.65262C37.4974 7.68805 37.4216 7.68805 37.3601 7.65262L36.1853 6.97595C36.0103 6.87474 35.7948 6.87474 35.6192 6.97595L30.9276 9.68363C30.7523 9.78439 30.6441 9.97152 30.6441 10.1731V15.59C30.6441 15.7926 30.7523 15.9786 30.9276 16.0805L35.6192 18.79C35.7944 18.8908 36.0101 18.8908 36.1858 18.79L40.8774 16.0794C41.0524 15.9775 41.1609 15.7915 41.1609 15.5888V2.08867C41.1609 1.88316 41.0491 1.69414 40.8697 1.59371L38.0787 0.0358525ZM53.7019 11.9021C53.8762 11.8009 53.9835 11.614 53.9835 11.4125V10.0996C53.9835 9.89767 53.8761 9.71131 53.7015 9.60966L49.0398 6.90342C48.8637 6.80155 48.6478 6.80155 48.4717 6.90342L43.7812 9.61077C43.6052 9.71264 43.4977 9.89866 43.4977 10.1013V15.516C43.4977 15.7197 43.6074 15.908 43.7834 16.0087L48.444 18.6651C48.6157 18.7637 48.8261 18.7648 48.9999 18.6685L51.8191 17.1016C51.9077 17.0518 51.9641 16.9577 51.9641 16.8558C51.9641 16.7539 51.9099 16.6587 51.8213 16.6089L47.102 13.9004C47.0134 13.8506 46.9592 13.7565 46.9592 13.6557V11.9571C46.9592 11.8557 47.0123 11.7622 47.1009 11.7118L48.5692 10.8647C48.6567 10.8137 48.7641 10.8137 48.8515 10.8647L50.3209 11.7118C50.4084 11.7616 50.4627 11.8557 50.4627 11.9565V13.2919C50.4627 13.3926 50.5169 13.4868 50.6044 13.5377C50.6919 13.5875 50.8004 13.5875 50.8879 13.5366L53.7019 11.9021Z" fill="#212121"/>
<path fill-rule="evenodd" clip-rule="evenodd" d="M48.6872 11.6488C48.7204 11.6292 48.762 11.6292 48.7957 11.6488L49.6959 12.1681C49.7296 12.1876 49.7502 12.2234 49.7502 12.2622V13.3019C49.7502 13.3407 49.7296 13.3766 49.6959 13.3961L48.7957 13.9154C48.762 13.935 48.7204 13.935 48.6872 13.9154L47.7875 13.3961C47.7532 13.3766 47.7321 13.3407 47.7321 13.3019V12.2622C47.7321 12.2234 47.7521 12.1876 47.7864 12.1681L48.6872 11.6488Z" fill="#212121"/>
<path d="M27.9982 9.61543L23.2249 6.9469C23.0727 6.86184 22.8872 6.86247 22.7356 6.94856L18.0415 9.61482C17.8856 9.70336 17.7893 9.86882 17.7893 10.0481V15.4138C17.7893 15.5889 17.8811 15.7511 18.0312 15.8411L22.7254 18.6576C22.8822 18.7517 23.0778 18.7523 23.2352 18.6594L28.0084 15.8406C28.1602 15.751 28.2533 15.5878 28.2533 15.4115V10.0504C28.2533 9.86987 28.1557 9.7035 27.9982 9.61543Z" fill="#212121"/>
</svg>
