<svg width="57" height="63" viewBox="0 0 57 63" fill="none" xmlns="http://www.w3.org/2000/svg">
<path d="M17.8298 47.4232C18.9292 47.4232 19.8415 47.7916 20.5668 48.5282C21.3035 49.2536 21.6718 50.1602 21.6718 51.2482C21.6718 52.3249 21.3035 53.2316 20.5668 53.9682C19.8415 54.7049 18.9292 55.0732 17.8298 55.0732H15.0928V59.3232H13.5118V47.4232H17.8298ZM17.8298 53.5942C18.4872 53.5942 19.0312 53.3732 19.4618 52.9312C19.8925 52.4779 20.1078 51.9169 20.1078 51.2482C20.1078 50.5682 19.8925 50.0072 19.4618 49.5652C19.0312 49.1232 18.4872 48.9022 17.8298 48.9022H15.0928V53.5942H17.8298ZM30.9002 47.4232H32.4642V59.3232H30.9002V53.9682H25.1202V59.3232H23.5392V47.4232H25.1202V52.4722H30.9002V47.4232ZM39.3288 47.4232C40.4282 47.4232 41.3405 47.7916 42.0658 48.5282C42.8025 49.2536 43.1708 50.1602 43.1708 51.2482C43.1708 52.3249 42.8025 53.2316 42.0658 53.9682C41.3405 54.7049 40.4282 55.0732 39.3288 55.0732H36.5918V59.3232H35.0108V47.4232H39.3288ZM39.3288 53.5942C39.9862 53.5942 40.5302 53.3732 40.9608 52.9312C41.3915 52.4779 41.6068 51.9169 41.6068 51.2482C41.6068 50.5682 41.3915 50.0072 40.9608 49.5652C40.5302 49.1232 39.9862 48.9022 39.3288 48.9022H36.5918V53.5942H39.3288Z" fill="#212121"/>
<path fill-rule="evenodd" clip-rule="evenodd" d="M8.7951 24.585C3.77129 21.9495 1 18.4827 1 14.9203C1 11.358 3.77129 7.89111 8.7951 5.25567C13.7719 2.64489 20.7165 1 28.4419 1C36.1674 1 43.112 2.64489 48.0888 5.25567C53.1127 7.89111 55.884 11.358 55.884 14.9203C55.884 18.4827 53.1127 21.9495 48.0888 24.585C43.112 27.1957 36.1674 28.8406 28.4419 28.8406C20.7165 28.8406 13.7719 27.1957 8.7951 24.585ZM28.4419 29.8406C12.7342 29.8406 0 23.1605 0 14.9203C0 6.68022 12.7342 0 28.4419 0C44.1497 0 56.884 6.68022 56.884 14.9203C56.884 23.1605 44.1497 29.8406 28.4419 29.8406Z" fill="#212121"/>
<path d="M15.1948 11.2982H16.9239C18.3045 11.2982 18.7841 11.6003 18.947 11.7804C19.2174 12.0793 19.2684 12.7096 19.0947 13.603C18.8994 14.6033 18.5375 15.3125 18.0188 15.7107C17.4878 16.1184 16.6245 16.325 15.4531 16.325H14.2151L15.1948 11.2982ZM18.1607 7.70761H11.8799C11.5844 7.70761 11.3304 7.91648 11.2741 8.20568L8.3599 23.158C8.32472 23.3384 8.37225 23.525 8.48942 23.6669C8.60669 23.8088 8.78137 23.8909 8.96571 23.8909H12.2319C12.5274 23.8909 12.7814 23.682 12.8378 23.3928L13.5155 19.9156H15.8043C17.0986 19.9156 18.1883 19.7748 19.0426 19.4973C19.9212 19.2127 20.7296 18.73 21.4451 18.0627C22.0368 17.5199 22.5242 16.9105 22.8935 16.2513C23.2629 15.592 23.5283 14.8568 23.6823 14.066C24.0645 12.1062 23.754 10.5368 22.7597 9.40175C21.775 8.27759 20.2276 7.70761 18.1607 7.70761ZM13.4663 16.9405H15.4531C16.77 16.9405 17.7508 16.6932 18.3953 16.1984C19.0399 15.7035 19.4747 14.8776 19.7006 13.7202C19.9167 12.609 19.8183 11.8248 19.4052 11.368C18.9917 10.9111 18.1647 10.6827 16.9239 10.6827H14.686L13.4663 16.9405ZM18.1607 8.32314C20.0501 8.32314 21.4285 8.81762 22.2949 9.80667C23.1612 10.7957 23.4221 12.1762 23.0764 13.9487C22.9341 14.6788 22.6935 15.3463 22.3548 15.9511C22.0156 16.5562 21.5727 17.1096 21.0255 17.6114C20.3733 18.22 19.6487 18.6538 18.8515 18.9121C18.0542 19.1711 17.0388 19.3001 15.8043 19.3001H13.0066L12.2319 23.2753H8.96571L11.8799 8.32314H18.1607Z" fill="#212121"/>
<path d="M29.0248 3.73233H25.7843C25.4888 3.73233 25.2348 3.9412 25.1784 4.23039L22.2643 19.1827C22.2291 19.3631 22.2766 19.5498 22.3939 19.6916C22.5112 19.8335 22.6858 19.9156 22.8702 19.9156H26.1106C26.4061 19.9156 26.6602 19.7067 26.7166 19.4175L28.2887 11.3495H30.3697C31.3329 11.3495 31.5351 11.5547 31.5432 11.5635C31.6016 11.6262 31.6785 11.9165 31.5516 12.5669L30.2625 19.1827C30.2274 19.3631 30.2749 19.5498 30.3922 19.6916C30.5094 19.8335 30.6841 19.9156 30.8685 19.9156H34.1603C34.4558 19.9156 34.7099 19.7067 34.7663 19.4175L36.122 12.4595C36.4402 10.8262 36.168 9.60098 35.3133 8.81761C34.4978 8.07067 33.1316 7.70761 31.1368 7.70761H28.9988L29.6307 4.46532C29.6658 4.28487 29.6184 4.09816 29.5011 3.95638C29.3838 3.8145 29.2091 3.73233 29.0248 3.73233ZM29.0248 4.34785L28.2501 8.32314H31.1368C32.9533 8.32314 34.2061 8.63932 34.8957 9.27085C35.5852 9.90279 35.7918 10.9267 35.5162 12.3421L34.1603 19.3001H30.8685L32.1575 12.6844C32.3042 11.9318 32.2503 11.4184 31.9956 11.1447C31.7408 10.871 31.1988 10.734 30.3697 10.734H27.7798L26.1106 19.3001H22.8702L25.7843 4.34785H29.0248Z" fill="#212121"/>
<path d="M40.6881 11.2982H42.4172C43.7978 11.2982 44.2774 11.6003 44.4404 11.7804C44.7108 12.0793 44.7618 12.7096 44.588 13.6029C44.3927 14.6033 44.0307 15.3125 43.5122 15.7107C42.9811 16.1184 42.1178 16.325 40.9464 16.325H39.7086L40.6881 11.2982ZM43.654 7.70761H37.3733C37.0778 7.70761 36.8238 7.91648 36.7675 8.20568L33.8533 23.158C33.8181 23.3384 33.8657 23.525 33.9828 23.6669C34.1001 23.8088 34.2748 23.8909 34.4591 23.8909H37.7253C38.0208 23.8909 38.2749 23.682 38.3312 23.3928L39.0088 19.9156H41.2976C42.592 19.9156 43.6816 19.7748 44.5359 19.4973C45.4146 19.2127 46.2231 18.7299 46.9386 18.0625C47.5303 17.5197 48.0175 16.9105 48.3868 16.2513C48.7562 15.592 49.0217 14.8568 49.1757 14.066C49.5578 12.1061 49.2474 10.5367 48.253 9.40165C47.2683 8.27759 45.721 7.70761 43.654 7.70761ZM38.9598 16.9405H40.9464C42.2633 16.9405 43.2442 16.6932 43.8887 16.1984C44.5334 15.7035 44.968 14.8776 45.1939 13.7202C45.4101 12.609 45.3117 11.8248 44.8986 11.368C44.485 10.9111 43.658 10.6827 42.4172 10.6827H40.1793L38.9598 16.9405ZM43.654 8.32314C45.5435 8.32314 46.9218 8.81761 47.7882 9.80667C48.6546 10.7957 48.9154 12.1762 48.5697 13.9487C48.4275 14.6788 48.1869 15.3463 47.8481 15.9511C47.5089 16.5562 47.0661 17.1096 46.5188 17.6114C45.8666 18.22 45.1421 18.6538 44.3448 18.9121C43.5475 19.1711 42.5321 19.3001 41.2976 19.3001H38.4999L37.7253 23.2753H34.4591L37.3733 8.32314H43.654Z" fill="#212121"/>
</svg>
