<svg width="268" height="34" viewBox="0 0 268 34" fill="none" xmlns="http://www.w3.org/2000/svg">
<path d="M29.2957 0H34.4787V31.9998H29.2957V0Z" fill="#1A1A1A"/>
<path d="M52.5067 21.8586C52.5067 26.8163 48.4504 27.267 47.0983 27.267C43.9434 27.267 43.4927 24.3375 43.4927 22.76V10.3657H38.3096V22.5347C38.3096 25.4642 39.211 28.1684 41.0138 29.7459C42.5913 31.3233 44.6194 31.9994 47.0983 31.9994C48.9011 31.9994 51.1546 31.5487 52.5067 30.1966V31.9994H57.6898V10.3657H52.5067V21.8586Z" fill="#1A1A1A"/>
<path d="M67.8306 2.47803H62.6475V10.3653H58.8165V15.323H62.6475V31.999H67.8306V15.323H71.6615V10.3653H67.8306V2.47803Z" fill="#1A1A1A"/>
<path d="M87.8868 25.4647C86.7601 26.3661 85.1826 27.0422 83.6052 27.0422C79.9996 27.0422 77.5207 24.338 77.5207 20.7324C77.5207 17.1267 79.9996 14.6479 83.6052 14.6479C85.1826 14.6479 86.7601 15.0986 87.8868 16.2253L88.5629 16.9014L92.1685 13.5211L91.2671 12.8451C89.2389 11.0423 86.5347 9.91553 83.6052 9.91553C77.2954 9.91553 72.563 14.6479 72.563 20.9577C72.563 27.2675 77.2954 31.9999 83.6052 31.9999C86.5347 31.9999 89.2389 30.8731 91.2671 29.0703L92.1685 28.3943L88.5629 24.7887L87.8868 25.4647Z" fill="#1A1A1A"/>
<path d="M110.422 12.1689C108.844 10.5915 107.267 9.91543 104.788 9.91543C102.985 9.91543 101.182 10.3661 99.8303 11.7182V0H94.6472V31.9998H99.8303V20.0562C99.8303 15.0985 103.211 14.6478 104.563 14.6478C107.718 14.6478 107.492 17.5774 107.492 19.1548V31.7744H112.675V19.3802C112.675 16.4506 111.999 13.7464 110.422 12.1689Z" fill="#1A1A1A"/>
<path d="M22.0844 24.1133C20.2816 25.9161 17.5774 27.0429 14.6478 27.0429C9.01403 27.0429 4.95771 22.5359 4.95771 16.4514C4.95771 10.3669 9.01402 5.85991 14.8731 5.85991C17.5773 5.85991 20.2816 6.98666 22.3097 9.01482L22.9858 9.69087L26.366 6.31061L25.69 5.63456C22.7604 2.705 18.9295 1.12754 14.8731 1.12754C6.30982 0.902193 0 7.66271 0 16.4514C0 25.2401 6.30982 32.0006 14.6478 32.0006C18.7041 32.0006 22.7604 30.4231 25.4646 27.4936L26.1407 26.8175L22.7604 23.4373L22.0844 24.1133Z" fill="#1A1A1A"/>
<path d="M83.3798 24.5643C85.3711 24.5643 86.9854 22.95 86.9854 20.9586C86.9854 18.9673 85.3711 17.353 83.3798 17.353C81.3885 17.353 79.7742 18.9673 79.7742 20.9586C79.7742 22.95 81.3885 24.5643 83.3798 24.5643Z" fill="#EF4335"/>
<path d="M135.129 0.0990999C135.204 -0.0330328 135.394 -0.0330335 135.468 0.0990992L137.418 3.55802C137.446 3.60731 137.494 3.64208 137.549 3.65327L141.441 4.43858C141.59 4.46858 141.649 4.64954 141.546 4.7612L138.859 7.68424C138.821 7.7259 138.802 7.78215 138.809 7.83836L139.265 11.7826C139.282 11.9333 139.128 12.0451 138.99 11.982L135.38 10.3296C135.328 10.3061 135.269 10.3061 135.218 10.3296L131.607 11.982C131.469 12.0451 131.316 11.9333 131.333 11.7826L131.789 7.83836C131.795 7.78215 131.777 7.7259 131.739 7.68424L129.052 4.7612C128.949 4.64954 129.008 4.46858 129.156 4.43858L133.048 3.65327C133.104 3.64208 133.152 3.60731 133.18 3.55802L135.129 0.0990999Z" fill="#FDDD0A"/>
<path d="M153.129 0.0990999C153.204 -0.0330328 153.394 -0.0330335 153.468 0.0990992L155.418 3.55802C155.446 3.60731 155.494 3.64208 155.549 3.65327L159.441 4.43858C159.59 4.46858 159.649 4.64954 159.546 4.7612L156.859 7.68424C156.821 7.7259 156.802 7.78215 156.809 7.83836L157.265 11.7826C157.282 11.9333 157.128 12.0451 156.99 11.982L153.38 10.3296C153.328 10.3061 153.269 10.3061 153.218 10.3296L149.607 11.982C149.469 12.0451 149.316 11.9333 149.333 11.7826L149.789 7.83836C149.795 7.78215 149.777 7.7259 149.739 7.68424L147.052 4.7612C146.949 4.64954 147.008 4.46858 147.156 4.43858L151.048 3.65327C151.104 3.64208 151.152 3.60731 151.18 3.55802L153.129 0.0990999Z" fill="#FDDD0A"/>
<path d="M171.129 0.0990999C171.204 -0.0330328 171.394 -0.0330335 171.468 0.0990992L173.418 3.55802C173.446 3.60731 173.494 3.64208 173.549 3.65327L177.441 4.43858C177.59 4.46858 177.649 4.64954 177.546 4.7612L174.859 7.68424C174.821 7.7259 174.802 7.78215 174.809 7.83836L175.265 11.7826C175.282 11.9333 175.128 12.0451 174.99 11.982L171.38 10.3296C171.328 10.3061 171.269 10.3061 171.218 10.3296L167.607 11.982C167.469 12.0451 167.316 11.9333 167.333 11.7826L167.789 7.83836C167.795 7.78215 167.777 7.7259 167.739 7.68424L165.052 4.7612C164.949 4.64954 165.008 4.46858 165.156 4.43858L169.048 3.65327C169.104 3.64208 169.152 3.60731 169.18 3.55802L171.129 0.0990999Z" fill="#FDDD0A"/>
<path d="M129.504 32V30.936L132.962 27.408C133.886 26.484 134.348 25.6907 134.348 25.028C134.348 24.4773 134.18 24.048 133.844 23.74C133.508 23.432 133.097 23.278 132.612 23.278C131.688 23.278 131.016 23.7167 130.596 24.594L129.504 23.95C129.812 23.3153 130.237 22.8347 130.778 22.508C131.329 22.1813 131.935 22.018 132.598 22.018C133.419 22.018 134.133 22.2887 134.74 22.83C135.347 23.3713 135.65 24.0993 135.65 25.014C135.65 26.0033 135.067 27.0813 133.9 28.248L131.394 30.74H135.832V32H129.504ZM143.442 30.796C142.779 31.72 141.851 32.182 140.656 32.182C139.461 32.182 138.533 31.72 137.87 30.796C137.207 29.872 136.876 28.64 136.876 27.1C136.876 25.56 137.207 24.328 137.87 23.404C138.533 22.48 139.461 22.018 140.656 22.018C141.851 22.018 142.779 22.48 143.442 23.404C144.105 24.328 144.436 25.56 144.436 27.1C144.436 28.64 144.105 29.872 143.442 30.796ZM138.822 29.914C139.251 30.5767 139.863 30.908 140.656 30.908C141.449 30.908 142.061 30.5767 142.49 29.914C142.929 29.2513 143.148 28.3133 143.148 27.1C143.148 25.8867 142.929 24.9487 142.49 24.286C142.061 23.614 141.449 23.278 140.656 23.278C139.863 23.278 139.251 23.6093 138.822 24.272C138.393 24.9347 138.178 25.8773 138.178 27.1C138.178 28.3133 138.393 29.2513 138.822 29.914ZM146.335 32.154C146.083 32.154 145.868 32.0653 145.691 31.888C145.513 31.7107 145.425 31.496 145.425 31.244C145.425 30.992 145.513 30.7773 145.691 30.6C145.868 30.4227 146.083 30.334 146.335 30.334C146.596 30.334 146.811 30.4227 146.979 30.6C147.156 30.7773 147.245 30.992 147.245 31.244C147.245 31.496 147.156 31.7107 146.979 31.888C146.811 32.0653 146.596 32.154 146.335 32.154ZM150.817 22.2H151.937V32H150.649V23.6L148.563 24.216L148.241 23.096L150.817 22.2ZM153.539 32V30.936L156.997 27.408C157.921 26.484 158.383 25.6907 158.383 25.028C158.383 24.4773 158.215 24.048 157.879 23.74C157.543 23.432 157.132 23.278 156.647 23.278C155.723 23.278 155.051 23.7167 154.631 24.594L153.539 23.95C153.847 23.3153 154.272 22.8347 154.813 22.508C155.364 22.1813 155.97 22.018 156.633 22.018C157.454 22.018 158.168 22.2887 158.775 22.83C159.382 23.3713 159.685 24.0993 159.685 25.014C159.685 26.0033 159.102 27.0813 157.935 28.248L155.429 30.74H159.867V32H153.539ZM162.112 32.154C161.86 32.154 161.645 32.0653 161.468 31.888C161.291 31.7107 161.202 31.496 161.202 31.244C161.202 30.992 161.291 30.7773 161.468 30.6C161.645 30.4227 161.86 30.334 162.112 30.334C162.373 30.334 162.588 30.4227 162.756 30.6C162.933 30.7773 163.022 30.992 163.022 31.244C163.022 31.496 162.933 31.7107 162.756 31.888C162.588 32.0653 162.373 32.154 162.112 32.154ZM164.326 32V30.936L167.784 27.408C168.708 26.484 169.17 25.6907 169.17 25.028C169.17 24.4773 169.002 24.048 168.666 23.74C168.33 23.432 167.92 23.278 167.434 23.278C166.51 23.278 165.838 23.7167 165.418 24.594L164.326 23.95C164.634 23.3153 165.059 22.8347 165.6 22.508C166.151 22.1813 166.758 22.018 167.42 22.018C168.242 22.018 168.956 22.2887 169.562 22.83C170.169 23.3713 170.472 24.0993 170.472 25.014C170.472 26.0033 169.889 27.0813 168.722 28.248L166.216 30.74H170.654V32H164.326ZM178.264 30.796C177.602 31.72 176.673 32.182 175.478 32.182C174.284 32.182 173.355 31.72 172.692 30.796C172.03 29.872 171.698 28.64 171.698 27.1C171.698 25.56 172.03 24.328 172.692 23.404C173.355 22.48 174.284 22.018 175.478 22.018C176.673 22.018 177.602 22.48 178.264 23.404C178.927 24.328 179.258 25.56 179.258 27.1C179.258 28.64 178.927 29.872 178.264 30.796ZM173.644 29.914C174.074 30.5767 174.685 30.908 175.478 30.908C176.272 30.908 176.883 30.5767 177.312 29.914C177.751 29.2513 177.97 28.3133 177.97 27.1C177.97 25.8867 177.751 24.9487 177.312 24.286C176.883 23.614 176.272 23.278 175.478 23.278C174.685 23.278 174.074 23.6093 173.644 24.272C173.215 24.9347 173 25.8773 173 27.1C173 28.3133 173.215 29.2513 173.644 29.914ZM180.213 32V30.936L183.671 27.408C184.595 26.484 185.057 25.6907 185.057 25.028C185.057 24.4773 184.889 24.048 184.553 23.74C184.217 23.432 183.806 23.278 183.321 23.278C182.397 23.278 181.725 23.7167 181.305 24.594L180.213 23.95C180.521 23.3153 180.946 22.8347 181.487 22.508C182.038 22.1813 182.644 22.018 183.307 22.018C184.128 22.018 184.842 22.2887 185.449 22.83C186.056 23.3713 186.359 24.0993 186.359 25.014C186.359 26.0033 185.776 27.0813 184.609 28.248L182.103 30.74H186.541V32H180.213ZM194.151 30.796C193.488 31.72 192.56 32.182 191.365 32.182C190.17 32.182 189.242 31.72 188.579 30.796C187.916 29.872 187.585 28.64 187.585 27.1C187.585 25.56 187.916 24.328 188.579 23.404C189.242 22.48 190.17 22.018 191.365 22.018C192.56 22.018 193.488 22.48 194.151 23.404C194.814 24.328 195.145 25.56 195.145 27.1C195.145 28.64 194.814 29.872 194.151 30.796ZM189.531 29.914C189.96 30.5767 190.572 30.908 191.365 30.908C192.158 30.908 192.77 30.5767 193.199 29.914C193.638 29.2513 193.857 28.3133 193.857 27.1C193.857 25.8867 193.638 24.9487 193.199 24.286C192.77 23.614 192.158 23.278 191.365 23.278C190.572 23.278 189.96 23.6093 189.531 24.272C189.102 24.9347 188.887 25.8773 188.887 27.1C188.887 28.3133 189.102 29.2513 189.531 29.914Z" fill="#1A1A1A"/>
<path d="M189.129 0.0990999C189.204 -0.0330328 189.394 -0.0330335 189.468 0.0990992L191.418 3.55802C191.446 3.60731 191.494 3.64208 191.549 3.65327L195.441 4.43858C195.59 4.46858 195.649 4.64954 195.546 4.7612L192.859 7.68424C192.821 7.7259 192.802 7.78215 192.809 7.83836L193.265 11.7826C193.282 11.9333 193.128 12.0451 192.99 11.982L189.38 10.3296C189.328 10.3061 189.269 10.3061 189.218 10.3296L185.607 11.982C185.469 12.0451 185.316 11.9333 185.333 11.7826L185.789 7.83836C185.795 7.78215 185.777 7.7259 185.739 7.68424L183.052 4.7612C182.949 4.64954 183.008 4.46858 183.156 4.43858L187.048 3.65327C187.104 3.64208 187.152 3.60731 187.18 3.55802L189.129 0.0990999Z" fill="#FDDD0A"/>
<path d="M207.129 0.0990999C207.204 -0.0330328 207.394 -0.0330335 207.468 0.0990992L209.418 3.55802C209.446 3.60731 209.494 3.64208 209.549 3.65327L213.441 4.43858C213.59 4.46858 213.649 4.64954 213.546 4.7612L210.859 7.68424C210.821 7.7259 210.802 7.78215 210.809 7.83836L211.265 11.7826C211.282 11.9333 211.128 12.0451 210.99 11.982L207.38 10.3296C207.328 10.3061 207.269 10.3061 207.218 10.3296L203.607 11.982C203.469 12.0451 203.316 11.9333 203.333 11.7826L203.789 7.83836C203.795 7.78215 203.777 7.7259 203.739 7.68424L201.052 4.7612C200.949 4.64954 201.008 4.46858 201.156 4.43858L205.048 3.65327C205.104 3.64208 205.152 3.60731 205.18 3.55802L207.129 0.0990999Z" fill="#FDDD0A"/>
<rect x="244" y="5" width="24" height="24" rx="12" fill="#0077B5"/>
<path d="M262.662 22.6623C261.875 22.6435 261.106 22.6435 260.319 22.6623C260.15 22.6623 260.112 22.6248 260.112 22.456C260.112 21.0685 260.112 19.6623 260.112 18.2748C260.112 17.956 260.094 17.6373 260 17.3373C259.719 16.3623 258.594 16.006 257.787 16.6623C257.356 16.9998 257.187 17.4685 257.187 18.031C257.187 19.3435 257.187 20.656 257.187 21.9685C257.187 22.1373 257.169 22.306 257.187 22.4935C257.206 22.6435 257.131 22.681 257 22.6623C256.194 22.6623 255.406 22.6623 254.6 22.6623C254.45 22.6623 254.412 22.6248 254.412 22.4748C254.431 21.2935 254.431 20.1123 254.431 18.9123C254.431 17.4498 254.431 15.9873 254.412 14.5435C254.412 14.3748 254.45 14.3373 254.6 14.3373C255.406 14.3373 256.194 14.3373 257 14.3373C257.15 14.3373 257.187 14.3748 257.187 14.5248C257.187 14.8248 257.187 15.1248 257.187 15.481C257.244 15.4248 257.262 15.406 257.281 15.3873C258.012 14.3185 259.044 14.0185 260.262 14.206C261.669 14.431 262.569 15.406 262.794 16.906C262.85 17.2623 262.869 17.6185 262.869 17.9748C262.869 19.4748 262.869 20.956 262.869 22.456C262.869 22.606 262.831 22.6623 262.662 22.6623Z" fill="white"/>
<path d="M252.912 18.5004C252.912 19.8129 252.912 21.1254 252.912 22.4379C252.912 22.6066 252.875 22.6629 252.706 22.6629C251.919 22.6441 251.131 22.6629 250.344 22.6629C250.194 22.6629 250.156 22.6254 250.156 22.4754C250.156 19.8316 250.156 17.1691 250.156 14.5254C250.156 14.3941 250.194 14.3379 250.344 14.3379C251.15 14.3379 251.956 14.3379 252.762 14.3379C252.931 14.3379 252.95 14.3941 252.95 14.5441C252.912 15.8566 252.912 17.1691 252.912 18.5004Z" fill="white"/>
<path d="M253.044 12.1628C252.856 12.9128 252.087 13.344 251.206 13.194C250.269 13.044 249.744 12.1253 250.081 11.2253C250.306 10.6628 250.85 10.3253 251.544 10.344C252.594 10.3253 253.287 11.169 253.044 12.1628Z" fill="white"/>
</svg>
