<svg width="102" height="61" viewBox="0 0 102 61" fill="none" xmlns="http://www.w3.org/2000/svg">
<path d="M8.66203 58L5.99303 53.444H3.18803V58H1.60703V46.1H6.36703C7.38703 46.1 8.2597 46.4627 8.98503 47.188C9.71036 47.902 10.073 48.769 10.073 49.789C10.073 50.5597 9.8407 51.2623 9.37603 51.897C8.9227 52.5317 8.33336 52.9793 7.60803 53.24L10.413 58H8.66203ZM3.18803 47.579V52.016H6.36703C6.95636 52.016 7.45503 51.8007 7.86303 51.37C8.28236 50.928 8.49203 50.401 8.49203 49.789C8.49203 49.177 8.28236 48.6557 7.86303 48.225C7.45503 47.7943 6.95636 47.579 6.36703 47.579H3.18803ZM12.452 54.43C12.5993 55.1893 12.945 55.7787 13.489 56.198C14.0443 56.6173 14.7243 56.827 15.529 56.827C16.651 56.827 17.467 56.4133 17.977 55.586L19.235 56.3C18.4076 57.5807 17.161 58.221 15.495 58.221C14.1463 58.221 13.047 57.8017 12.197 56.963C11.3583 56.113 10.939 55.042 10.939 53.75C10.939 52.4693 11.3526 51.404 12.18 50.554C13.0073 49.704 14.0783 49.279 15.393 49.279C16.6396 49.279 17.654 49.721 18.436 50.605C19.2293 51.4777 19.626 52.5317 19.626 53.767C19.626 53.9823 19.609 54.2033 19.575 54.43H12.452ZM15.393 50.673C14.5996 50.673 13.9423 50.8997 13.421 51.353C12.8996 51.795 12.5766 52.39 12.452 53.138H18.13C18.0053 52.3333 17.688 51.7213 17.178 51.302C16.668 50.8827 16.073 50.673 15.393 50.673ZM28.3475 49.5H29.8265V58H28.3475V56.538C27.6108 57.66 26.5398 58.221 25.1345 58.221C23.9445 58.221 22.9302 57.7903 22.0915 56.929C21.2528 56.0563 20.8335 54.9967 20.8335 53.75C20.8335 52.5033 21.2528 51.4493 22.0915 50.588C22.9302 49.7153 23.9445 49.279 25.1345 49.279C26.5398 49.279 27.6108 49.84 28.3475 50.962V49.5ZM25.3215 56.793C26.1828 56.793 26.9025 56.504 27.4805 55.926C28.0585 55.3367 28.3475 54.6113 28.3475 53.75C28.3475 52.8887 28.0585 52.169 27.4805 51.591C26.9025 51.0017 26.1828 50.707 25.3215 50.707C24.4715 50.707 23.7575 51.0017 23.1795 51.591C22.6015 52.169 22.3125 52.8887 22.3125 53.75C22.3125 54.6113 22.6015 55.3367 23.1795 55.926C23.7575 56.504 24.4715 56.793 25.3215 56.793ZM36.0623 58.221C34.7816 58.221 33.7163 57.796 32.8663 56.946C32.0163 56.0847 31.5913 55.0193 31.5913 53.75C31.5913 52.4807 32.0163 51.421 32.8663 50.571C33.7163 49.7097 34.7816 49.279 36.0623 49.279C36.901 49.279 37.6546 49.483 38.3233 49.891C38.992 50.2877 39.4906 50.826 39.8193 51.506L38.5783 52.22C38.363 51.7667 38.0286 51.404 37.5753 51.132C37.1333 50.86 36.629 50.724 36.0623 50.724C35.2123 50.724 34.4983 51.013 33.9203 51.591C33.3536 52.169 33.0703 52.8887 33.0703 53.75C33.0703 54.6 33.3536 55.314 33.9203 55.892C34.4983 56.47 35.2123 56.759 36.0623 56.759C36.629 56.759 37.139 56.6287 37.5923 56.368C38.0456 56.096 38.3913 55.7333 38.6293 55.28L39.8873 56.011C39.5246 56.6797 39.0033 57.218 38.3233 57.626C37.6433 58.0227 36.8896 58.221 36.0623 58.221ZM45.9716 50.928H43.7106V55.535C43.7106 55.9543 43.7899 56.2547 43.9486 56.436C44.1186 56.606 44.3736 56.6967 44.7136 56.708C45.0536 56.708 45.4729 56.6967 45.9716 56.674V58C44.6796 58.17 43.7333 58.068 43.1326 57.694C42.5319 57.3087 42.2316 56.589 42.2316 55.535V50.928H40.5486V49.5H42.2316V47.562L43.7106 47.12V49.5H45.9716V50.928ZM59.5704 46.1H61.1514V58H59.8764L53.7564 49.109V58H52.1754V46.1H53.4504L59.5704 54.974V46.1ZM70.5819 49.5H72.0609V58H70.5819V56.538C69.8452 57.66 68.7742 58.221 67.3689 58.221C66.1789 58.221 65.1645 57.7903 64.3259 56.929C63.4872 56.0563 63.0679 54.9967 63.0679 53.75C63.0679 52.5033 63.4872 51.4493 64.3259 50.588C65.1645 49.7153 66.1789 49.279 67.3689 49.279C68.7742 49.279 69.8452 49.84 70.5819 50.962V49.5ZM67.5559 56.793C68.4172 56.793 69.1369 56.504 69.7149 55.926C70.2929 55.3367 70.5819 54.6113 70.5819 53.75C70.5819 52.8887 70.2929 52.169 69.7149 51.591C69.1369 51.0017 68.4172 50.707 67.5559 50.707C66.7059 50.707 65.9919 51.0017 65.4139 51.591C64.8359 52.169 64.5469 52.8887 64.5469 53.75C64.5469 54.6113 64.8359 55.3367 65.4139 55.926C65.9919 56.504 66.7059 56.793 67.5559 56.793ZM78.9257 50.928H76.6647V55.535C76.6647 55.9543 76.744 56.2547 76.9027 56.436C77.0727 56.606 77.3277 56.6967 77.6677 56.708C78.0077 56.708 78.427 56.6967 78.9257 56.674V58C77.6337 58.17 76.6874 58.068 76.0867 57.694C75.486 57.3087 75.1857 56.589 75.1857 55.535V50.928H73.5027V49.5H75.1857V47.562L76.6647 47.12V49.5H78.9257V50.928ZM81.4247 47.953C81.1414 47.953 80.9034 47.8567 80.7107 47.664C80.518 47.4713 80.4217 47.239 80.4217 46.967C80.4217 46.695 80.518 46.4627 80.7107 46.27C80.9034 46.066 81.1414 45.964 81.4247 45.964C81.6967 45.964 81.929 46.066 82.1217 46.27C82.3144 46.4627 82.4107 46.695 82.4107 46.967C82.4107 47.239 82.3144 47.4713 82.1217 47.664C81.929 47.8567 81.6967 47.953 81.4247 47.953ZM80.6767 58V49.5H82.1557V58H80.6767ZM90.362 49.5H91.96L88.56 58H86.826L83.426 49.5H85.024L87.693 56.419L90.362 49.5ZM93.9158 54.43C94.0632 55.1893 94.4088 55.7787 94.9528 56.198C95.5082 56.6173 96.1882 56.827 96.9928 56.827C98.1148 56.827 98.9308 56.4133 99.4408 55.586L100.699 56.3C99.8715 57.5807 98.6248 58.221 96.9588 58.221C95.6102 58.221 94.5108 57.8017 93.6608 56.963C92.8222 56.113 92.4028 55.042 92.4028 53.75C92.4028 52.4693 92.8165 51.404 93.6438 50.554C94.4712 49.704 95.5422 49.279 96.8568 49.279C98.1035 49.279 99.1178 49.721 99.8998 50.605C100.693 51.4777 101.09 52.5317 101.09 53.767C101.09 53.9823 101.073 54.2033 101.039 54.43H93.9158ZM96.8568 50.673C96.0635 50.673 95.4062 50.8997 94.8848 51.353C94.3635 51.795 94.0405 52.39 93.9158 53.138H99.5938C99.4692 52.3333 99.1518 51.7213 98.6418 51.302C98.1318 50.8827 97.5368 50.673 96.8568 50.673Z" fill="#212121"/>
<path d="M67.6873 15.0034C67.6873 12.7718 64.8927 10.6569 60.6079 9.34539C61.5967 4.97826 61.1572 1.50378 59.2209 0.391394C58.7745 0.130464 58.2527 0.00686645 57.6828 0.00686645V1.53811C57.9986 1.53811 58.2527 1.59991 58.4655 1.71664C59.3994 2.25223 59.8045 4.2916 59.4887 6.91463C59.4131 7.56008 59.2895 8.23987 59.1385 8.93339C57.7926 8.6038 56.3232 8.34974 54.7782 8.18494C53.8512 6.91463 52.8899 5.76104 51.9217 4.75166C54.1602 2.67109 56.2614 1.53124 57.6896 1.53124V0C55.8013 0 53.3294 1.34585 50.8299 3.68048C48.3305 1.35958 45.8585 0.0274663 43.9702 0.0274663V1.55871C45.3916 1.55871 47.4997 2.69169 49.7382 4.75853C48.7768 5.76791 47.8155 6.91463 46.9023 8.18494C45.3504 8.34974 43.881 8.6038 42.5351 8.94026C42.3772 8.2536 42.2605 7.58755 42.1781 6.94896C41.8553 4.32593 42.2536 2.28656 43.1806 1.74411C43.3866 1.62051 43.6544 1.56558 43.9702 1.56558V0.0343328C43.3935 0.0343328 42.8716 0.157931 42.4184 0.41886C40.4889 1.53124 40.0563 4.99886 41.052 9.35225C36.781 10.6706 34 12.7787 34 15.0034C34 17.2351 36.7947 19.35 41.0794 20.6615C40.0906 25.0286 40.5301 28.5031 42.4665 29.6155C42.9128 29.8764 43.4347 30 44.0114 30C45.8997 30 48.3717 28.6542 50.8711 26.3195C53.3706 28.6404 55.8425 29.9725 57.7308 29.9725C58.3076 29.9725 58.8295 29.8489 59.2827 29.588C61.2122 28.4756 61.6448 25.008 60.6491 20.6546C64.9064 19.3431 67.6873 17.2282 67.6873 15.0034ZM58.7471 10.4234C58.493 11.3092 58.1772 12.2225 57.8201 13.1357C57.5386 12.5864 57.2433 12.0371 56.9206 11.4878C56.6047 10.9384 56.2683 10.4028 55.9318 9.88098C56.9068 10.0252 57.8476 10.2037 58.7471 10.4234ZM55.6022 17.7363C55.0666 18.6633 54.5173 19.5422 53.9474 20.3593C52.9242 20.4486 51.8874 20.4967 50.8437 20.4967C49.8068 20.4967 48.77 20.4486 47.7537 20.3662C47.1838 19.5491 46.6276 18.677 46.092 17.7569C45.5702 16.8574 45.0964 15.9441 44.6638 15.024C45.0895 14.1039 45.5702 13.1838 46.0851 12.2843C46.6207 11.3573 47.1701 10.4784 47.74 9.66125C48.7631 9.57198 49.8 9.52392 50.8437 9.52392C51.8805 9.52392 52.9174 9.57198 53.9336 9.65438C54.5035 10.4715 55.0597 11.3436 55.5953 12.2637C56.1172 13.1632 56.591 14.0764 57.0236 14.9966C56.591 15.9167 56.1172 16.8368 55.6022 17.7363ZM57.8201 16.8437C58.1909 17.7638 58.5068 18.6839 58.7677 19.5766C57.8682 19.7963 56.9206 19.9817 55.9387 20.1259C56.2751 19.5972 56.6116 19.0547 56.9274 18.4985C57.2433 17.9492 57.5386 17.393 57.8201 16.8437ZM50.8574 24.1703C50.2188 23.5111 49.5802 22.7764 48.9485 21.973C49.5665 22.0005 50.1982 22.0211 50.8368 22.0211C51.4823 22.0211 52.1208 22.0073 52.7457 21.973C52.1277 22.7764 51.4891 23.5111 50.8574 24.1703ZM45.7487 20.1259C44.7736 19.9817 43.8329 19.8032 42.9334 19.5834C43.1875 18.6976 43.5033 17.7844 43.8604 16.8711C44.1419 17.4205 44.4372 17.9698 44.7599 18.5191C45.0826 19.0684 45.4122 19.604 45.7487 20.1259ZM50.8231 5.83658C51.4617 6.49577 52.1003 7.23049 52.732 8.03387C52.114 8.00641 51.4823 7.98581 50.8437 7.98581C50.1982 7.98581 49.5596 7.99954 48.9348 8.03387C49.5528 7.23049 50.1913 6.49577 50.8231 5.83658ZM45.7418 9.88098C45.4054 10.4097 45.0689 10.9522 44.753 11.5084C44.4372 12.0577 44.1419 12.607 43.8604 13.1563C43.4896 12.2362 43.1737 11.3161 42.9128 10.4234C43.8123 10.2106 44.7599 10.0252 45.7418 9.88098ZM39.5276 18.4779C37.0968 17.4411 35.5244 16.0815 35.5244 15.0034C35.5244 13.9254 37.0968 12.5589 39.5276 11.529C40.1181 11.2749 40.7636 11.0483 41.4296 10.8354C41.821 12.1813 42.336 13.5821 42.9746 15.0172C42.3429 16.4454 41.8347 17.8393 41.4502 19.1783C40.7704 18.9654 40.125 18.732 39.5276 18.4779ZM43.2218 28.2902C42.2879 27.7546 41.8828 25.7153 42.1987 23.0922C42.2742 22.4468 42.3978 21.767 42.5489 21.0735C43.8947 21.4031 45.3642 21.6571 46.9091 21.8219C47.8361 23.0922 48.7974 24.2458 49.7656 25.2552C47.5271 27.3358 45.426 28.4756 43.9977 28.4756C43.6887 28.4688 43.4278 28.407 43.2218 28.2902ZM59.5093 23.0579C59.832 25.6809 59.4337 27.7203 58.5067 28.2628C58.3008 28.3864 58.033 28.4413 57.7171 28.4413C56.2957 28.4413 54.1877 27.3083 51.9492 25.2415C52.9105 24.2321 53.8718 23.0854 54.7851 21.8151C56.3369 21.6503 57.8064 21.3962 59.1522 21.0597C59.3101 21.7533 59.4337 22.4193 59.5093 23.0579ZM62.1529 18.4779C61.5624 18.732 60.9169 18.9586 60.2509 19.1714C59.8595 17.8256 59.3445 16.4248 58.7059 14.9897C59.3376 13.5615 59.8457 12.1675 60.2303 10.8286C60.91 11.0414 61.5555 11.2749 62.1598 11.529C64.5905 12.5658 66.163 13.9254 66.163 15.0034C66.1561 16.0815 64.5837 17.4479 62.1529 18.4779Z" fill="#212121"/>
<path d="M50.8368 18.1415C52.5699 18.1415 53.9748 16.7365 53.9748 15.0034C53.9748 13.2704 52.5699 11.8654 50.8368 11.8654C49.1037 11.8654 47.6988 13.2704 47.6988 15.0034C47.6988 16.7365 49.1037 18.1415 50.8368 18.1415Z" fill="#212121"/>
</svg>
