<svg width="49" height="61" viewBox="0 0 49 61" fill="none" xmlns="http://www.w3.org/2000/svg">
<path d="M8.351 58L5.682 53.444H2.877V58H1.296V46.1H6.056C7.076 46.1 7.94866 46.4627 8.674 47.188C9.39933 47.902 9.762 48.769 9.762 49.789C9.762 50.5597 9.52966 51.2623 9.065 51.897C8.61166 52.5317 8.02233 52.9793 7.297 53.24L10.102 58H8.351ZM2.877 47.579V52.016H6.056C6.64533 52.016 7.144 51.8007 7.552 51.37C7.97133 50.928 8.181 50.401 8.181 49.789C8.181 49.177 7.97133 48.6557 7.552 48.225C7.144 47.7943 6.64533 47.579 6.056 47.579H2.877ZM12.1409 54.43C12.2883 55.1893 12.6339 55.7787 13.1779 56.198C13.7333 56.6173 14.4133 56.827 15.2179 56.827C16.3399 56.827 17.1559 56.4133 17.6659 55.586L18.9239 56.3C18.0966 57.5807 16.8499 58.221 15.1839 58.221C13.8353 58.221 12.7359 57.8017 11.8859 56.963C11.0473 56.113 10.6279 55.042 10.6279 53.75C10.6279 52.4693 11.0416 51.404 11.8689 50.554C12.6963 49.704 13.7673 49.279 15.0819 49.279C16.3286 49.279 17.3429 49.721 18.1249 50.605C18.9183 51.4777 19.3149 52.5317 19.3149 53.767C19.3149 53.9823 19.2979 54.2033 19.2639 54.43H12.1409ZM15.0819 50.673C14.2886 50.673 13.6313 50.8997 13.1099 51.353C12.5886 51.795 12.2656 52.39 12.1409 53.138H17.8189C17.6943 52.3333 17.3769 51.7213 16.8669 51.302C16.3569 50.8827 15.7619 50.673 15.0819 50.673ZM28.0365 46.1H29.5155V58H28.0365V56.538C27.2998 57.66 26.2288 58.221 24.8235 58.221C23.6335 58.221 22.6191 57.7903 21.7805 56.929C20.9418 56.0563 20.5225 54.9967 20.5225 53.75C20.5225 52.5033 20.9418 51.4493 21.7805 50.588C22.6191 49.7153 23.6335 49.279 24.8235 49.279C26.2288 49.279 27.2998 49.84 28.0365 50.962V46.1ZM25.0105 56.793C25.8718 56.793 26.5915 56.504 27.1695 55.926C27.7475 55.3367 28.0365 54.6113 28.0365 53.75C28.0365 52.8887 27.7475 52.169 27.1695 51.591C26.5915 51.0017 25.8718 50.707 25.0105 50.707C24.1605 50.707 23.4465 51.0017 22.8685 51.591C22.2905 52.169 22.0015 52.8887 22.0015 53.75C22.0015 54.6113 22.2905 55.3367 22.8685 55.926C23.4465 56.504 24.1605 56.793 25.0105 56.793ZM37.6213 49.5H39.1003V58H37.6213V56.776C37.0206 57.7393 36.1026 58.221 34.8673 58.221C33.8699 58.221 33.0709 57.9093 32.4703 57.286C31.8696 56.6513 31.5693 55.7957 31.5693 54.719V49.5H33.0483V54.634C33.0483 55.3253 33.2353 55.8637 33.6093 56.249C33.9833 56.623 34.4989 56.81 35.1563 56.81C35.8929 56.81 36.4879 56.5833 36.9413 56.13C37.3946 55.6653 37.6213 54.957 37.6213 54.005V49.5ZM48.73 58H46.996L44.616 54.787L42.219 58H40.485L43.749 53.631L40.672 49.5H42.423L44.616 52.458L46.809 49.5H48.543L45.483 53.614L48.73 58Z" fill="#212121"/>
<path d="M29.9521 20.9518C31.1212 20.831 32.0082 19.8257 31.9678 18.6192C31.9276 17.4129 30.9196 16.4477 29.7101 16.4477H29.6296C28.3796 16.4879 27.4121 17.5335 27.4524 18.7801C27.4928 19.3833 27.7346 19.9061 28.0975 20.268C26.7267 22.9625 24.6303 24.9329 21.4856 26.5817C19.3489 27.7077 17.1315 28.1099 14.9142 27.8285C13.0999 27.5871 11.6888 26.7829 10.8017 25.4557C9.51169 23.4852 9.39078 21.3538 10.4793 19.2225C11.2454 17.6943 12.4547 16.5683 13.2208 16.0053C13.0595 15.4825 12.8176 14.5978 12.6967 13.9545C6.85079 18.177 7.45559 23.8874 9.22952 26.5817C10.5599 28.5925 13.2611 29.8392 16.2445 29.8392C17.0508 29.8392 17.8571 29.7587 18.6635 29.5577C23.824 28.5523 27.7347 25.4959 29.9521 20.9518ZM37.0478 15.9652C33.9837 12.386 29.4683 10.4156 24.3078 10.4156H23.6628C23.2999 9.69173 22.5339 9.20908 21.6872 9.20908H21.6066C20.3569 9.24932 19.3893 10.2949 19.4295 11.5416C19.4699 12.748 20.4778 13.7131 21.6872 13.7131H21.7678C22.6548 13.6729 23.4208 13.1099 23.7433 12.3458H24.469C27.5331 12.3458 30.4358 13.2305 33.0565 14.9598C35.0723 16.2869 36.5237 18.0161 37.33 20.1072C38.0153 21.7962 37.975 23.445 37.2493 24.8526C36.1205 26.9839 34.2256 28.1501 31.726 28.1501C30.1133 28.1501 28.5814 27.6675 27.775 27.3056C27.3315 27.7077 26.5251 28.3511 25.9607 28.7534C27.6944 29.5576 29.4683 30 31.1616 30C35.0319 30 37.8944 27.8686 38.983 25.7373C40.1521 23.4048 40.0714 19.3833 37.0478 15.9652ZM16.5671 21.6352C16.6074 22.8417 17.6153 23.8068 18.8247 23.8068H18.9054C20.1553 23.7667 21.1228 22.721 21.0824 21.4744C21.0422 20.2679 20.0342 19.3029 18.8247 19.3029H18.7442C18.6635 19.3029 18.5425 19.3029 18.462 19.343C16.809 16.6084 16.1236 13.6327 16.3656 10.4155C16.5267 8.00258 17.3331 5.9114 18.7442 4.18213C19.9133 2.69419 22.171 1.97034 23.7031 1.93022C27.9766 1.84974 29.7907 7.15801 29.9117 9.28944C30.4358 9.41004 31.3228 9.69161 31.9276 9.89269C31.4437 3.37805 27.4121 0 23.5419 0C19.9133 0 16.5671 2.61396 15.2365 6.47453C13.3821 11.622 14.5915 16.5683 16.8492 20.4691C16.6477 20.7506 16.5267 21.193 16.5671 21.6354V21.6352Z" fill="#212121"/>
</svg>
