<svg width="10" height="20" viewBox="0 0 10 20" fill="none" xmlns="http://www.w3.org/2000/svg">
<path d="M8.63637 4.54547V15C8.63637 17.0091 7.00909 18.6364 5.00002 18.6364C2.99096 18.6364 1.36363 17.0091 1.36363 15V3.63635C1.36363 2.38181 2.38179 1.36364 3.63634 1.36364C4.89089 1.36364 5.9091 2.38181 5.9091 3.63635V13.1818C5.9091 13.6818 5.50457 14.0909 5.00002 14.0909C4.49548 14.0909 4.09094 13.6818 4.09094 13.1818V4.54547H2.72731V13.1819C2.72731 14.4364 3.74547 15.4546 5.00002 15.4546C6.25457 15.4546 7.27274 14.4364 7.27274 13.1818V3.63635C7.27274 1.62729 5.64545 0 3.63638 0C1.62732 0 3.05176e-05 1.62729 3.05176e-05 3.63635V15C3.05176e-05 17.7636 2.24096 20 5.00002 20C7.75909 20 10 17.7636 10 15V4.54547H8.63637Z" fill="#1A1A1A"/>
</svg>
