<svg width="39" height="61" viewBox="0 0 39 61" fill="none" xmlns="http://www.w3.org/2000/svg">
<path d="M5.34259 58.221C4.23192 58.221 3.27992 57.9603 2.48659 57.439C1.70459 56.9177 1.15492 56.2037 0.837586 55.297L2.19759 54.515C2.66225 55.9543 3.72192 56.674 5.37659 56.674C6.19259 56.674 6.81592 56.5097 7.24659 56.181C7.67725 55.841 7.89259 55.3933 7.89259 54.838C7.89259 54.2713 7.67725 53.8463 7.24659 53.563C6.81592 53.2797 6.09625 52.9793 5.08759 52.662C4.58892 52.5033 4.20925 52.3787 3.94859 52.288C3.68792 52.186 3.35925 52.0387 2.96259 51.846C2.57725 51.642 2.28825 51.438 2.09559 51.234C1.90292 51.0187 1.72725 50.741 1.56859 50.401C1.42125 50.061 1.34759 49.6757 1.34759 49.245C1.34759 48.2137 1.71025 47.3977 2.43559 46.797C3.16092 46.185 4.04492 45.879 5.08759 45.879C6.02825 45.879 6.84425 46.117 7.53559 46.593C8.23825 47.069 8.76525 47.698 9.11659 48.48L7.79059 49.245C7.28059 48.021 6.37959 47.409 5.08759 47.409C4.44159 47.409 3.92025 47.5677 3.52359 47.885C3.12692 48.2023 2.92859 48.633 2.92859 49.177C2.92859 49.6983 3.11559 50.095 3.48959 50.367C3.86359 50.639 4.50959 50.9223 5.42759 51.217C5.75625 51.319 5.98859 51.3927 6.12459 51.438C6.26059 51.4833 6.47025 51.5627 6.75359 51.676C7.04825 51.7893 7.26359 51.88 7.39959 51.948C7.53559 52.016 7.71692 52.1123 7.94359 52.237C8.18159 52.3617 8.35725 52.4807 8.47059 52.594C8.58392 52.7073 8.71425 52.849 8.86159 53.019C9.02025 53.1777 9.13359 53.342 9.20159 53.512C9.26959 53.682 9.32625 53.8803 9.37159 54.107C9.42825 54.3223 9.45659 54.5547 9.45659 54.804C9.45659 55.8467 9.07692 56.6797 8.31759 57.303C7.55825 57.915 6.56659 58.221 5.34259 58.221ZM20.8567 49.5H22.4037L19.7687 58H18.2557L16.2667 51.71L14.2777 58H12.7647L10.1297 49.5H11.6767L13.5467 55.96L15.5527 49.5H16.9807L18.9867 55.977L20.8567 49.5ZM24.6737 47.953C24.3904 47.953 24.1524 47.8567 23.9597 47.664C23.767 47.4713 23.6707 47.239 23.6707 46.967C23.6707 46.695 23.767 46.4627 23.9597 46.27C24.1524 46.066 24.3904 45.964 24.6737 45.964C24.9457 45.964 25.178 46.066 25.3707 46.27C25.5634 46.4627 25.6597 46.695 25.6597 46.967C25.6597 47.239 25.5634 47.4713 25.3707 47.664C25.178 47.8567 24.9457 47.953 24.6737 47.953ZM23.9257 58V49.5H25.4047V58H23.9257ZM32.0301 47.307C30.5341 47.1823 29.7861 47.8283 29.7861 49.245V49.5H32.0301V50.928H29.7861V58H28.3071V50.928H26.9471V49.5H28.3071V49.245C28.3071 48.1003 28.6244 47.2333 29.2591 46.644C29.9051 46.0547 30.8287 45.7997 32.0301 45.879V47.307ZM38.0956 50.928H35.8346V55.535C35.8346 55.9543 35.9139 56.2547 36.0726 56.436C36.2426 56.606 36.4976 56.6967 36.8376 56.708C37.1776 56.708 37.5969 56.6967 38.0956 56.674V58C36.8036 58.17 35.8573 58.068 35.2566 57.694C34.6559 57.3087 34.3556 56.589 34.3556 55.535V50.928H32.6726V49.5H34.3556V47.562L35.8346 47.12V49.5H38.0956V50.928Z" fill="#212121"/>
<path fill-rule="evenodd" clip-rule="evenodd" d="M34.9842 7.40406C34.9919 7.70566 34.9963 8.00734 34.9975 8.30904H34.9969C34.9987 8.66787 34.9987 9.0261 34.9987 9.38434V20.6156C34.9987 20.6753 34.9987 20.735 34.9988 20.7947C34.9988 21.0937 34.9989 21.3923 34.9969 21.6909C34.9951 21.9928 34.9914 22.2946 34.9836 22.5959C34.966 23.2535 34.9272 23.9167 34.8102 24.5665C34.6914 25.2259 34.498 25.84 34.1925 26.44C33.5889 27.6262 32.6249 28.5905 31.4388 29.1944C30.8486 29.492 30.2174 29.7 29.5658 29.8114C28.9161 29.9284 28.2523 29.9666 27.5947 29.9848C27.2928 29.9927 26.9915 29.9963 26.6897 29.9981C26.3911 30.0001 26.0922 30 25.7938 30C25.7342 30 25.6746 29.9999 25.615 29.9999H14.3843C14.3245 29.9999 14.2647 30 14.2049 30C13.9061 30 13.6076 30.0001 13.3096 29.9981C13.0078 29.9963 12.7059 29.9927 12.4041 29.9848C11.747 29.9672 11.0833 29.9284 10.4335 29.8114C9.77339 29.6926 9.15997 29.4993 8.5605 29.1944C7.37418 28.5907 6.40985 27.6264 5.80617 26.44C5.50837 25.8493 5.30039 25.2174 5.18912 24.5652C5.07213 23.9161 5.03394 23.2529 5.01576 22.5953C5.00788 22.294 5.00424 21.9922 5.00182 21.6903C5 21.3321 5 20.9738 5 20.615V9.38434C5 9.0261 5 8.66787 5.00182 8.30904C5.00364 8.00778 5.00727 7.70653 5.01576 7.40345C5.03334 6.747 5.07213 6.08388 5.18912 5.43348C5.30732 4.77339 5.50068 4.15997 5.80617 3.55989C6.10632 2.97072 6.49743 2.43253 6.96512 1.96512C7.5515 1.37933 8.24745 0.914674 9.01329 0.597659C9.47039 0.410745 9.94635 0.27377 10.4329 0.189117C10.9208 0.101226 11.416 0.0575838 11.9101 0.0339441C12.0749 0.0260642 12.2398 0.0200028 12.4041 0.0157598C12.7059 0.00787988 13.0078 0.00424301 13.3096 0.00181843C13.6679 0 14.0255 0 14.3843 0H25.615C25.9738 0 26.3321 0 26.6903 0.00181843C26.9922 0.00363687 27.2934 0.00727374 27.5959 0.0157598C28.2529 0.033338 28.9161 0.0721313 29.5671 0.189117C30.2186 0.300566 30.8499 0.508538 31.44 0.806173C32.6258 1.41026 33.5896 2.37451 34.1932 3.5605C34.4911 4.15081 34.6993 4.7823 34.8108 5.43409C34.9278 6.08388 34.966 6.747 34.9842 7.40406ZM28.7694 18.5159L28.7712 18.5177L28.7718 18.5183C31.3491 21.6897 30.6478 25.0895 30.3175 24.4476C28.9706 21.8267 26.4606 22.4958 25.1895 23.1553C25.0846 23.2178 24.9767 23.2778 24.8682 23.3353C24.8614 23.3399 24.8539 23.3442 24.8466 23.3485C24.8402 23.3522 24.8339 23.3559 24.8282 23.3596L24.83 23.3566C22.1854 24.7616 18.6346 24.8659 15.0632 23.3311C12.1569 22.0725 9.69881 19.9649 8.01133 17.2848C8.83206 17.8917 9.7108 18.416 10.6347 18.8499C14.4086 20.6168 18.1988 20.4895 20.881 18.8481C17.0635 15.9119 13.8764 12.0883 11.433 8.98972C10.9633 8.43388 10.5353 7.85683 10.1759 7.25675C13.1017 9.9347 17.7242 13.2982 19.3826 14.2286C15.8621 10.5093 12.7605 5.92929 12.9059 6.07598C18.4497 11.6628 23.5656 14.8208 23.5656 14.8208C23.7188 14.9038 23.8689 14.9926 24.0154 15.0869C24.1202 14.8178 24.2148 14.5408 24.2936 14.2517C25.1792 11.0161 24.1833 7.31615 21.9296 4.26118C27.0716 7.34888 30.1108 13.2139 28.8657 18.1746C28.8428 18.264 28.8174 18.3512 28.7919 18.4385C28.7844 18.4642 28.7768 18.49 28.7694 18.5159Z" fill="#212121"/>
</svg>
