<svg width="46" height="65" viewBox="0 0 46 65" fill="none" xmlns="http://www.w3.org/2000/svg">
<path d="M5.34279 61L1.09279 49.1H2.79279L6.24379 59.028L9.67779 49.1H11.3948L7.12779 61H5.34279ZM17.9711 52.5H19.4501V61H17.9711V59.776C17.3705 60.7393 16.4525 61.221 15.2171 61.221C14.2198 61.221 13.4208 60.9093 12.8201 60.286C12.2195 59.6513 11.9191 58.7957 11.9191 57.719V52.5H13.3981V57.634C13.3981 58.3253 13.5851 58.8637 13.9591 59.249C14.3331 59.623 14.8488 59.81 15.5061 59.81C16.2428 59.81 16.8378 59.5833 17.2911 59.13C17.7445 58.6653 17.9711 57.957 17.9711 57.005V52.5ZM22.7388 57.43C22.8862 58.1893 23.2318 58.7787 23.7758 59.198C24.3312 59.6173 25.0112 59.827 25.8158 59.827C26.9378 59.827 27.7538 59.4133 28.2638 58.586L29.5218 59.3C28.6945 60.5807 27.4478 61.221 25.7818 61.221C24.4332 61.221 23.3338 60.8017 22.4838 59.963C21.6452 59.113 21.2258 58.042 21.2258 56.75C21.2258 55.4693 21.6395 54.404 22.4668 53.554C23.2942 52.704 24.3652 52.279 25.6798 52.279C26.9265 52.279 27.9408 52.721 28.7228 53.605C29.5162 54.4777 29.9128 55.5317 29.9128 56.767C29.9128 56.9823 29.8958 57.2033 29.8618 57.43H22.7388ZM25.6798 53.673C24.8865 53.673 24.2292 53.8997 23.7078 54.353C23.1865 54.795 22.8635 55.39 22.7388 56.138H28.4168C28.2922 55.3333 27.9748 54.7213 27.4648 54.302C26.9548 53.8827 26.3598 53.673 25.6798 53.673ZM31.8673 61.187C31.5613 61.187 31.3006 61.0793 31.0853 60.864C30.87 60.6487 30.7623 60.388 30.7623 60.082C30.7623 59.776 30.87 59.5153 31.0853 59.3C31.3006 59.0847 31.5613 58.977 31.8673 58.977C32.1846 58.977 32.4453 59.0847 32.6493 59.3C32.8646 59.5153 32.9723 59.776 32.9723 60.082C32.9723 60.388 32.8646 60.6487 32.6493 60.864C32.4453 61.0793 32.1846 61.187 31.8673 61.187ZM36.1881 50.953C35.9048 50.953 35.6668 50.8567 35.4741 50.664C35.2814 50.4713 35.1851 50.239 35.1851 49.967C35.1851 49.695 35.2814 49.4627 35.4741 49.27C35.6668 49.066 35.9048 48.964 36.1881 48.964C36.4601 48.964 36.6924 49.066 36.8851 49.27C37.0778 49.4627 37.1741 49.695 37.1741 49.967C37.1741 50.239 37.0778 50.4713 36.8851 50.664C36.6924 50.8567 36.4601 50.953 36.1881 50.953ZM35.4401 61.51V52.5H36.9191V61.51C36.9191 62.6093 36.6414 63.4197 36.0861 63.941C35.5308 64.4737 34.7148 64.7003 33.6381 64.621V63.193C34.2614 63.2497 34.7148 63.1477 34.9981 62.887C35.2928 62.6263 35.4401 62.1673 35.4401 61.51ZM40.4251 54.795C40.4251 55.1237 40.5894 55.39 40.9181 55.594C41.2467 55.7867 41.6434 55.9453 42.1081 56.07C42.5727 56.1833 43.0374 56.3193 43.5021 56.478C43.9667 56.6253 44.3634 56.886 44.6921 57.26C45.0207 57.6227 45.1851 58.093 45.1851 58.671C45.1851 59.4417 44.8847 60.0593 44.2841 60.524C43.6947 60.9887 42.9354 61.221 42.0061 61.221C41.1787 61.221 40.4704 61.0397 39.8811 60.677C39.2917 60.3143 38.8724 59.8327 38.6231 59.232L39.8981 58.501C40.0341 58.909 40.2891 59.232 40.6631 59.47C41.0371 59.708 41.4847 59.827 42.0061 59.827C42.4934 59.827 42.8957 59.7363 43.2131 59.555C43.5304 59.3623 43.6891 59.0677 43.6891 58.671C43.6891 58.3423 43.5247 58.0817 43.1961 57.889C42.8674 57.685 42.4707 57.5263 42.0061 57.413C41.5414 57.2883 41.0767 57.1467 40.6121 56.988C40.1474 56.8293 39.7507 56.5687 39.4221 56.206C39.0934 55.8433 38.9291 55.3787 38.9291 54.812C38.9291 54.0753 39.2124 53.469 39.7791 52.993C40.3571 52.517 41.0767 52.279 41.9381 52.279C42.6294 52.279 43.2414 52.4377 43.7741 52.755C44.3181 53.061 44.7261 53.4917 44.9981 54.047L43.7571 54.744C43.4511 54.0187 42.8447 53.656 41.9381 53.656C41.5187 53.656 41.1617 53.758 40.8671 53.962C40.5724 54.1547 40.4251 54.4323 40.4251 54.795Z" fill="#212121"/>
<path fill-rule="evenodd" clip-rule="evenodd" d="M27.2059 0L23.2059 6.92813L19.206 0L5.8855 0.000135422L23.2058 30.0001L40.5261 0.000135422L27.2059 0ZM23.2059 7.92813L18.9173 0.5H13.6798L23.2059 16.9997L32.7321 0.5H27.4946L23.2059 7.92813Z" fill="#212121"/>
</svg>
