<svg width="83" height="64" viewBox="0 0 83 64" fill="none" xmlns="http://www.w3.org/2000/svg">
<path d="M4.89449 61L1.47749 49.1H3.14349L5.86349 58.892L8.75349 49.1H10.3515L13.2415 58.892L15.9615 49.1H17.6275L14.2105 61H12.3745L9.55249 51.497L6.73049 61H4.89449ZM25.3358 59.929C24.4631 60.7903 23.4035 61.221 22.1568 61.221C20.9101 61.221 19.8505 60.7903 18.9778 59.929C18.1165 59.0677 17.6858 58.008 17.6858 56.75C17.6858 55.492 18.1165 54.4323 18.9778 53.571C19.8505 52.7097 20.9101 52.279 22.1568 52.279C23.4035 52.279 24.4631 52.7097 25.3358 53.571C26.2085 54.4323 26.6448 55.492 26.6448 56.75C26.6448 58.008 26.2085 59.0677 25.3358 59.929ZM22.1568 59.776C23.0068 59.776 23.7208 59.487 24.2988 58.909C24.8768 58.331 25.1658 57.6113 25.1658 56.75C25.1658 55.8887 24.8768 55.169 24.2988 54.591C23.7208 54.013 23.0068 53.724 22.1568 53.724C21.3181 53.724 20.6098 54.013 20.0318 54.591C19.4538 55.169 19.1648 55.8887 19.1648 56.75C19.1648 57.6113 19.4538 58.331 20.0318 58.909C20.6098 59.487 21.3181 59.776 22.1568 59.776ZM29.8674 53.928C30.3547 52.874 31.2387 52.347 32.5194 52.347V53.894C31.794 53.86 31.1707 54.0527 30.6494 54.472C30.128 54.8913 29.8674 55.5657 29.8674 56.495V61H28.3884V52.5H29.8674V53.928ZM40.5396 49.1H42.0186V61H40.5396V59.538C39.803 60.66 38.732 61.221 37.3266 61.221C36.1366 61.221 35.1223 60.7903 34.2836 59.929C33.445 59.0563 33.0256 57.9967 33.0256 56.75C33.0256 55.5033 33.445 54.4493 34.2836 53.588C35.1223 52.7153 36.1366 52.279 37.3266 52.279C38.732 52.279 39.803 52.84 40.5396 53.962V49.1ZM37.5136 59.793C38.375 59.793 39.0946 59.504 39.6726 58.926C40.2506 58.3367 40.5396 57.6113 40.5396 56.75C40.5396 55.8887 40.2506 55.169 39.6726 54.591C39.0946 54.0017 38.375 53.707 37.5136 53.707C36.6636 53.707 35.9496 54.0017 35.3716 54.591C34.7936 55.169 34.5046 55.8887 34.5046 56.75C34.5046 57.6113 34.7936 58.3367 35.3716 58.926C35.9496 59.504 36.6636 59.793 37.5136 59.793ZM48.7305 49.1C49.8298 49.1 50.7421 49.4683 51.4675 50.205C52.2041 50.9303 52.5725 51.837 52.5725 52.925C52.5725 54.0017 52.2041 54.9083 51.4675 55.645C50.7421 56.3817 49.8298 56.75 48.7305 56.75H45.9935V61H44.4125V49.1H48.7305ZM48.7305 55.271C49.3878 55.271 49.9318 55.05 50.3625 54.608C50.7931 54.1547 51.0085 53.5937 51.0085 52.925C51.0085 52.245 50.7931 51.684 50.3625 51.242C49.9318 50.8 49.3878 50.579 48.7305 50.579H45.9935V55.271H48.7305ZM55.5832 53.928C56.0705 52.874 56.9545 52.347 58.2352 52.347V53.894C57.5098 53.86 56.8865 54.0527 56.3652 54.472C55.8438 54.8913 55.5832 55.5657 55.5832 56.495V61H54.1042V52.5H55.5832V53.928ZM60.2545 57.43C60.4018 58.1893 60.7475 58.7787 61.2915 59.198C61.8468 59.6173 62.5268 59.827 63.3315 59.827C64.4535 59.827 65.2695 59.4133 65.7795 58.586L67.0375 59.3C66.2101 60.5807 64.9635 61.221 63.2975 61.221C61.9488 61.221 60.8495 60.8017 59.9995 59.963C59.1608 59.113 58.7415 58.042 58.7415 56.75C58.7415 55.4693 59.1551 54.404 59.9825 53.554C60.8098 52.704 61.8808 52.279 63.1955 52.279C64.4421 52.279 65.4565 52.721 66.2385 53.605C67.0318 54.4777 67.4285 55.5317 67.4285 56.767C67.4285 56.9823 67.4115 57.2033 67.3775 57.43H60.2545ZM63.1955 53.673C62.4021 53.673 61.7448 53.8997 61.2235 54.353C60.7021 54.795 60.3791 55.39 60.2545 56.138H65.9325C65.8078 55.3333 65.4905 54.7213 64.9805 54.302C64.4705 53.8827 63.8755 53.673 63.1955 53.673ZM70.0716 54.795C70.0716 55.1237 70.2359 55.39 70.5646 55.594C70.8932 55.7867 71.2899 55.9453 71.7546 56.07C72.2192 56.1833 72.6839 56.3193 73.1486 56.478C73.6132 56.6253 74.0099 56.886 74.3386 57.26C74.6672 57.6227 74.8316 58.093 74.8316 58.671C74.8316 59.4417 74.5312 60.0593 73.9306 60.524C73.3412 60.9887 72.5819 61.221 71.6526 61.221C70.8252 61.221 70.1169 61.0397 69.5276 60.677C68.9382 60.3143 68.5189 59.8327 68.2696 59.232L69.5446 58.501C69.6806 58.909 69.9356 59.232 70.3096 59.47C70.6836 59.708 71.1312 59.827 71.6526 59.827C72.1399 59.827 72.5422 59.7363 72.8596 59.555C73.1769 59.3623 73.3356 59.0677 73.3356 58.671C73.3356 58.3423 73.1712 58.0817 72.8426 57.889C72.5139 57.685 72.1172 57.5263 71.6526 57.413C71.1879 57.2883 70.7232 57.1467 70.2586 56.988C69.7939 56.8293 69.3972 56.5687 69.0686 56.206C68.7399 55.8433 68.5756 55.3787 68.5756 54.812C68.5756 54.0753 68.8589 53.469 69.4256 52.993C70.0036 52.517 70.7232 52.279 71.5846 52.279C72.2759 52.279 72.8879 52.4377 73.4206 52.755C73.9646 53.061 74.3726 53.4917 74.6446 54.047L73.4036 54.744C73.0976 54.0187 72.4912 53.656 71.5846 53.656C71.1652 53.656 70.8082 53.758 70.5136 53.962C70.2189 54.1547 70.0716 54.4323 70.0716 54.795ZM77.3264 54.795C77.3264 55.1237 77.4908 55.39 77.8194 55.594C78.1481 55.7867 78.5448 55.9453 79.0094 56.07C79.4741 56.1833 79.9388 56.3193 80.4034 56.478C80.8681 56.6253 81.2648 56.886 81.5934 57.26C81.9221 57.6227 82.0864 58.093 82.0864 58.671C82.0864 59.4417 81.7861 60.0593 81.1854 60.524C80.5961 60.9887 79.8368 61.221 78.9074 61.221C78.0801 61.221 77.3718 61.0397 76.7824 60.677C76.1931 60.3143 75.7738 59.8327 75.5244 59.232L76.7994 58.501C76.9354 58.909 77.1904 59.232 77.5644 59.47C77.9384 59.708 78.3861 59.827 78.9074 59.827C79.3948 59.827 79.7971 59.7363 80.1144 59.555C80.4318 59.3623 80.5904 59.0677 80.5904 58.671C80.5904 58.3423 80.4261 58.0817 80.0974 57.889C79.7688 57.685 79.3721 57.5263 78.9074 57.413C78.4428 57.2883 77.9781 57.1467 77.5134 56.988C77.0488 56.8293 76.6521 56.5687 76.3234 56.206C75.9948 55.8433 75.8304 55.3787 75.8304 54.812C75.8304 54.0753 76.1138 53.469 76.6804 52.993C77.2584 52.517 77.9781 52.279 78.8394 52.279C79.5308 52.279 80.1428 52.4377 80.6754 52.755C81.2194 53.061 81.6274 53.4917 81.8994 54.047L80.6584 54.744C80.3524 54.0187 79.7461 53.656 78.8394 53.656C78.4201 53.656 78.0631 53.758 77.7684 53.962C77.4738 54.1547 77.3264 54.4323 77.3264 54.795Z" fill="#212121"/>
<path fill-rule="evenodd" clip-rule="evenodd" d="M41.8844 2.1021C45.2491 2.1021 48.3126 3.39145 50.609 5.50244C49.4835 5.47224 48.3602 6.14131 48.3138 7.67342C48.2191 10.7708 52.0174 11.4305 49.9707 17.6606L48.2777 22.814L43.6669 9.23168C43.5954 9.02143 43.6785 8.90179 43.9369 8.90179H45.2405C45.3083 8.90179 45.3636 8.84394 45.3636 8.7731V8.001C45.3636 7.93018 45.3081 7.86941 45.2405 7.87234C42.7719 7.98029 40.3178 7.98102 37.8785 7.87234C37.8105 7.86943 37.7553 7.93042 37.7553 8.00127V8.77337C37.7553 8.84414 37.8107 8.90206 37.8785 8.90206H39.1892C39.4807 8.90206 39.5624 8.99922 39.6311 9.18715L41.5256 14.3684L38.6757 22.9739L33.9911 9.17554C33.933 9.00246 34.0033 8.90199 34.17 8.90199H35.6635C35.7312 8.90199 35.7866 8.84414 35.7866 8.7733V8.0012C35.7866 7.93038 35.731 7.86899 35.6635 7.87253C34.0965 7.95577 32.5235 7.97251 31.0583 7.98755C33.3576 4.44567 37.3471 2.10185 41.8836 2.10185L41.8836 2.10181L41.8844 2.1021ZM53.2284 8.8584C54.2195 10.6845 54.7823 12.7766 54.7823 14.9997C54.7823 19.8786 52.0715 24.125 48.0748 26.3169L52.0973 14.9236C52.7205 13.1603 53.2989 10.7773 53.2281 8.8584H53.2281H53.2284ZM46.2026 27.1555C44.8523 27.6358 43.3991 27.8978 41.8844 27.8978C40.5794 27.8978 39.3203 27.7032 38.1331 27.3431L42.1066 15.9562L46.2025 27.1561L46.2026 27.1555ZM36.3652 26.6595C32.0034 24.591 28.9863 20.1472 28.9863 15.0002C28.9863 13.0922 29.4014 11.281 30.1453 9.65141L36.3655 26.6598L36.3655 26.6598L36.3652 26.6595ZM41.884 0.891741C49.6741 0.891741 55.9919 7.20955 55.9919 14.9997C55.9919 22.7898 49.6741 29.1076 41.884 29.1076C34.0939 29.1076 27.7761 22.7898 27.7761 14.9997C27.7761 7.20955 34.0939 0.891741 41.884 0.891741ZM41.884 0C50.1666 0 56.884 6.71739 56.884 15C56.884 23.2826 50.1666 30 41.884 30C33.6014 30 26.884 23.2826 26.884 15C26.884 6.71739 33.6014 0 41.884 0Z" fill="#212121"/>
</svg>
